<svg width="262" height="262" viewBox="0 0 262 262" fill="none" xmlns="http://www.w3.org/2000/svg">
<g opacity="0.1">
<mask id="mask0_204_3180" style="mask-type:luminance" maskUnits="userSpaceOnUse" x="0" y="0" width="262" height="262">
<path d="M130.55 261.1C202.651 261.1 261.1 202.651 261.1 130.55C261.1 58.4493 202.651 0 130.55 0C58.4493 0 0 58.4493 0 130.55C0 202.651 58.4493 261.1 130.55 261.1Z" fill="white"/>
</mask>
<g mask="url(#mask0_204_3180)">
<path d="M-190.47 247.08L247.08 -190.48" stroke="#3A86FF" stroke-width="10" stroke-miterlimit="10"/>
<path d="M245.321 -192.203L-192.236 245.354L-188.552 249.039L249.005 -188.519L245.321 -192.203Z" stroke="#3A86FF" stroke-width="10" stroke-miterlimit="10"/>
<path d="M-161.16 276.39L276.4 -161.16" stroke="#3A86FF" stroke-width="10" stroke-miterlimit="10"/>
<path d="M274.632 -162.892L-162.926 274.665L-159.242 278.349L278.316 -159.208L274.632 -162.892Z" stroke="#3A86FF" stroke-width="10" stroke-miterlimit="10"/>
<path d="M-131.85 305.709L305.71 -131.851" stroke="#3A86FF" stroke-width="10" stroke-miterlimit="10"/>
<path d="M303.962 -133.533L-133.596 304.024L-129.912 307.708L307.646 -129.849L303.962 -133.533Z" stroke="#3A86FF" stroke-width="10" stroke-miterlimit="10"/>
<path d="M-102.53 335.02L335.02 -102.54" stroke="#3A86FF" stroke-width="10" stroke-miterlimit="10"/>
<path d="M333.257 -104.263L-104.301 333.295L-100.617 336.979L336.941 -100.579L333.257 -104.263Z" stroke="#3A86FF" stroke-width="10" stroke-miterlimit="10"/>
<path d="M-73.2207 364.329L364.339 -73.2207" stroke="#3A86FF" stroke-width="10" stroke-miterlimit="10"/>
<path d="M362.567 -74.9434L-74.9902 362.614L-71.3062 366.298L366.252 -71.2594L362.567 -74.9434Z" stroke="#3A86FF" stroke-width="10" stroke-miterlimit="10"/>
<path d="M-43.9004 393.65L393.65 -43.9102" stroke="#3A86FF" stroke-width="10" stroke-miterlimit="10"/>
<path d="M391.878 -45.6327L-45.6797 391.925L-41.9956 395.609L395.562 -41.9487L391.878 -45.6327Z" stroke="#3A86FF" stroke-width="10" stroke-miterlimit="10"/>
<path d="M-14.5898 422.96L422.97 -14.5898" stroke="#3A86FF" stroke-width="10" stroke-miterlimit="10"/>
<path d="M421.253 -16.2325L-16.3047 421.325L-12.6206 425.009L424.937 -12.5485L421.253 -16.2325Z" stroke="#3A86FF" stroke-width="10" stroke-miterlimit="10"/>
<path d="M14.7207 452.27L452.281 14.7197" stroke="#3A86FF" stroke-width="10" stroke-miterlimit="10"/>
<path d="M450.534 13.0468L12.9766 450.604L16.6606 454.289L454.218 16.7308L450.534 13.0468Z" stroke="#3A86FF" stroke-width="10" stroke-miterlimit="10"/>
</g>
</g>
</svg>
