<svg width="1525" height="378" viewBox="0 0 1525 378" fill="none" xmlns="http://www.w3.org/2000/svg">
<g opacity="0.23">
<path d="M872.929 -0.199829C858.559 -0.199829 839.449 -16.1099 829.479 -27.6199C798.769 -64.4799 775.299 -108 757.719 -160.69C740.919 -211.07 731.729 -263.12 724.949 -307.4C722.519 -325.55 722.389 -343.59 724.559 -361.04C738.019 -468.96 836.789 -545.8 944.689 -532.34C979.469 -528 1012.48 -514.5 1040.14 -493.3C1053.53 -483.03 1065.57 -471.07 1075.93 -457.74C1104.82 -424.78 1108.21 -372.16 1083.97 -332.65C1078.67 -322.82 1071.97 -312.69 1063.5 -301.71L1063.45 -301.65C973.889 -216.21 924.689 -107.36 888.369 -12.1499C885.849 -5.41992 881.689 -1.48987 876.009 -0.469849C875.009 -0.289856 873.979 -0.209839 872.929 -0.209839V-0.199829ZM920.139 -532.87C822.669 -532.87 737.929 -460.08 725.559 -360.91C723.389 -343.55 723.519 -325.59 725.949 -307.54C739.929 -216.21 760.669 -111.76 830.249 -28.2699C840.799 -16.0999 861.649 1.10016 875.849 -1.44983C881.159 -2.39984 885.059 -6.11987 887.449 -12.4999C911.369 -75.1999 934.169 -124.64 959.199 -168.09C989.729 -221.08 1023.6 -264.99 1062.74 -302.34C1071.17 -313.26 1077.83 -323.34 1083.11 -333.14C1107.14 -372.32 1103.79 -424.44 1075.17 -457.1C1064.85 -470.38 1052.87 -482.29 1039.55 -492.5C1012.03 -513.6 979.189 -527.03 944.589 -531.35C936.379 -532.37 928.219 -532.87 920.159 -532.87H920.139Z" fill="white"/>
<path d="M900.431 69.5997C893.771 69.5997 886.821 67.3598 879.821 62.9098C833.881 33.8498 796.421 -5.10028 765.291 -56.1803C756.131 -71.2103 747.431 -87.5303 739.431 -104.68C707.531 -172.12 691.041 -242.78 675.611 -315.28C674.371 -329.77 674.421 -344.45 675.741 -358.98C681.721 -424.29 712.771 -483.37 763.181 -525.33C813.591 -567.29 877.321 -587.1 942.641 -581.13C1007.95 -575.15 1067.03 -544.1 1108.99 -493.69C1119.07 -481.58 1128 -468.47 1135.52 -454.74C1150.86 -429.36 1155.61 -394.73 1148.22 -362.13C1144.01 -344.8 1135.94 -326.65 1124.24 -308.19L1123.3 -306.74C1115.32 -294.45 1107.79 -282.84 1097.01 -272.06C998.321 -182.58 947.981 -90.6702 943.101 8.92981C942.391 30.1498 932.221 56.6298 914.151 66.1598C909.791 68.4598 905.191 69.5997 900.431 69.5997ZM920.091 -581.17C795.221 -581.17 688.341 -485.63 676.741 -358.89C675.421 -344.42 675.371 -329.8 676.601 -315.43C692.001 -243.06 708.481 -172.46 740.331 -105.11C748.321 -87.9903 757.001 -71.7002 766.141 -56.7002C797.181 -5.76019 834.541 33.0898 880.351 62.0598C892.201 69.5998 903.421 70.6797 913.681 65.2698C931.411 55.9198 941.401 29.8198 942.101 8.87976C947.001 -91.0103 997.441 -183.14 1096.32 -272.79C1107 -283.47 1114.51 -295.04 1122.46 -307.29L1123.39 -308.73C1135.04 -327.1 1143.06 -345.15 1147.24 -362.37C1154.58 -394.72 1149.87 -429.08 1134.65 -454.26C1127.15 -467.95 1118.26 -481.01 1108.22 -493.07C1066.43 -543.27 1007.59 -574.2 942.551 -580.15C935.011 -580.84 927.521 -581.18 920.091 -581.18V-581.17Z" fill="white"/>
<path d="M930.78 112.02C927.69 112.02 924.53 111.67 921.29 110.97C846.25 93.2 784.98 44.0601 733.99 -39.2499C725.64 -52.7599 717.49 -67.2499 709.07 -83.53C702.91 -96.9999 696.28 -110.82 689.86 -124.18C675.61 -153.86 660.87 -184.55 649.2 -215.69C643.1 -231.98 638.34 -246.98 634.66 -261.56C625.66 -294.35 623.02 -326.45 626.82 -356.93C628.26 -376.87 631.69 -396.63 637 -415.65C654.87 -479.94 694.77 -536.85 749.38 -575.9C776.57 -595.34 806.56 -609.89 838.52 -619.14C871.6 -628.72 905.95 -632.35 940.61 -629.95C1038.21 -623.19 1125.78 -568.54 1174.88 -483.77C1184.85 -466.53 1192.54 -449.12 1197.76 -432.01C1203.36 -413.4 1205.5 -394.39 1204.12 -375.51C1202.67 -355.86 1197.12 -335.25 1187.6 -314.27C1167.82 -268.96 1134.83 -235.53 1099.91 -200.13C1083.94 -183.95 1067.43 -167.21 1052.4 -149.31C1013.18 -102.04 1003.07 -46.0199 992.37 13.2901C991.22 19.6401 990.07 26.0201 988.88 32.4201C985.86 49.0501 976.25 89.4501 952.43 105.37C945.81 109.79 938.57 112.01 930.8 112.01L930.78 112.02ZM920.35 -629.65C790.03 -629.65 673.21 -542.2 637.96 -415.38C632.67 -396.43 629.25 -376.73 627.81 -356.84C624.02 -326.46 626.65 -294.5 635.62 -261.82C639.3 -247.26 644.04 -232.29 650.13 -216.04C661.78 -184.94 676.51 -154.27 690.75 -124.61C697.17 -111.25 703.8 -97.4299 709.95 -83.9699C718.35 -67.7299 726.49 -53.27 734.83 -39.78C785.68 43.29 846.74 92.28 921.5 109.99C932.63 112.39 942.84 110.56 951.85 104.54C975.36 88.8401 984.88 48.7501 987.88 32.2401C989.07 25.84 990.22 19.46 991.37 13.11C1002.1 -46.34 1012.23 -102.48 1051.62 -149.96C1066.68 -167.89 1083.21 -184.64 1099.19 -200.84C1134.05 -236.17 1166.97 -269.54 1186.68 -314.68C1196.15 -335.56 1201.68 -356.06 1203.11 -375.59C1204.49 -394.35 1202.36 -413.23 1196.79 -431.73C1191.6 -448.76 1183.93 -466.11 1174.01 -483.28C1125.08 -567.76 1037.8 -622.23 940.54 -628.97C933.79 -629.44 927.04 -629.67 920.35 -629.67V-629.65Z" fill="white"/>
<path d="M938.221 140.121C936.711 140.121 935.191 140.081 933.651 140.011C858.281 135.601 791.691 93.8306 730.061 12.2906C720.111 -0.789429 710.181 -14.9694 699.701 -31.0694C688.061 -49.6494 675.791 -68.0895 663.921 -85.9295C650.151 -106.62 635.921 -128.009 622.681 -149.609C616.061 -160.409 610.201 -170.419 604.771 -180.209C579.471 -218.009 568.341 -262.659 570.741 -316.659C573.021 -367.799 587.261 -418.549 599.421 -457.059C605.051 -472.059 611.801 -486.789 619.481 -500.849C650.041 -556.729 695.511 -602.959 750.981 -634.549C807.941 -666.979 872.811 -682.259 938.561 -678.759C1002.45 -675.339 1063.83 -654.289 1116.04 -617.859C1166.82 -582.439 1207.13 -533.939 1232.62 -477.599C1240.14 -460.949 1246.14 -444.059 1250.45 -427.419C1255.02 -409.719 1257.37 -391.799 1257.44 -374.149C1257.5 -355.919 1254.85 -337.159 1249.56 -318.369C1236.92 -272.479 1210.52 -233.689 1186.35 -201.799C1173.76 -185.969 1160.36 -171.059 1147.41 -156.639C1119.57 -125.649 1093.27 -96.3795 1075.89 -60.1094C1066.39 -41.1094 1058.66 -18.7095 1050.48 5.00055C1038.94 38.4506 1027 73.0406 1009.36 98.8106C990.351 126.571 967.041 140.121 938.221 140.121ZM920.551 -678.229C796.641 -678.229 680.231 -609.829 620.361 -500.369C612.691 -486.349 605.971 -471.669 600.361 -456.739C571.931 -366.649 550.311 -263.389 605.621 -180.739C611.071 -170.919 616.921 -160.929 623.531 -150.139C636.761 -128.559 650.991 -107.169 664.751 -86.4894C676.621 -68.6494 688.901 -50.1995 700.541 -31.6194C711.001 -15.5494 720.911 -1.37939 730.851 11.6806C792.291 92.9706 858.641 134.621 933.691 139.011C935.241 139.081 936.781 139.121 938.291 139.121C1003.15 139.121 1026.72 70.8006 1049.54 4.6806C1057.73 -19.0594 1065.47 -41.4895 1075 -60.5395C1092.44 -96.9295 1118.78 -126.259 1146.68 -157.299C1159.62 -171.709 1173.01 -186.609 1185.58 -202.399C1209.68 -234.209 1236.01 -272.899 1248.61 -318.629C1253.87 -337.329 1256.51 -355.999 1256.45 -374.139C1256.38 -391.699 1254.04 -409.539 1249.49 -427.159C1245.2 -443.749 1239.22 -460.579 1231.72 -477.179C1178.85 -594.049 1066.5 -670.909 938.521 -677.749C932.521 -678.069 926.531 -678.229 920.561 -678.229H920.551Z" fill="white"/>
<path d="M947.069 171.269C900.979 170.959 857.889 157.569 815.319 130.329C780.819 108.249 746.329 76.5795 709.879 33.4995C700.669 22.6094 690.759 10.4094 678.689 -4.91058C653.609 -37.8706 626.839 -67.8705 596.839 -96.6205C586.999 -106.051 576.639 -115.501 566.049 -124.691C539.199 -148.381 520.609 -177.071 510.799 -209.961C502.229 -238.701 500.069 -271.711 504.389 -308.071C512.299 -374.631 540.519 -443.981 566.349 -503.751C574.429 -520.841 583.839 -537.481 594.339 -553.241C630.939 -608.201 681.229 -653.361 739.759 -683.861C800.099 -715.291 868.129 -730.411 936.509 -727.561C1014.85 -724.301 1089.48 -698.071 1152.31 -651.701C1213.64 -606.451 1260.14 -544.931 1286.8 -473.811C1292.77 -457.891 1297.73 -441.421 1301.55 -424.871C1305.53 -407.531 1308.03 -390.311 1308.98 -373.671C1309.97 -356.071 1309.26 -338.231 1306.86 -320.651V-320.631C1292.52 -236.981 1245.1 -172.071 1194.89 -103.351C1175.77 -77.1906 1156.01 -50.1306 1138.37 -22.1005C1130.35 -8.97052 1122.7 4.77942 1114.24 20.0894L1112.6 23.0694C1105.2 36.4794 1097.55 50.3494 1089.62 63.6894C1069.38 99.6694 1040.13 143.429 993.239 162.499C978.849 168.309 963.309 171.259 947.049 171.259L947.069 171.269ZM919.789 -726.901C788.799 -726.901 668.409 -662.611 595.189 -552.681C584.729 -536.971 575.339 -520.371 567.279 -503.341C523.009 -400.891 448.889 -229.411 566.719 -125.441C577.319 -116.241 587.689 -106.781 597.539 -97.3406C627.569 -68.5506 654.369 -38.5206 679.479 -5.53058C691.529 9.76941 701.439 21.9694 710.639 32.8494C790.559 127.309 863.479 169.689 947.059 170.259C963.179 170.259 978.599 167.339 992.869 161.569C1039.48 142.609 1068.6 99.0295 1088.77 63.1795C1096.69 49.8395 1104.34 35.9794 1111.74 22.5694L1113.38 19.5894C1121.84 4.26941 1129.49 -9.49054 1137.53 -22.6406C1155.19 -50.7106 1174.97 -77.7806 1194.09 -103.961C1244.22 -172.581 1291.58 -237.401 1305.88 -320.811C1308.27 -338.331 1308.99 -356.101 1308 -373.631C1307.06 -390.211 1304.57 -407.381 1300.6 -424.661C1296.79 -441.171 1291.84 -457.601 1285.89 -473.481C1230.71 -620.701 1093.57 -720.051 936.489 -726.581C930.909 -726.811 925.329 -726.931 919.789 -726.931V-726.901Z" fill="white"/>
<path d="M976.922 203.11C971.372 203.11 965.792 202.97 960.192 202.69C948.792 202.12 936.842 200.94 924.672 199.17C826.572 183.32 752.292 121.85 698.542 70.06C687.082 59.02 674.742 46.6199 660.822 32.14C624.102 -7.81006 581.912 -39.1801 537.242 -72.3801L532.482 -75.9201C523.642 -82.5101 514.142 -89.61 504.612 -96.9301L499.992 -100.64C461.152 -131.76 417.132 -167.03 408.512 -218.76C401.542 -257.58 409.722 -296.71 434.242 -341.88C460.482 -391.54 483.122 -440.25 507.092 -491.81C511.582 -501.47 516.092 -511.16 520.632 -520.9C528.542 -538.04 537.672 -554.85 547.752 -570.85C587.982 -634.7 644.302 -687.49 710.612 -723.51C778.932 -760.62 856.362 -778.89 934.502 -776.37C984.012 -774.77 1032.34 -765.03 1078.15 -747.43C1122.44 -730.41 1163.52 -706.4 1200.25 -676.05C1236.61 -646.02 1267.77 -610.57 1292.87 -570.69C1318.36 -530.2 1336.94 -486.16 1348.09 -439.8C1352.63 -420.91 1355.94 -401.52 1357.93 -382.18C1359.98 -362.02 1360.45 -341.95 1359.33 -322.51C1356.25 -271.71 1341.93 -221.52 1315.57 -169.08C1289.65 -117.51 1254.4 -69.0901 1226.59 -32.6701C1216.34 -19.2401 1206.14 -6.22009 1197.51 4.73993C1173.87 37.14 1156.76 71.5999 1138.64 108.09C1133.86 117.72 1128.91 127.69 1123.88 137.51C1097.62 187.65 1040.12 200.53 996.502 202.52C990.062 202.92 983.512 203.12 976.902 203.12L976.922 203.11ZM920.442 -775.59C770.432 -775.59 628.952 -697.85 548.592 -570.31C538.532 -554.34 529.422 -537.57 521.532 -520.47C516.982 -510.74 512.482 -501.04 507.982 -491.38C484.002 -439.81 461.352 -391.09 435.102 -341.4C410.692 -296.43 402.552 -257.52 409.472 -218.92C418.032 -167.56 461.892 -132.42 500.592 -101.41L505.212 -97.7101C514.732 -90.4101 524.222 -83.3101 533.062 -76.72L537.822 -73.1801C582.532 -39.9401 624.762 -8.55011 661.542 31.4599C675.442 45.9199 687.772 58.3099 699.222 69.3499C752.872 121.04 826.992 182.39 924.812 198.19C936.942 199.95 948.862 201.13 960.232 201.7C972.452 202.32 984.642 202.26 996.452 201.52C1039.81 199.55 1096.95 186.76 1122.99 137.05C1128.02 127.24 1132.96 117.28 1137.74 107.65C1155.88 71.12 1173 36.62 1196.7 4.14996C1205.33 -6.83002 1215.53 -19.8401 1225.78 -33.2701C1300.75 -131.46 1351.98 -218.23 1358.31 -322.56C1359.43 -341.95 1358.96 -361.97 1356.92 -382.07C1354.94 -401.37 1351.64 -420.71 1347.11 -439.56C1301.08 -630.9 1131.38 -768.99 934.452 -775.35C929.772 -775.5 925.082 -775.58 920.422 -775.58L920.442 -775.59Z" fill="white"/>
<path d="M1101.24 271.38C1093.32 271.38 1085.33 269.62 1077.48 266.11C1047.33 253.63 1014.27 241.7 976.912 238.87C960.102 236.05 943.182 232.44 926.562 228.13C835.072 204.38 743.852 157.13 655.442 87.6705C643.112 77.9805 630.052 67.3205 615.522 55.0605C583.972 26.1005 547.892 -1.59955 501.972 -32.1296C490.442 -39.8096 478.042 -47.8596 461.762 -58.2195C448.912 -67.0695 435.362 -75.2097 421.012 -83.8096C371.952 -113.24 321.212 -143.68 304.692 -201.96C293.502 -239.59 304.942 -280.45 336.062 -314.07C391.442 -370.32 425.842 -440.05 459.102 -507.49C468.032 -525.59 477.262 -544.3 486.742 -562.42C495.032 -578.31 504.312 -593.92 514.322 -608.81C559.352 -675.82 620.832 -731.18 692.132 -768.89C765.682 -807.79 848.792 -827.24 932.462 -825.16C1053.01 -822.15 1167.68 -774.99 1255.36 -692.35C1342.35 -610.36 1396.19 -499.95 1406.96 -381.47C1408.67 -362.63 1409.3 -343.44 1408.83 -324.42C1407.81 -268.31 1395.04 -211.41 1370.87 -155.3C1349 -104.52 1317.74 -54.1796 1277.97 -5.66962C1267.47 7.13037 1256.17 20.0604 1244.37 32.7404C1200.43 78.7804 1185.15 141.23 1170.36 201.63L1168.59 208.85C1162.29 234.05 1145.81 255.81 1125.57 265.65C1117.7 269.48 1109.51 271.39 1101.24 271.39V271.38ZM920.032 -824.32C757.122 -824.32 606.492 -744.19 515.152 -608.25C505.162 -593.38 495.902 -577.8 487.632 -561.95C478.162 -543.84 468.932 -525.13 460.002 -507.04C426.702 -439.54 392.262 -369.73 336.782 -313.37C305.912 -280.03 294.562 -239.52 305.652 -202.23C322.072 -144.33 372.632 -114 421.532 -84.6596C435.262 -76.4196 449.462 -67.8996 462.322 -59.0396C478.582 -48.6896 490.992 -40.6395 502.532 -32.9495C548.492 -2.38953 584.612 25.3404 616.182 54.3304C630.692 66.5704 643.742 77.2305 656.062 86.9005C744.362 156.27 835.462 203.46 926.822 227.18C943.412 231.49 960.302 235.09 977.042 237.9C1014.49 240.73 1047.64 252.7 1077.88 265.21C1093.67 272.27 1110.01 272.12 1125.14 264.76C1145.12 255.05 1161.4 233.53 1167.63 208.62L1169.4 201.4C1184.21 140.88 1199.53 78.3004 1243.65 32.0704C1255.43 19.4104 1266.72 6.50037 1277.2 -6.28961C1360.74 -108.17 1405.91 -218.18 1407.84 -324.42C1408.31 -343.41 1407.69 -362.56 1405.98 -381.36C1383.59 -627.61 1180.01 -817.96 932.452 -824.14C928.312 -824.24 924.162 -824.3 920.032 -824.3V-824.32Z" fill="white"/>
<path d="M1146.9 363.28C1104.28 363.28 1073.38 338.34 1040.67 311.94C1032.32 305.2 1023.68 298.23 1014.87 291.74C1000.15 281.93 987.079 275.92 973.759 272.86C955.799 268.9 937.519 264.2 919.449 258.89C839.529 235.4 768.899 201.93 694.129 166.49C686.499 162.87 678.829 159.24 671.119 155.6C657.899 149.34 644.439 145.17 631.419 141.15C623.589 138.73 615.499 136.23 607.529 133.29C590.819 127.72 575.999 117.17 562.249 101.05C536.339 55.7798 498.539 17.4997 446.629 -16.0403C435.529 -23.2103 423.869 -30.1503 410.999 -37.2502C393.419 -47.2902 374.759 -55.4203 356.719 -63.2903C329.959 -74.9603 302.289 -87.0203 276.969 -105.68C244.599 -129.61 225.619 -166.41 223.529 -209.32C221.089 -259.41 242.409 -311.11 279.159 -344.24C284.179 -348.69 289.219 -353.1 294.249 -357.51C339.279 -396.93 381.819 -434.16 401.819 -489.17C412.369 -519.77 425.139 -549.28 441.999 -582.05C451.009 -599.57 461.109 -616.81 472.019 -633.27C521.089 -707.27 588.339 -768.55 666.499 -810.5C747.119 -853.77 838.379 -875.71 930.429 -873.98C1002.97 -872.61 1073.08 -857.07 1138.8 -827.8C1202.28 -799.53 1259.01 -759.69 1307.43 -709.41C1355.85 -659.13 1393.51 -600.93 1419.36 -536.43C1446.13 -469.65 1459.01 -399.01 1457.64 -326.47C1457.05 -295.18 1453.74 -263.86 1447.82 -233.39C1444.91 -218.43 1441.32 -203.44 1437.15 -188.84C1414.91 -112.19 1377.43 -43.2003 1325.76 16.2097C1315.81 27.6597 1304.84 39.2698 1293.15 50.7397C1241.12 102.87 1227.51 174.11 1214.35 243C1209.24 269.75 1203.95 297.42 1196.5 323.83C1189.42 347.42 1169.49 363.27 1146.9 363.27V363.28ZM920.069 -873.07C739.599 -873.07 573.039 -783.76 472.859 -632.71C461.969 -616.28 451.879 -599.08 442.889 -581.59C426.049 -548.86 413.299 -519.39 402.759 -488.83C382.669 -433.57 340.039 -396.26 294.909 -356.75C289.879 -352.35 284.839 -347.94 279.819 -343.49C243.289 -310.55 222.099 -259.16 224.519 -209.36C226.589 -166.76 245.429 -130.22 277.549 -106.48C302.779 -87.8902 330.399 -75.8502 357.099 -64.2002C375.169 -56.3202 393.849 -48.1802 411.469 -38.1102C424.359 -31.0103 436.029 -24.0602 447.149 -16.8702C499.199 16.7598 537.109 55.1497 563.049 100.48C576.629 116.38 591.299 126.83 607.849 132.35C615.809 135.28 623.889 137.78 631.699 140.2C644.749 144.24 658.249 148.41 671.529 154.7C679.239 158.34 686.909 161.97 694.539 165.59C769.269 201.01 839.859 234.46 919.709 257.93C937.759 263.24 956.009 267.93 973.959 271.88C987.409 274.98 1000.58 281.03 1015.42 290.92C1024.27 297.44 1032.91 304.42 1041.27 311.16C1073.84 337.45 1104.6 362.28 1146.87 362.28C1169.02 362.28 1188.56 346.72 1195.51 323.56C1202.95 297.2 1208.23 269.56 1213.34 242.83C1226.53 173.79 1240.17 102.4 1292.42 50.0498C1304.09 38.5998 1315.05 26.9997 1324.98 15.5697C1376.56 -43.7303 1413.96 -112.59 1436.16 -189.1C1440.32 -203.67 1443.9 -218.64 1446.81 -233.57C1452.73 -263.98 1456.02 -295.24 1456.61 -326.48C1462.2 -622.23 1226.14 -867.39 930.389 -872.98C926.949 -873.05 923.469 -873.08 920.039 -873.08L920.069 -873.07Z" fill="white"/>
<path d="M1140.76 434.27C1123.66 434.27 1106.72 427.5 1091.86 414.51C1083.56 406.43 1075.39 398.08 1067.48 390C1034.9 356.7 1004.13 325.24 961.379 307.43C948.259 302.11 934.699 296.94 919.929 291.62C885.269 279.14 849.699 267.98 815.299 257.18C780.809 246.36 745.139 235.16 710.219 222.59C684.479 212.52 656.629 212.58 630.319 213.5C619.609 213.54 607.859 213.67 594.399 213.9C593.289 213.97 592.199 214.01 591.129 214.01C563.279 214.01 547.419 189.58 533.359 167.93L532.469 166.56C524.119 152.64 517.139 138.36 510.389 124.54C497.909 99.0098 486.129 74.8897 466.909 54.4197C459.299 45.9697 450.809 37.8297 441.659 30.2197C417.489 10.1097 387.529 -7.46033 350.059 -23.5003C337.679 -28.8003 324.369 -33.9903 309.389 -39.3803C297.009 -45.1503 282.629 -48.5203 268.729 -51.7703C241.249 -58.2103 212.839 -64.8703 198.669 -90.2303C170.429 -139.51 160.849 -195.34 171.689 -247.42C183.069 -302.1 215.229 -348.34 264.699 -381.14C337.119 -430.16 367.149 -510.21 391.709 -587.99C396.389 -600.55 401.949 -612.06 408.739 -623.19C417.919 -639.54 428.019 -655.66 438.759 -671.1C550.329 -831.41 733.379 -925.49 928.399 -922.8C1007.53 -921.7 1084.08 -905.14 1155.92 -873.57C1225.31 -843.08 1287.41 -799.95 1340.5 -745.37C1393.59 -690.79 1434.98 -627.52 1463.54 -557.31C1493.1 -484.62 1507.54 -407.64 1506.44 -328.51C1504.78 -208.53 1467.18 -93.6903 1397.73 3.59967C1388.22 16.9197 1378.02 29.9997 1367.42 42.4897C1293.28 100.96 1273.15 189.73 1253.69 275.59C1248.16 299.98 1242.44 325.19 1235.57 349.5C1224.65 391.97 1194.88 422.99 1155.95 432.46C1150.91 433.66 1145.83 434.25 1140.77 434.25L1140.76 434.27ZM649.199 212.11C669.789 212.11 690.789 213.9 710.579 221.65C745.459 234.21 781.119 245.4 815.609 256.22C850.019 267.02 885.589 278.18 920.269 290.67C935.059 296 948.629 301.17 961.759 306.5C1004.7 324.39 1035.54 355.92 1068.19 389.3C1076.09 397.38 1084.26 405.73 1092.53 413.78C1111.51 430.39 1133.95 436.69 1155.7 431.51C1194.27 422.13 1223.76 391.38 1234.59 349.26C1241.46 324.97 1247.18 299.76 1252.7 275.39C1262.47 232.28 1272.58 187.71 1289.29 147.64C1308.02 102.73 1333.34 68.1097 1366.72 41.7997C1377.23 29.3997 1387.41 16.3397 1396.9 3.04974C1466.24 -94.0703 1503.77 -208.72 1505.43 -328.49C1509.9 -651.15 1251.04 -917.29 928.379 -921.77C733.649 -924.49 550.959 -830.54 439.579 -670.5C428.859 -655.09 418.769 -639 409.599 -622.66C402.839 -611.57 397.299 -600.12 392.649 -587.64C368.049 -509.71 337.939 -429.49 265.249 -380.28C167.979 -315.78 140.339 -193.99 199.539 -90.6902C213.499 -65.7103 241.689 -59.1003 268.959 -52.7203C282.909 -49.4503 297.339 -46.0703 309.769 -40.2803C324.729 -34.9103 338.059 -29.7003 350.459 -24.4003C388.019 -8.33032 418.059 9.28967 442.309 29.4697C451.499 37.1097 460.019 45.2897 467.659 53.7597C486.979 74.3297 498.789 98.5098 511.299 124.12C518.039 137.92 525.009 152.19 533.329 166.05L534.209 167.4C548.659 189.65 565.009 214.86 594.369 212.91C607.859 212.68 619.609 212.55 630.309 212.51C636.539 212.29 642.849 212.12 649.199 212.12V212.11Z" fill="white"/>
<path d="M1126.8 477.62C1107.44 477.62 1090.12 470.81 1077.33 458.02C1067.79 447.74 1059.1 436.61 1050.71 425.85C1032.92 403.04 1016.11 381.49 991.338 366.5C980.438 358.76 968.708 351.42 956.438 344.67C886.508 306.21 794.728 283.58 675.838 275.48C665.138 276.74 653.968 278.56 642.718 280.89C628.098 283.09 615.128 289.68 602.578 296.05C590.908 301.98 578.838 308.11 565.378 310.8C556.328 313.06 549.358 306.38 545.858 299.37C539.398 286.12 532.828 272.27 526.488 258.89C467.038 133.44 399.658 -8.74005 242.398 -21.5801C224.168 -25.7501 206.068 -29.2902 192.328 -31.9202C163.658 -36.7002 147.748 -47.3501 145.038 -63.5901L144.768 -65.2802C136.368 -117.95 126.838 -177.65 131.718 -233.47C137.378 -298.18 161.518 -345.02 205.528 -376.66C298.888 -443.35 332.878 -536.96 353.808 -619.74C357.878 -637.05 367.358 -651.37 377.388 -666.54C378.388 -668.06 379.398 -669.58 380.398 -671.1C389.758 -686.17 399.888 -701.05 410.498 -715.32C469.008 -793.95 546.018 -858.9 633.188 -903.17C677.648 -925.75 724.758 -943.02 773.208 -954.51C823.088 -966.34 874.588 -972.09 926.358 -971.59C1012.08 -970.77 1095.07 -953.18 1173.04 -919.32C1248.34 -886.61 1315.81 -840.18 1373.57 -781.3C1431.32 -722.43 1476.46 -654.08 1507.71 -578.16C1540.07 -499.56 1556.06 -416.24 1555.24 -330.52C1554.14 -216.25 1522.37 -104.5 1463.36 -7.37012C1453.94 8.12988 1443.66 23.5299 1432.8 38.4099C1425.92 47.9799 1418.53 57.4498 1410.19 67.3599C1330.85 135.28 1302.8 234.69 1275.67 330.82C1272.08 343.55 1268.36 356.72 1264.58 369.61C1256.45 397.26 1239.7 422.1 1216.14 441.44C1193.13 460.33 1165.35 472.67 1135.8 477.13C1132.76 477.45 1129.75 477.61 1126.8 477.61V477.62ZM675.808 274.48C794.938 282.59 886.858 305.26 956.918 343.79C969.228 350.56 980.988 357.92 991.888 365.66C1016.78 380.73 1034.43 403.35 1051.49 425.23C1059.87 435.98 1068.54 447.09 1078.04 457.32C1092.56 471.84 1113.04 478.52 1135.67 476.14C1196.09 467.02 1247.51 424.09 1263.62 369.33C1267.4 356.44 1271.11 343.28 1274.7 330.55C1288.29 282.38 1302.35 232.57 1322.63 187.38C1345.38 136.69 1373.79 97.2 1409.47 66.6599C1417.74 56.8199 1425.12 47.3698 1431.98 37.8198C1442.83 22.9598 1453.09 7.57983 1462.5 -7.89014C1521.42 -104.87 1553.14 -216.44 1554.23 -330.53C1557.58 -680.1 1275.92 -967.23 926.338 -970.58C724.508 -972.51 531.948 -876.87 411.288 -714.71C400.688 -700.46 390.568 -685.61 381.228 -670.55C380.218 -669.01 379.208 -667.49 378.208 -665.97C368.228 -650.88 358.798 -636.63 354.758 -619.49C340.778 -564.2 324.488 -521.24 303.498 -484.28C278.498 -440.27 246.638 -404.79 206.088 -375.83C107.518 -304.95 128.708 -172.14 145.738 -65.4202L146.008 -63.7401C148.638 -47.9801 164.278 -37.6002 192.488 -32.9001C206.248 -30.2701 224.368 -26.7202 242.538 -22.5602C313.028 -16.8102 371.548 15.0199 421.368 74.7499C465.248 127.36 496.828 194.01 527.378 258.46C533.718 271.84 540.278 285.68 546.738 298.93C550.068 305.59 556.658 311.95 565.148 309.83C578.498 307.16 590.508 301.06 602.108 295.16C614.728 288.75 627.768 282.12 642.518 279.9C653.768 277.57 664.978 275.75 675.788 274.48H675.808Z" fill="white"/>
<path d="M1111.63 506.05C1105.83 506.05 1100.07 505.72 1094.37 505.05C1065.86 502.05 1049.13 477.71 1032.95 454.17C1024.9 442.45 1016.57 430.339 1006.9 421.01C996.141 409.64 985.641 400.059 974.781 391.709C950.191 372.819 923.561 360.62 895.631 355.449C889.561 354.359 883.541 353.279 877.561 352.209C828.741 343.449 782.621 335.179 734.881 324.569C715.541 322.419 696.231 324.539 675.891 331.069C648.371 341.74 626.161 358.559 602.641 376.359C599.611 378.66 596.561 380.959 593.481 383.27C581.621 391.89 569.211 394.21 556.591 390.17C533.691 382.83 515.621 356.06 507.861 332.79C473.571 232.85 435.481 158.189 391.411 104.569C330.231 30.1294 256.481 -4.01056 172.211 3.11945H172.161H172.111C155.751 1.07947 143.061 -2.0105 132.161 -6.60052C118.741 -12.2505 108.021 -20.2205 99.3607 -30.9805C91.1407 -41.0505 87.2307 -51.9605 87.4207 -64.3205C93.0407 -96.4405 96.8007 -127.101 100.791 -159.571C102.761 -175.621 104.801 -192.221 107.071 -208.861C108.381 -218.821 109.491 -229.301 110.571 -239.441C117.121 -300.951 123.891 -364.561 176.501 -398.991C257.721 -452.331 300.111 -523.211 299.071 -603.971C299.071 -628.581 311.611 -650.171 323.741 -671.041C326.491 -675.771 329.331 -680.661 331.931 -685.441C342.011 -702.271 352.771 -718.691 363.931 -734.271C426.371 -821.471 509.531 -893.721 604.411 -943.231C652.761 -968.461 704.091 -987.821 756.971 -1000.78C811.431 -1014.13 867.761 -1020.72 924.331 -1020.39C1016.64 -1019.84 1106.08 -1001.23 1190.17 -965.071C1271.39 -930.151 1344.22 -880.411 1406.64 -817.241C1469.06 -754.071 1517.93 -680.651 1551.89 -599.021C1587.04 -514.511 1604.59 -424.851 1604.04 -332.541C1603.69 -274.211 1595.99 -216.32 1581.15 -160.471C1566.75 -106.271 1545.6 -53.8906 1518.29 -4.78058C1510.91 8.47937 1502.71 22.1995 1493.9 35.9695C1491.29 40.0895 1488.7 44.1996 1486.13 48.3096C1482.32 54.3895 1478.37 60.6696 1474.45 66.7795C1466.77 78.7195 1460.3 88.1895 1454.08 96.5695L1454.01 96.6495C1372.47 168.04 1333.72 264.949 1298.08 366.319C1283.85 406.279 1254.54 444.109 1217.66 470.099C1184.34 493.589 1147.28 506.069 1111.64 506.069L1111.63 506.05ZM720.311 322.76C725.231 322.76 730.131 323.029 735.041 323.579C782.821 334.199 828.921 342.469 877.731 351.219C883.711 352.289 889.731 353.37 895.801 354.469C923.891 359.669 950.661 371.94 975.381 390.92C986.291 399.3 996.831 408.91 1007.6 420.31C1017.33 429.69 1025.69 441.849 1033.77 453.599C1049.82 476.949 1066.42 501.1 1094.48 504.05C1175.72 513.55 1266.63 451.599 1297.13 365.949C1332.81 264.469 1371.62 167.45 1453.31 95.8995C1459.51 87.5496 1465.96 78.1095 1473.61 66.2095C1477.53 60.1095 1481.48 53.8295 1485.29 47.7495C1487.87 43.6395 1490.45 39.5195 1493.07 35.3995C1501.87 21.6395 1510.07 7.93945 1517.43 -5.3006C1572.76 -104.821 1602.37 -217.981 1603.05 -332.571C1605.29 -709.051 1300.81 -1017.16 924.331 -1019.4C922.991 -1019.4 921.631 -1019.41 920.291 -1019.41C700.431 -1019.41 493.021 -912.821 364.751 -733.701C353.611 -718.141 342.861 -701.741 332.811 -684.961C330.221 -680.191 327.371 -675.291 324.621 -670.551C312.561 -649.791 300.091 -628.321 300.091 -603.991C301.131 -522.881 258.591 -451.701 177.071 -398.161C124.861 -363.981 118.111 -300.621 111.581 -239.341C110.501 -229.201 109.381 -218.711 108.081 -208.741C105.811 -192.101 103.771 -175.511 101.801 -159.461C97.8107 -126.991 94.0407 -96.3105 88.4307 -64.2405C88.2607 -52.2105 92.0907 -41.5106 100.161 -31.6205C108.711 -21.0005 119.311 -13.1206 132.571 -7.54059C143.371 -2.9906 155.971 0.0794067 172.211 2.09943C217.091 -1.69055 259.311 6.16943 297.691 25.4395C331.611 42.4695 363.411 68.8795 392.211 103.92C436.361 157.64 474.501 232.39 508.831 332.459C516.511 355.5 534.361 381.979 556.921 389.209C569.221 393.149 581.331 390.88 592.911 382.459C595.981 380.159 599.031 377.85 602.061 375.56C625.631 357.71 647.901 340.849 675.581 330.12C690.931 325.189 705.691 322.75 720.341 322.75L720.311 322.76Z" fill="white"/>
<path d="M1102.78 535.96C1084.3 535.96 1067.79 529.78 1052.85 517.34C1043.36 507.44 1034.42 497.16 1025.77 487.22C1021.11 481.86 1016.29 476.32 1011.5 470.98C999.459 457.54 984.789 442.06 967.259 429.06C956.159 420.94 943.949 414.02 930.979 408.5C906.089 397.9 877.679 392.3 848.829 392.3C812.519 391.17 775.189 382.9 742.249 375.6C727.429 374.02 713.229 375.49 698.899 380.09C669.349 388.9 646.689 410.42 624.789 431.24C609.959 445.61 590.379 451.95 569.669 449.1C545.209 445.74 521.969 429.87 509.029 407.69C486.199 368.3 467.599 327.64 449.619 288.32C422.929 229.96 395.329 169.62 353.889 114.14C297.669 40.2803 204.549 31.7103 122.389 24.1503L119.809 23.9103C103.359 22.0803 86.0793 19.8202 71.3893 14.1102C53.5993 7.19019 43.7293 -3.24976 41.2193 -17.8098C38.7793 -33.4298 41.6493 -49.2298 50.5293 -69.0398C62.1493 -94.6398 69.3293 -118.83 72.4793 -142.99C74.2093 -156.99 75.6593 -171.06 77.1993 -185.97C81.7993 -230.51 86.5493 -276.58 98.9293 -318.22C112.959 -365.43 135.049 -399.87 166.449 -423.53C240.599 -480.03 270.479 -547.06 257.799 -628.46C254.399 -655.65 269.779 -679.23 284.659 -702.04C289.429 -709.36 294.369 -716.92 298.579 -724.46C307.999 -739.37 317.849 -753.9 327.879 -767.66C394.709 -859.34 483.139 -935.34 583.639 -987.43C634.879 -1013.99 689.249 -1034.42 745.219 -1048.15C802.849 -1062.28 862.489 -1069.38 922.329 -1069.2C1021.23 -1068.93 1117.11 -1049.29 1207.32 -1010.84C1294.45 -973.7 1372.65 -920.66 1439.74 -853.2C1506.83 -785.73 1559.44 -707.24 1596.09 -619.91C1634.04 -529.49 1653.14 -433.49 1652.87 -334.6C1652.71 -277.27 1645.91 -220.19 1632.65 -164.96C1619.76 -111.27 1600.7 -58.9798 1575.99 -9.53979C1569.57 3.31018 1562.35 16.8102 1553.93 31.7102C1546.41 44.1902 1539.17 57.5203 1532.18 70.4003C1522.9 87.5002 1513.3 105.17 1502.65 121.66C1495.86 132.18 1489.25 141.27 1482.47 149.46C1470.6 162.02 1457.74 173.84 1445.3 185.26C1415.47 212.65 1384.63 240.97 1367.3 280.36C1362.76 290.07 1358.28 300.05 1353.94 309.7C1327.24 369.14 1299.64 430.61 1240.96 468.13C1233.91 472.73 1226.66 477.74 1218.98 483.04C1193.7 500.48 1165.05 520.24 1136.57 529.88C1124.62 533.93 1113.39 535.96 1102.8 535.96H1102.78ZM730.859 373.99C734.679 373.99 738.519 374.2 742.409 374.61C775.359 381.91 812.639 390.17 848.839 391.3C877.809 391.3 906.349 396.93 931.359 407.58C944.399 413.13 956.669 420.09 967.839 428.25C985.439 441.3 1000.16 456.83 1012.23 470.31C1017.03 475.66 1021.85 481.21 1026.51 486.56C1035.15 496.49 1044.09 506.77 1053.52 516.61C1076.69 535.88 1103.75 539.92 1136.21 528.93C1164.56 519.33 1193.15 499.61 1218.37 482.21C1226.06 476.91 1233.32 471.9 1240.38 467.29C1298.81 429.93 1326.35 368.6 1352.99 309.29C1357.32 299.64 1361.81 289.65 1366.35 279.95C1383.76 240.38 1414.68 211.98 1444.59 184.53C1457.02 173.12 1469.87 161.32 1481.68 148.81C1488.42 140.68 1495 131.62 1501.77 121.13C1512.4 104.67 1521.99 87.0103 1531.26 69.9303C1538.26 57.0403 1545.5 43.7002 1553.03 31.2102C1561.43 16.3302 1568.64 2.86023 1575.06 -9.97974C1625.69 -111.29 1651.53 -220.5 1651.84 -334.59C1652.38 -530 1576.79 -713.93 1439 -852.49C1301.22 -991.05 1117.72 -1067.65 922.309 -1068.19C921.649 -1068.19 920.959 -1068.19 920.299 -1068.19C687.209 -1068.19 466.189 -955.73 328.669 -767.06C318.659 -753.32 308.819 -738.81 299.419 -723.94C295.209 -716.39 290.259 -708.81 285.479 -701.48C270.699 -678.83 255.429 -655.4 258.779 -628.59C271.529 -546.81 241.519 -479.46 167.049 -422.72C97.2093 -370.1 87.5493 -276.44 78.1893 -185.85C76.6493 -170.94 75.1993 -156.86 73.4693 -142.85C70.3093 -118.59 63.0993 -94.3098 51.4393 -68.6198C42.6493 -48.9998 39.7993 -33.3698 42.2093 -17.9597C44.6493 -3.78967 54.3193 6.41016 71.7593 13.1902C86.3293 18.8602 103.539 21.1104 119.919 22.9303L122.489 23.1703C164.769 27.0603 208.479 31.0803 248.929 43.4203C294.829 57.4203 329.429 80.3604 354.689 113.55C396.199 169.12 423.819 229.51 450.529 287.92C468.499 327.22 487.089 367.86 509.889 407.2C522.679 429.12 545.639 444.8 569.799 448.13C590.209 450.94 609.489 444.69 624.089 430.54C646.089 409.64 668.829 388.03 698.599 379.16C709.309 375.72 719.949 374.01 730.859 374.01V373.99Z" fill="white"/>
<path d="M1093.32 558.39C1083.71 558.39 1073.9 556.87 1063.85 553.43C1052.47 548.07 1041.3 540.52 1028.65 529.64C1018.35 520.78 1008.35 510.81 998.679 501.16C987.749 490.25 976.439 478.98 964.609 469.22C948.459 457.11 929.199 449.57 905.749 446.17C894.709 444.6 883.279 443.91 872.219 443.24C866.949 442.92 861.499 442.59 856.189 442.18C835.259 440.48 814.179 437.91 793.529 434.54C771.239 429.33 753.059 427.25 736.309 428C715.229 428.94 696.989 434.4 680.559 444.67C671.439 450.06 663.449 457.71 655.729 465.1C642.229 478.03 629.479 490.24 611.089 491.65C609.339 491.73 607.589 491.76 605.829 491.76C557.419 491.76 508.729 462.97 483.349 418.83C467.969 392.63 453.369 364.95 437.909 335.65C365.529 198.45 283.499 42.9399 108.629 54.09C95.3893 53.1 80.0093 51.75 65.7593 49.28C50.9093 46.7101 39.1093 43.26 29.6993 38.73C6.73932 27.6699 -2.31068 9.82996 2.04932 -15.8101C3.40932 -21.6901 4.75932 -28.01 6.05932 -34.13C6.98932 -38.52 7.91932 -42.87 8.83932 -47.04C11.4993 -55.9 14.6993 -64.48 17.8093 -72.77C22.7193 -85.9 27.3593 -98.3 30.0493 -111.77C46.8793 -203.79 70.8193 -288.54 103.229 -370.85C111.439 -390.06 119.179 -406.21 126.909 -420.24L126.929 -420.27C142.029 -443.78 164.459 -459.46 188.219 -476.05C191.369 -478.25 194.539 -480.47 197.709 -482.71C243.219 -517.79 231.299 -567.92 219.769 -616.4C217.859 -624.44 215.879 -632.75 214.249 -640.73C207.219 -673.23 225.009 -700.37 242.219 -726.62C246.939 -733.82 251.829 -741.27 256.049 -748.65C266.039 -764.5 276.489 -779.96 287.119 -794.64C358.129 -892.63 452.229 -973.95 559.259 -1029.81C613.839 -1058.29 671.759 -1080.24 731.419 -1095.05C792.849 -1110.27 856.389 -1118 920.279 -1118C1025.77 -1118 1128.1 -1097.34 1224.43 -1056.59C1317.48 -1017.23 1401.04 -960.89 1472.8 -889.13C1544.56 -817.37 1600.9 -733.8 1640.26 -640.76C1681.01 -544.43 1701.67 -442.1 1701.67 -336.61C1701.67 -275.46 1694.58 -214.56 1680.6 -155.61C1667.01 -98.31 1646.83 -42.4801 1620.62 10.33C1613.95 23.7799 1606.35 38.24 1597.38 54.54C1588.54 70.1001 1580.55 87.63 1572.83 104.58C1558.79 135.39 1544.27 167.24 1523.16 191.6C1514.38 201.73 1505.17 209.83 1494.99 216.35C1454.35 236.41 1415.91 257.75 1391.8 298.3C1382.12 313.94 1373.11 330.15 1364.4 345.82C1333.16 402.01 1303.66 455.09 1245.35 483.8C1230.02 491.62 1215.01 501.73 1199.11 512.44C1165.47 535.11 1130.91 558.39 1093.31 558.4L1093.32 558.39ZM743.009 426.86C757.999 426.86 774.319 429.03 793.719 433.57C814.309 436.93 835.359 439.49 856.259 441.19C861.559 441.61 867.009 441.94 872.269 442.25C883.349 442.92 894.799 443.6 905.879 445.18C929.499 448.6 948.909 456.2 965.219 468.43C977.099 478.23 988.419 489.52 999.379 500.45C1009.04 510.08 1019.03 520.05 1029.3 528.88C1041.88 539.7 1052.97 547.2 1064.22 552.5C1113.04 569.23 1156.51 539.93 1198.55 511.61C1214.47 500.88 1229.51 490.75 1244.9 482.9C1302.93 454.32 1332.36 401.37 1363.52 345.32C1372.24 329.63 1381.26 313.41 1390.94 297.76C1415.18 256.98 1453.76 235.56 1494.49 215.46C1504.53 209.02 1513.68 200.98 1522.39 190.93C1543.4 166.68 1557.89 134.89 1571.9 104.15C1579.63 87.1801 1587.63 69.64 1596.49 54.04C1605.44 37.76 1613.04 23.3101 1619.7 9.88C1673.41 -98.34 1700.65 -214.91 1700.65 -336.61C1700.66 -766.92 1350.58 -1117 920.279 -1117C670.869 -1117 434.479 -996.26 287.939 -794.03C277.319 -779.37 266.879 -763.93 256.919 -748.12C252.689 -740.74 247.799 -733.27 243.069 -726.06C225.979 -699.99 208.309 -673.02 215.249 -640.93C216.879 -632.96 218.849 -624.66 220.759 -616.63C232.359 -567.84 244.359 -517.39 198.319 -481.91C195.129 -479.65 191.959 -477.44 188.799 -475.23C165.129 -458.7 142.779 -443.09 127.789 -419.75C120.079 -405.75 112.359 -389.63 104.169 -370.48C71.7893 -288.24 47.8693 -203.55 31.0493 -111.59C28.3393 -98.03 23.6893 -85.5901 18.7593 -72.42C15.6593 -64.14 12.4593 -55.5801 9.81932 -46.78C8.89932 -42.65 7.97932 -38.3 7.04932 -33.92C5.74932 -27.8 4.39932 -21.47 3.04932 -15.61C-1.22068 9.5 7.64932 27 30.1593 37.84C39.4793 42.33 51.1893 45.76 65.9493 48.3101C80.1593 50.77 95.5193 52.12 108.659 53.11C187.059 48.11 253.529 75.67 311.799 137.37C363.129 191.73 401.609 264.67 438.819 335.2C454.269 364.49 468.869 392.16 484.239 418.34C510.359 463.76 561.309 492.8 611.049 490.66C629.069 489.27 641.689 477.18 655.059 464.38C662.819 456.95 670.849 449.26 680.059 443.81C696.639 433.45 715.029 427.95 736.289 427C738.509 426.9 740.759 426.85 743.029 426.85L743.009 426.86Z" fill="white"/>
</g>
</svg>
