<svg width="438" height="740" viewBox="0 0 438 740" fill="none" xmlns="http://www.w3.org/2000/svg">
<path d="M-235.12 720.353C-209.22 716.861 -182.901 714.557 -156.652 715.744C-132.147 716.302 -107.713 720.772 -83.1393 719.375C-50.6767 715.534 -25.1953 691.303 -9.06867 664.208C27.5129 606.598 13.4108 540.119 23.743 476.433C27.1638 460.581 32.3997 428.808 54.5302 432.788C65.002 438.375 62.2095 466.167 61.302 477.061C59.2076 498.709 53.9717 520.147 47.6188 541.026C37.0073 573.637 21.4393 605.83 19.2053 640.605C17.809 681.247 41.3357 715.814 82.3154 723.355C110.24 729.081 139.073 723.216 167.416 725.241C212.096 726.428 256.008 738.718 300.688 739.766C335.943 739.347 376.364 736.134 403.032 710.576C415.948 695.632 416.087 674.962 417.623 656.317C419.438 632.435 422.091 608.623 424.604 584.81C431.167 533.834 423.208 442.146 374.689 413.235C345.437 397.174 333.779 403.459 304.248 411.699C287.703 415.4 269.482 418.543 252.587 413.934C246.025 412.328 238.695 409.953 235.344 403.599C234.576 401.574 234.087 399.269 234.995 396.825C242.744 381.742 264.595 386.071 278.557 387.538C294.684 389.772 310.741 393.753 327.147 393.543C382.019 392.775 407.64 352.762 413.295 302.274C418.321 258.979 420.625 215.334 429.003 172.458C430.887 158.003 434.238 139.567 436.263 120.434C438.078 103.325 438.776 85.7277 436.263 69.8062C433.401 51.4406 426.21 35.3795 411.48 25.3936C356.887 -7.00797 281.14 -3.30691 230.666 35.589C214.26 48.5078 202.881 66.2448 193.526 84.6104C183.124 105.769 172.652 126.928 164.554 149.134C155.618 170.712 149.684 193.268 146.892 216.382C142.703 238.448 141.726 284.467 111.916 285.724C94.2533 280.556 113.801 234.468 118.059 222.806C125.808 203.952 134.884 185.796 143.96 167.57C156.945 141.802 172.164 116.174 175.934 87.1243C181.03 52.558 150.382 28.2568 117.71 31.5388C92.2985 32.1673 66.6775 28.8154 41.7545 23.0893C13.2014 15.6872 -15.7008 10.2403 -45.1616 8.28502C-67.3618 6.25994 -90.1904 6.60912 -111.134 14.9191C-154.767 30.212 -185.205 80.6301 -171.382 126.02C-162.795 162.193 -133.753 183.91 -103.525 201.997C-83.279 214.077 -60.7297 226.298 -53.8881 250.739C-46.1389 286.492 -69.6656 308.559 -104.432 294.243C-127.819 285.165 -144.085 264.914 -157.629 244.663C-181.714 205.907 -194.978 161.634 -205.101 117.431C-212.152 89.7779 -214.945 60.0299 -229.535 34.8907C-259.974 -15.1782 -335.301 -12.8738 -343.678 51.6501C-347.309 81.1189 -343.469 110.448 -348.076 140.056C-352.056 180.908 -362.318 223.435 -350.869 263.867C-345.005 286.771 -328.878 304.299 -311.914 319.801C-294.251 339.284 -322.525 356.672 -333.835 370.429C-346.122 383.627 -356.454 399.479 -359.177 417.635C-366.716 471.754 -351.218 534.392 -306.259 568.749C-286.851 584.671 -261.44 580.83 -242.381 566.445C-225.696 555.551 -209.569 543.75 -192.884 532.856C-173.337 519.937 -151.834 510.231 -130.193 501.362C-111.832 494.728 -84.4658 480.134 -65.5467 489.421C-58.4259 495.217 -59.6127 504.435 -64.3599 511.488C-79.9978 533.694 -110.925 542.493 -135.568 550.873C-174.873 562.604 -214.316 574.056 -253.132 587.464C-299.208 602.478 -362.946 634.111 -344.586 692.699C-325.108 735.576 -272.889 725.52 -235.12 720.353Z" fill="#FDF1EB"/>
</svg>
