<svg width="45" height="42" viewBox="0 0 45 42" fill="none" xmlns="http://www.w3.org/2000/svg">
<path d="M42.4748 38.2971C33.4035 37.2993 23.8579 35.6219 15.4654 31.9923C11.6121 30.3293 3.11013 25.4849 7.73696 20.0911C11.3129 15.9192 19.3479 21.4649 22.7706 23.793C24.1353 24.7257 29.2948 24.5812 28.4702 21.9783C27.1785 17.9149 26.0838 13.62 25.8284 9.35413C25.7554 8.16113 25.77 7.02597 25.8502 5.83297C26.0546 2.96977 26.726 4.52434 26.1786 4.26405C28.222 5.25461 29.7327 9.32522 30.5574 11.1762C34.5931 20.2285 36.6584 30.3654 38.169 40.1119C38.5777 42.7437 45.3574 42.5124 44.9852 40.1119C44.0949 34.3783 42.8761 28.6808 41.402 23.0629C39.6213 16.2664 37.4684 5.87641 31.0974 1.63945C26.85 -1.18037 20.6104 -0.515247 19.2019 4.82795C17.7423 10.3736 20.209 17.6474 21.9021 22.9761C23.7996 22.3687 25.697 21.7614 27.6017 21.1613C22.2743 17.5389 15.1443 14.0105 8.50323 14.8348C1.84029 15.659 -2.51649 22.5205 1.6068 28.3482C8.86816 38.6297 29.1562 40.6397 40.6868 41.9122C43.9854 42.2737 47.0505 38.8104 42.4966 38.3116L42.4748 38.2971Z" fill="#F2581D"/>
</svg>
