<svg width="208" height="54" viewBox="0 0 208 54" fill="none" xmlns="http://www.w3.org/2000/svg">
<path d="M82.8866 43H71.08V11.7334H82.8866C92.5466 11.7334 97.7733 17.7067 97.7733 27.3667C97.7733 37.0267 92.5933 43 82.8866 43ZM82.2333 16.4H76.3533V38.3333H82.28C88.72 38.3333 92.2666 35.2067 92.2666 27.3667C92.2666 19.5267 88.72 16.4 82.2333 16.4ZM112.312 43.4667C105.779 43.4667 101.299 38.7067 101.299 31.66C101.299 24.5667 105.779 19.8067 112.312 19.8067C118.939 19.8067 123.419 24.5667 123.419 31.66C123.419 38.7067 118.939 43.4667 112.312 43.4667ZM112.359 39.1267C115.765 39.1267 118.099 36.8867 118.099 31.66C118.099 26.3867 115.765 24.1467 112.359 24.1467C108.999 24.1467 106.665 26.3867 106.665 31.66C106.665 36.8867 108.999 39.1267 112.359 39.1267ZM133.128 43H127.902V20.2734H133.128V26.48C133.968 22.8867 136.302 19.8067 140.828 19.8067C145.262 19.8067 147.968 22.4667 147.968 27.18V43H142.695V28.7667C142.695 25.9667 141.762 24.0534 138.262 24.0534C134.435 24.0534 133.128 26.5267 133.128 30.26V43ZM158.558 17.0534H153.331V11.7334H158.558V17.0534ZM158.558 43H153.331V20.2734H158.558V43ZM172.3 43.5133C168.007 43.5133 165.533 40.8067 165.533 36.7933V24.3334H161.987V20.2734H165.533V17.52L170.76 14.2067V20.2734H177.713V24.3334H170.76V35.5333C170.76 38.0067 171.927 38.6133 173.467 38.6133C175.24 38.6133 176.547 37.1667 177.2 35.86L178.833 40.5267C177.853 41.9733 175.613 43.5133 172.3 43.5133ZM185.473 50.7933C182.206 50.7933 179.546 49.1133 178.286 47.34L180.76 43.14C181.973 44.8667 183.373 46.1733 185.473 46.1733C187.246 46.1733 188.366 45.38 189.206 42.86L189.626 41.6H186.406L178.893 20.2734H184.633L188.74 33.1533L190.373 39.22L192.006 33.1533L196.066 20.2734H201.853L193.453 44.5867C191.82 49.16 189.16 50.7933 185.473 50.7933Z" fill="#410E09"/>
<g clip-path="url(#clip0_204_716)">
<path d="M26.0346 53.0006L25.5205 52.6906C25.2964 52.5557 20.0089 49.3259 18.9099 44.5687C18.4265 42.4756 18.8249 40.4193 20.0956 38.4593C23.3479 33.4403 32.2617 30.6203 33.3073 30.3033C33.7889 30.0327 34.2723 29.7542 34.7399 29.4845C36.7987 28.2969 38.7427 27.1751 40.5292 26.7626C41.7394 26.4832 43.2815 27.2512 43.8971 28.4388C44.4663 29.537 44.1625 30.7675 43.0853 31.7291C42.8612 31.9296 42.4829 32.2703 42.0205 32.6871L44.3534 31.983C44.9663 30.425 45.4541 28.7033 45.8018 26.8642C46.3666 23.876 47.836 22.2305 49.9395 22.2305C50.527 22.2305 51.0253 22.4643 51.3809 22.9066C52.4912 24.2894 51.9168 27.4133 51.1138 31.0521C51.035 31.4094 50.9605 31.7474 50.8992 32.0417C50.1391 35.6884 48.6828 40.1662 46.0592 40.7889C45.5767 40.9036 43.9619 41.4659 38.5755 43.9434C34.4798 45.8272 30.8588 48.4124 26.4689 52.5855L26.0337 52.9988L26.0346 53.0006ZM41.0581 28.2803C40.9959 28.2803 40.9372 28.2864 40.883 28.2987C39.326 28.6577 37.4809 29.7227 35.5272 30.8498C35.0306 31.1362 34.5166 31.433 34.0008 31.7212L33.9229 31.765L33.8379 31.7904C33.7451 31.8175 24.4828 34.5867 21.4179 39.3167C20.3898 40.9036 20.0623 42.5501 20.4441 44.2088C21.2086 47.5314 24.5634 50.129 25.8393 51.0135C30.16 46.9648 33.7985 44.4067 37.917 42.5124C42.179 40.5515 44.7229 39.4866 45.6958 39.2563C47.0523 38.934 48.4551 36.0475 49.3562 31.7212C49.4193 31.4173 49.4955 31.0757 49.5752 30.7132C49.8493 29.4722 50.1899 27.9273 50.3423 26.5629C50.5568 24.6353 50.281 24.0556 50.1522 23.8953C50.1128 23.8463 50.0717 23.8077 49.9395 23.8077C48.3238 23.8077 47.6399 25.6293 47.3509 27.1575C46.9831 29.1017 46.4655 30.9269 45.8123 32.5821L45.5399 33.2722L39.2936 35.1559C38.0868 36.2498 37.0719 37.1711 37.0491 37.1912L35.9895 36.0238C36.0386 35.9792 40.9232 31.5451 42.0354 30.552C42.8436 29.8304 42.5827 29.3277 42.4969 29.1622C42.2245 28.6358 41.5371 28.2785 41.0581 28.2785V28.2803Z" fill="#F2581D"/>
<path d="M20.7583 38.887C24.0221 33.8504 33.618 31.0331 33.618 31.0331C36.1838 29.5977 38.62 28.0117 40.7077 27.53C42.2025 27.185 44.7035 29.2281 42.5615 31.1408C41.4397 32.1427 38.8967 34.453 38.8967 34.453L44.9478 32.6279L45.08 32.2925C45.7534 30.5865 46.2368 28.813 46.5775 27.0107C46.9076 25.2644 47.7571 23.0189 49.9402 23.0189C50.5934 23.0189 50.9472 23.4726 51.1049 24.1855C52.0191 21.0222 51.8378 18.9913 51.8378 18.9913H51.8361C51.844 18.8135 51.8501 18.6357 51.8501 18.4553C51.851 11.2477 45.7718 5 38.2732 5C32.7913 5 28.0713 8.53022 25.9276 13.0264H25.925C23.7812 8.53022 19.0612 5 13.5793 5C6.08069 5 0.00245089 11.2477 0.00245089 18.4553C0.00245089 18.6348 0.0094565 18.8126 0.0164621 18.9913H0.0147107C0.0147107 18.9913 -0.751528 27.5537 8.7761 36.9016C12.3411 40.4739 16.2546 43.9008 21.972 48.6142C19.9036 46.2049 18.2696 42.729 20.7583 38.887Z" fill="#F2581D"/>
</g>
<defs>
<clipPath id="clip0_204_716">
<rect width="52" height="48" fill="white" transform="translate(0 5)"/>
</clipPath>
</defs>
</svg>
