<svg width="394" height="482" viewBox="0 0 394 482" fill="none" xmlns="http://www.w3.org/2000/svg">
<g opacity="0.5">
<path d="M151.827 380.696C231.812 380.696 296.653 317.086 296.653 238.62C296.653 160.154 231.812 96.5439 151.827 96.5439C71.841 96.5439 7 160.154 7 238.62C7 317.086 71.841 380.696 151.827 380.696Z" stroke="#FBC7B4" stroke-width="14" stroke-miterlimit="10"/>
<path d="M151.586 319.939C196.185 319.939 232.34 284.475 232.34 240.727C232.34 196.978 196.185 161.514 151.586 161.514C106.987 161.514 70.832 196.978 70.832 240.727C70.832 284.475 106.987 319.939 151.586 319.939Z" stroke="#FBC7B4" stroke-width="14" stroke-miterlimit="10"/>
<path d="M218.281 7C345.051 53.3938 411.806 187.804 378.483 303.659C341.062 433.767 185.248 513.329 43.4727 456.235" stroke="#FBC7B4" stroke-width="14" stroke-miterlimit="10"/>
</g>
</svg>
