<svg width="116" height="31" viewBox="0 0 116 31" fill="none" xmlns="http://www.w3.org/2000/svg">
<path d="M12.6864 0H0V30.3398L12.6864 0Z" fill="#FA0C00"/>
<path d="M21.6123 0H34.2821V30.3398L21.6123 0Z" fill="#FA0C00"/>
<path d="M17.1493 11.1822L25.224 30.3398H19.9263L17.513 24.2405H11.6037L17.1493 11.1822Z" fill="#FA0C00"/>
<path d="M54.979 19.2942L56.4749 23.5836C56.5245 23.691 56.5989 23.7406 56.7311 23.7406H59.6072C59.7643 23.7406 59.7891 23.6662 59.7643 23.5092L53.8219 7.00452C53.7971 6.87228 53.7723 6.84749 53.6401 6.84749H50.0697C49.9705 6.84749 49.9127 6.92187 49.9127 7.02931C49.8631 7.89711 49.7887 8.16158 49.6813 8.41779L44.3836 23.4844C44.3588 23.6662 44.4166 23.7406 44.5654 23.7406H47.1357C47.2928 23.7406 47.3671 23.691 47.425 23.534L48.8383 19.2942H54.979ZM49.6565 16.4924C50.4334 14.1452 51.4582 11.1369 51.8714 9.41782H51.8962C52.4086 11.2195 53.6153 14.7899 54.1608 16.4924H49.6565Z" fill="#FA0C00"/>
<path d="M67.4036 23.9968C68.9491 23.9968 70.5937 23.7158 72.2632 22.9968C72.3955 22.9472 72.4203 22.8893 72.4203 22.7654C72.3707 22.3025 72.3128 21.6331 72.3128 21.1207V5.58299C72.3128 5.48381 72.3128 5.43422 72.1889 5.43422H69.3871C69.2797 5.43422 69.2301 5.48381 69.2301 5.61604V10.8807C68.792 10.8311 68.4862 10.8063 68.1226 10.8063C63.6018 10.8063 60.8248 13.7899 60.8248 17.5173C60.8248 21.8397 63.6762 23.9968 67.4036 23.9968ZM69.2301 21.1207C68.7672 21.2695 68.2548 21.3273 67.7341 21.3273C65.6845 21.3273 64.0068 20.1702 64.0068 17.3602C64.0068 14.8725 65.7341 13.4014 68.0234 13.4014C68.4862 13.4014 68.8912 13.451 69.2301 13.5832V21.1207Z" fill="#FA0C00"/>
<path d="M81.3584 10.8063C77.4987 10.8063 75.1102 13.7651 75.1102 17.4181C75.1102 20.6827 77.0111 23.9968 81.3005 23.9968C84.9287 23.9968 87.4743 21.3273 87.4743 17.3354C87.4743 13.8147 85.3172 10.8063 81.3584 10.8063ZM81.2013 13.4014C83.3832 13.4014 84.3089 15.2775 84.3089 17.4181C84.3089 20.0628 82.9452 21.3769 81.3584 21.3769C79.3996 21.3769 78.2426 19.7322 78.2426 17.3602C78.2426 14.9221 79.474 13.4014 81.2013 13.4014Z" fill="#FA0C00"/>
<path d="M90.3709 5.43422C90.2634 5.43422 90.1891 5.48381 90.1891 5.61604V23.2034C90.1891 23.2778 90.2634 23.41 90.3709 23.4348C91.6023 23.815 92.8916 23.9968 94.2222 23.9968C98.0323 23.9968 101.735 21.6331 101.735 16.8726C101.735 13.4262 99.3712 10.8063 95.6686 10.8063C94.8173 10.8063 94.0239 10.9385 93.3297 11.1699L93.2966 5.64084C93.2966 5.45901 93.247 5.43422 93.0652 5.43422H90.3709ZM98.5695 17.1867C98.5695 20.038 96.619 21.3769 94.5115 21.3769C94.0735 21.3769 93.685 21.3521 93.3297 21.2447V13.7403C93.7346 13.5832 94.2222 13.451 95.1231 13.451C97.1562 13.451 98.5695 14.7403 98.5695 17.1867Z" fill="#FA0C00"/>
<path d="M112.191 18.1123C113.447 18.1123 114.48 18.0875 114.836 18.0049C114.968 17.9801 115.018 17.9305 115.042 17.8231C115.117 17.5421 115.15 16.9553 115.15 16.2362C115.15 13.7899 113.679 10.8063 109.877 10.8063C105.992 10.8063 103.835 13.9717 103.835 17.5421C103.835 20.7075 105.505 23.9968 110.183 23.9968C111.935 23.9968 113.067 23.7158 114.042 23.253C114.141 23.2034 114.191 23.1208 114.191 22.972V20.8314C114.191 20.7075 114.117 20.6827 114.042 20.7323C113.067 21.1455 112.009 21.3521 110.852 21.3521C108.232 21.3521 107.042 19.9058 106.968 18.1123H112.191ZM106.968 15.8974C107.174 14.6411 107.968 13.2775 109.745 13.2775C111.703 13.2775 112.216 14.9221 112.216 15.666C112.216 15.6908 112.216 15.7982 112.216 15.8726C112.108 15.8974 111.778 15.8974 110.803 15.8974H106.968Z" fill="#FA0C00"/>
</svg>
