<svg width="320" height="96" viewBox="0 0 940 250" fill="none" xmlns="http://www.w3.org/2000/svg">
<g clip-path="url(#clip0_18_3)">
<mask id="mask0_18_3" style="mask-type:luminance" maskUnits="userSpaceOnUse" x="-78" y="-56" width="1081" height="363">
<path d="M1002.48 -55.768H-77.63V306.08H1002.48V-55.768Z" fill="white"/>
</mask>
<g mask="url(#mask0_18_3)">
<path d="M105.724 69.707C88.7172 69.707 78.8564 77.4241 74.1404 82.5689C73.5687 77.9958 70.5676 72.1364 58.849 72.1364H33.2681V98.7177H43.7006C45.4155 98.7177 45.9871 99.2893 45.9871 101.004V222.621H76.284V177.175V173.745C81.0001 178.033 90.0034 184.035 104.151 184.035C133.734 184.035 154.456 160.598 154.456 126.871C154.599 92.7155 134.877 69.707 105.724 69.707ZM99.5784 157.597C83.2866 157.597 75.8553 142.019 75.8553 127.443C75.8553 104.577 88.2885 96.4311 100.007 96.4311C114.298 96.4311 124.016 108.721 124.016 127.157C123.873 148.307 111.583 157.597 99.5784 157.597Z" fill="#017737"/>
</g>
<mask id="mask1_18_3" style="mask-type:luminance" maskUnits="userSpaceOnUse" x="-78" y="-56" width="1081" height="363">
<path d="M1002.48 -55.768H-77.63V306.08H1002.48V-55.768Z" fill="white"/>
</mask>
<g mask="url(#mask1_18_3)">
<path d="M195.328 152.881V88.4282C195.328 77.567 190.04 72.2794 179.322 72.2794H152.169V98.8606H162.602C164.317 98.8606 164.888 99.4323 164.888 101.147V165.314C164.888 176.318 170.033 181.463 180.894 181.463H208.047V155.024H197.615C196.043 155.167 195.328 154.453 195.328 152.881Z" fill="#017737"/>
</g>
<mask id="mask2_18_3" style="mask-type:luminance" maskUnits="userSpaceOnUse" x="-78" y="-56" width="1081" height="363">
<path d="M1002.48 -55.768H-77.63V306.08H1002.48V-55.768Z" fill="white"/>
</mask>
<g mask="url(#mask2_18_3)">
<path d="M274.5 69.707C257.494 69.707 247.633 77.4241 242.774 82.5689C242.203 77.9958 239.202 72.1364 227.483 72.1364H202.045V98.7177H212.477C214.192 98.7177 214.764 99.2893 214.764 101.004V222.621H245.347V177.175V173.745C250.063 178.033 259.209 184.035 273.214 184.035C302.796 184.035 323.518 160.598 323.518 126.871C323.518 92.7155 303.797 69.707 274.5 69.707ZM268.355 157.597C252.063 157.597 244.632 142.019 244.632 127.443C244.632 104.577 257.065 96.4311 268.784 96.4311C283.075 96.4311 292.793 108.721 292.793 127.157C292.793 148.307 280.503 157.597 268.355 157.597Z" fill="#017737"/>
</g>
<mask id="mask3_18_3" style="mask-type:luminance" maskUnits="userSpaceOnUse" x="-78" y="-56" width="1081" height="363">
<path d="M1002.48 -55.768H-77.63V306.08H1002.48V-55.768Z" fill="white"/>
</mask>
<g mask="url(#mask3_18_3)">
<path d="M380.539 69.707C347.813 69.707 325.09 93.2871 325.09 126.871C325.09 160.026 349.671 184.035 383.683 184.035C410.408 184.035 426.699 168.172 427.414 167.6L428.7 166.457L415.552 144.592L413.552 146.45C413.409 146.593 401.404 157.597 385.541 157.597C370.393 157.597 359.246 148.307 356.531 133.731H428.414L428.557 131.73C428.557 131.444 429.272 125.013 429.272 121.869C429.272 90.7147 409.693 69.707 380.539 69.707ZM357.674 111.151C360.961 100.433 369.25 94.2875 380.539 94.2875C389.686 94.2875 396.688 101.29 397.974 111.151H357.674Z" fill="#017737"/>
</g>
<mask id="mask4_18_3" style="mask-type:luminance" maskUnits="userSpaceOnUse" x="-78" y="-56" width="1081" height="363">
<path d="M1002.48 -55.768H-77.63V306.08H1002.48V-55.768Z" fill="white"/>
</mask>
<g mask="url(#mask4_18_3)">
<path d="M539.598 152.881V47.2701C539.598 36.4089 534.311 31.1213 523.45 31.1213H496.297V57.7025H506.729C508.444 57.7025 509.016 58.2742 509.016 59.9891V79.139C504.585 75.1376 495.868 69.8499 480.719 69.8499C451.28 69.8499 430.701 93.43 430.701 127.014C430.701 161.169 450.422 184.178 479.576 184.178C496.297 184.178 506.014 176.461 510.731 171.03C511.302 175.746 514.446 181.748 525.736 181.748H552.032V155.31H541.885C540.17 155.167 539.598 154.453 539.598 152.881ZM485.435 157.597C471.002 157.597 461.712 145.592 461.712 126.871C461.712 108.721 471.43 96.5741 485.864 96.5741C502.299 96.5741 509.587 111.723 509.587 126.728C509.587 149.594 497.154 157.597 485.435 157.597Z" fill="#017737"/>
</g>
<mask id="mask5_18_3" style="mask-type:luminance" maskUnits="userSpaceOnUse" x="-78" y="-56" width="1081" height="363">
<path d="M1002.48 -55.768H-77.63V306.08H1002.48V-55.768Z" fill="white"/>
</mask>
<g mask="url(#mask5_18_3)">
<path d="M619.628 70.7073C607.052 70.7073 595.333 77.9957 588.474 89.5715V87.142C588.474 77.2812 583.043 72.1364 572.325 72.1364H546.315V98.7177H556.747C558.462 98.7177 559.034 99.2893 559.034 101.004V181.463H589.331V137.732C589.331 132.016 590.046 126.442 591.475 121.297C596.048 106.149 608.195 100.861 617.913 100.861C621.343 100.861 623.915 101.29 623.915 101.29L626.488 101.719V71.5648L624.63 71.279C624.63 71.1361 622.057 70.7073 619.628 70.7073Z" fill="#017737"/>
</g>
<mask id="mask6_18_3" style="mask-type:luminance" maskUnits="userSpaceOnUse" x="-78" y="-56" width="1081" height="363">
<path d="M1002.48 -55.768H-77.63V306.08H1002.48V-55.768Z" fill="white"/>
</mask>
<g mask="url(#mask6_18_3)">
<path d="M669.646 152.881V88.4282C669.646 77.567 664.359 72.2794 653.64 72.2794H629.06V98.8606H636.92C638.635 98.8606 639.207 99.4323 639.207 101.147V165.314C639.207 176.318 644.351 181.463 655.212 181.463H682.365V155.024H671.933C670.361 155.167 669.646 154.453 669.646 152.881Z" fill="#017737"/>
</g>
<mask id="mask7_18_3" style="mask-type:luminance" maskUnits="userSpaceOnUse" x="-78" y="-56" width="1081" height="363">
<path d="M1002.48 -55.768H-77.63V306.08H1002.48V-55.768Z" fill="white"/>
</mask>
<g mask="url(#mask7_18_3)">
<path d="M784.117 72.2794H767.968C758.536 72.2794 753.392 75.5663 750.39 83.5693L730.669 138.733C729.954 140.733 729.383 143.02 728.811 145.306C728.239 143.163 727.525 140.733 726.81 138.733L707.089 83.5693C704.088 75.4234 699.229 72.2794 689.511 72.2794H672.362V98.8606H676.792C679.221 98.8606 679.936 99.7181 680.507 101.147L711.09 181.606H745.246L775.828 101.147C776.4 99.7181 777.115 98.8606 779.544 98.8606H784.26V72.2794H784.117Z" fill="#017737"/>
</g>
<mask id="mask8_18_3" style="mask-type:luminance" maskUnits="userSpaceOnUse" x="-78" y="-56" width="1081" height="363">
<path d="M1002.48 -55.768H-77.63V306.08H1002.48V-55.768Z" fill="white"/>
</mask>
<g mask="url(#mask8_18_3)">
<path d="M836.422 69.707C803.696 69.707 780.973 93.2871 780.973 126.871C780.973 160.026 805.554 184.035 839.566 184.035C866.291 184.035 882.582 168.172 883.297 167.6L884.583 166.457L871.435 144.592L869.435 146.45C869.292 146.593 857.287 157.597 841.567 157.597C826.419 157.597 815.272 148.307 812.556 133.731H884.44L884.583 131.73C884.583 131.444 885.155 125.013 885.155 121.869C885.155 90.7147 865.576 69.707 836.422 69.707ZM813.557 111.151C816.844 100.433 825.132 94.2875 836.422 94.2875C845.569 94.2875 852.571 101.29 853.857 111.151H813.557Z" fill="#017737"/>
</g>
<mask id="mask9_18_3" style="mask-type:luminance" maskUnits="userSpaceOnUse" x="-78" y="-56" width="1081" height="363">
<path d="M1002.48 -55.768H-77.63V306.08H1002.48V-55.768Z" fill="white"/>
</mask>
<g mask="url(#mask9_18_3)">
<path d="M193.184 30.9784H166.174V59.4175H193.184V30.9784Z" fill="#017737"/>
</g>
<mask id="mask10_18_3" style="mask-type:luminance" maskUnits="userSpaceOnUse" x="-78" y="-56" width="1081" height="363">
<path d="M1002.48 -55.768H-77.63V306.08H1002.48V-55.768Z" fill="white"/>
</mask>
<g mask="url(#mask10_18_3)">
<path d="M667.646 30.9784H640.636V59.4175H667.646V30.9784Z" fill="#017737"/>
</g>
<mask id="mask11_18_3" style="mask-type:luminance" maskUnits="userSpaceOnUse" x="-78" y="-56" width="1081" height="363">
<path d="M1002.48 -55.768H-77.63V306.08H1002.48V-55.768Z" fill="white"/>
</mask>
<g mask="url(#mask11_18_3)">
<path d="M884.583 72.2794H888.584V83.1405H891.586V72.2794H895.587V69.707H884.583V72.2794Z" fill="#017737"/>
</g>
<mask id="mask12_18_3" style="mask-type:luminance" maskUnits="userSpaceOnUse" x="-78" y="-56" width="1081" height="363">
<path d="M1002.48 -55.768H-77.63V306.08H1002.48V-55.768Z" fill="white"/>
</mask>
<g mask="url(#mask12_18_3)">
<path d="M907.449 69.707L904.448 78.9961L901.303 69.707H897.159V83.1405H899.874V73.7085H900.017L903.304 83.1405H905.591L908.878 73.7085V83.1405H911.593V69.707H907.449Z" fill="#017737"/>
</g>
</g>
<defs>
<clipPath id="clip0_18_3">
<rect width="940" height="250" fill="white"/>
</clipPath>
</defs>
</svg>
