<svg width="115" height="39" viewBox="0 0 115 39" fill="none" xmlns="http://www.w3.org/2000/svg">
<path fill-rule="evenodd" clip-rule="evenodd" d="M112.373 13.1422L107.774 8.54315H99.2299V2.62796H91.9999V29.5716H99.2299V15.7705H105.143V29.5716H112.373V13.1422ZM89.3729 8.54315H78.2011L73.6008 13.1422V24.9705L78.2011 29.5716H89.3729V22.3436H80.8288V15.7705H89.3729V8.54315ZM70.9721 8.54315H65.0586V2.62796H57.8286V24.9705L62.429 29.5716H70.9721V22.3436H65.0586V15.7705H70.9721V8.54315ZM55.2 2.62796H47.972V5.91485H55.2V2.62796ZM55.2 8.54315H47.972V29.5712H55.2V8.54315ZM45.3434 8.54315H38.1147V22.3436H35.4867V8.54315H28.2577V22.3436H25.6301V8.54315H18.4001V29.5716H40.744L45.3434 24.9705V8.54315ZM15.7715 8.54315H9.85764V2.62796H2.62897V24.9705L7.229 29.5716H15.7715V22.3436H9.85764V15.7705H15.7715V8.54315ZM115 11.8277V31.5419L105.143 38.114H98.5723V34.8271L93.9723 38.114H88.0588V34.8271L84.7739 38.114H74.259L70.9721 34.8271L70.3142 38.114H61.1155L57.3537 34.8271L57.1431 38.114H46.7165L46.3478 34.8271L43.5253 38.114H27.5998L24.3136 36.7995V38.114H15.7715L5.91384 32.1982L0 26.2867V1.11189e-06H12.4866L18.4001 5.91485H45.3434V1.11189e-06H67.6863V5.91485H73.6008V9.19972L76.8877 5.91485H83.4577L89.3729 1.11189e-06H101.859V5.91485H109.088L115 11.8277Z" fill="#6441A5"/>
</svg>
