<svg width="108" height="72" viewBox="0 0 108 72" fill="none" xmlns="http://www.w3.org/2000/svg">
<g clip-path="url(#clip0_204_7302)">
<path d="M6.21486 43.282C6.67135 44.4935 7.30335 45.5293 8.11097 46.3895C8.9186 47.2498 9.87539 47.9081 10.9814 48.3646C12.0874 48.8211 13.29 49.0493 14.5892 49.0493C15.8533 49.0493 17.0383 48.8122 18.1444 48.3381C19.2505 47.864 20.216 47.197 21.0411 46.3368C21.8662 45.4765 22.5071 44.4495 22.9636 43.2557C23.4201 42.0618 23.6482 40.7277 23.6482 39.2529V16.5H29.1784V53.368H23.7009V49.9445C22.472 51.2436 21.0235 52.2443 19.3557 52.9467C17.6878 53.6489 15.8884 54 13.9572 54C11.9908 54 10.1563 53.6576 8.45325 52.9729C6.75036 52.2883 5.27555 51.314 4.02915 50.0499C2.78275 48.7858 1.7995 47.2674 1.07975 45.4941C0.359876 43.7209 0 41.7459 0 39.5688V16.5H5.53019V39.2529C5.53019 40.7277 5.75837 42.0706 6.21486 43.282Z" fill="white"/>
<path d="M38.711 16.5V29.9305C39.9399 28.7015 41.362 27.7273 42.9772 27.0074C44.5923 26.2875 46.348 25.9276 48.244 25.9276C50.2103 25.9276 52.0536 26.2963 53.7742 27.0336C55.4946 27.771 56.9868 28.7717 58.2509 30.0358C59.515 31.2999 60.5158 32.7921 61.2531 34.5126C61.9905 36.2332 62.3591 38.059 62.3591 39.9902C62.3591 41.9213 61.9905 43.7384 61.2531 45.4413C60.5158 47.1443 59.515 48.6278 58.2509 49.8917C56.9868 51.1558 55.4946 52.1566 53.7742 52.8939C52.0536 53.6313 50.2102 53.9999 48.244 53.9999C46.3479 53.9999 44.5836 53.64 42.9508 52.9201C41.3181 52.2004 39.8872 51.226 38.6583 49.9971V53.3679H33.3915V16.5H38.711ZM39.3166 43.6243C39.7906 44.748 40.4491 45.7311 41.2918 46.5738C42.1345 47.4165 43.1176 48.0837 44.2412 48.5753C45.3648 49.0669 46.5762 49.3126 47.8754 49.3126C49.1395 49.3126 50.3332 49.0669 51.4568 48.5753C52.5803 48.0837 53.5546 47.4166 54.3799 46.5738C55.205 45.7312 55.8634 44.748 56.3549 43.6243C56.8465 42.5007 57.0923 41.2894 57.0923 39.9902C57.0923 38.691 56.8465 37.4709 56.3549 36.3297C55.8634 35.1885 55.205 34.1967 54.3799 33.354C53.5547 32.5114 52.5804 31.8529 51.4568 31.3789C50.3331 30.905 49.1393 30.6678 47.8754 30.6678C46.6114 30.6678 45.4175 30.9049 44.2939 31.3789C43.1704 31.853 42.1872 32.5114 41.3444 33.354C40.5018 34.1967 39.8347 35.1885 39.3431 36.3297C38.8515 37.4709 38.6057 38.691 38.6057 39.9902C38.6056 41.2894 38.8427 42.5007 39.3166 43.6243Z" fill="white"/>
<path d="M65.3605 34.5653C66.0627 32.8799 67.0285 31.3964 68.2573 30.1149C69.4861 28.8333 70.9434 27.8238 72.6288 27.0864C74.3142 26.3491 76.1401 25.9805 78.1063 25.9805C80.0375 25.9805 81.8283 26.3316 83.4786 27.0338C85.1288 27.736 86.5508 28.7104 87.7447 29.9569C88.9385 31.2033 89.8691 32.6782 90.536 34.381C91.2032 36.0841 91.5368 37.9362 91.5368 39.9377V41.6758H69.6794C69.855 42.7643 70.2062 43.7737 70.7328 44.7041C71.2596 45.6345 71.9178 46.4422 72.7078 47.1268C73.4978 47.8116 74.3932 48.3471 75.394 48.7332C76.3947 49.1194 77.4567 49.3127 78.5804 49.3127C81.7757 49.3127 84.3565 47.9959 86.3228 45.3624L90.1675 48.2065C88.8333 49.9972 87.1831 51.4018 85.2168 52.42C83.2504 53.4382 81.0384 53.9474 78.5805 53.9474C76.5791 53.9474 74.7094 53.5961 72.9713 52.8939C71.2332 52.1918 69.7235 51.2085 68.4419 49.9444C67.1603 48.6803 66.1508 47.1969 65.4135 45.494C64.6761 43.7911 64.3074 41.9388 64.3074 39.9375C64.3071 38.0415 64.6584 36.2507 65.3605 34.5653ZM72.7605 32.4848C71.2682 33.7313 70.2763 35.3904 69.7848 37.462H86.1647C85.7082 35.3904 84.7338 33.7313 83.2415 32.4848C81.7493 31.2384 80.0024 30.6152 78.0011 30.6152C75.9996 30.6152 74.2528 31.2384 72.7605 32.4848Z" fill="white"/>
<path d="M101.491 33.0906C100.367 34.3195 99.8056 35.9873 99.8056 38.0941V53.3681H94.486V26.5071H99.7528V29.8252C100.42 28.7367 101.289 27.8764 102.36 27.2444C103.431 26.6123 104.704 26.2963 106.179 26.2963H108.022V31.2471H105.81C104.054 31.2473 102.615 31.8617 101.491 33.0906Z" fill="white"/>
</g>
<defs>
<clipPath id="clip0_204_7302">
<rect width="108" height="72" fill="white"/>
</clipPath>
</defs>
</svg>
