<svg width="155" height="72" viewBox="0 0 155 72" fill="none" xmlns="http://www.w3.org/2000/svg">
<g clip-path="url(#clip0_204_7304)">
<path fill-rule="evenodd" clip-rule="evenodd" d="M150.866 28.0854L144.711 21.9315H133.279V14.0164H123.604V50.0694H133.279V31.6023H141.191V50.0694H150.866V28.0854ZM120.089 21.9315H105.14L98.9845 28.0854V43.9128L105.14 50.0694H120.089V40.3977H108.656V31.6023H120.089V21.9315ZM95.4671 21.9315H87.5543V14.0164H77.8799V43.9128L84.0356 50.0694H95.4671V40.3977H87.5543V31.6023H95.4671V21.9315ZM74.3625 14.0164H64.6909V18.4146H74.3625V14.0164ZM74.3625 21.9315H64.6909V50.0689H74.3625V21.9315ZM61.1735 21.9315H51.5009V40.3977H47.9845V21.9315H38.3114V40.3977H34.7954V21.9315H25.121V50.0694H55.0192L61.1735 43.9128V21.9315ZM21.6037 21.9315H13.6904V14.0164H4.0178V43.9128L10.1731 50.0694H21.6037V40.3977H13.6904V31.6023H21.6037V21.9315ZM154.38 26.3265V52.7059L141.191 61.5H132.399V57.1018L126.243 61.5H118.331V57.1018L113.935 61.5H99.8653L95.4671 57.1018L94.5868 61.5H82.2781L77.2444 57.1018L76.9626 61.5H63.0109L62.5175 57.1018L58.7408 61.5H37.431L33.0338 59.7411V61.5H21.6037L8.41324 53.584L0.5 45.674V10.5H17.2082L25.121 18.4146H61.1735V10.5H91.0703V18.4146H98.9845V22.81L103.383 18.4146H112.174L120.089 10.5H136.796V18.4146H146.469L154.38 26.3265Z" fill="white"/>
</g>
<defs>
<clipPath id="clip0_204_7304">
<rect width="154.5" height="72" fill="white" transform="translate(0.5)"/>
</clipPath>
</defs>
</svg>
