<svg width="231" height="72" viewBox="0 0 231 72" fill="none" xmlns="http://www.w3.org/2000/svg">
<g clip-path="url(#clip0_204_7311)">
<path d="M92.5636 38.4936L88.5479 27.9839C88.384 27.5541 87.7578 27.5541 87.5936 27.9839L83.5786 38.4942C83.5501 38.5689 83.5406 38.6492 83.551 38.7283C83.5614 38.8073 83.5913 38.8827 83.6382 38.9481C83.6851 39.0135 83.7475 39.0669 83.8203 39.1038C83.893 39.1407 83.9739 39.1599 84.0559 39.1599H92.0862C92.1683 39.1599 92.2492 39.1406 92.3219 39.1037C92.3946 39.0668 92.4571 39.0133 92.5039 38.9479C92.5508 38.8825 92.5807 38.807 92.591 38.728C92.6013 38.6489 92.5918 38.5686 92.5632 38.4939L92.5636 38.4936ZM94.4186 44.4009H81.7239C81.6201 44.4009 81.5187 44.4318 81.4335 44.4894C81.3482 44.547 81.2831 44.6285 81.247 44.723L78.7477 51.2624C78.7116 51.357 78.6465 51.4385 78.5613 51.4961C78.476 51.5537 78.3746 51.5845 78.2708 51.5846H72.7685C72.6853 51.5845 72.6034 51.5647 72.53 51.5269C72.4565 51.489 72.3937 51.4342 72.3471 51.3673C72.3005 51.3004 72.2715 51.2234 72.2627 51.1432C72.2538 51.0629 72.2653 50.9817 72.2963 50.9067L84.9641 20.2676C85.002 20.1761 85.0673 20.0977 85.1515 20.0425C85.2358 19.9874 85.3351 19.9579 85.4367 19.958H90.7052C90.9128 19.958 91.0997 20.0805 91.1774 20.2676L103.845 50.9064C103.876 50.9814 103.888 51.0626 103.879 51.143C103.87 51.2234 103.841 51.3005 103.794 51.3674C103.748 51.4344 103.685 51.4893 103.611 51.5272C103.538 51.5651 103.456 51.5849 103.373 51.5849H97.8714C97.7675 51.5849 97.6661 51.5539 97.5808 51.4963C97.4956 51.4386 97.4305 51.357 97.3944 51.2624L94.8949 44.723C94.8587 44.6285 94.7936 44.547 94.7084 44.4894C94.6231 44.4318 94.5217 44.4009 94.4179 44.4009H94.4186ZM106.423 30.7108H111.129C111.264 30.7108 111.393 30.7628 111.489 30.8555C111.584 30.9481 111.638 31.0738 111.638 31.2048V51.0905C111.638 51.2215 111.584 51.3472 111.489 51.4399C111.393 51.5325 111.264 51.5846 111.129 51.5846H106.423C106.288 51.5846 106.158 51.5325 106.063 51.4399C105.968 51.3472 105.914 51.2215 105.914 51.0905V31.2045C105.914 31.0735 105.968 30.9478 106.063 30.8552C106.158 30.7625 106.288 30.7105 106.423 30.7105V30.7108ZM128.801 35.548C128.801 35.679 128.747 35.8047 128.652 35.8973C128.556 35.99 128.427 36.042 128.292 36.042H128.15C125.823 36.042 124.116 36.5842 123.03 37.6685C121.944 38.7528 121.402 40.5452 121.402 43.0452V51.0905C121.402 51.2215 121.348 51.3472 121.253 51.4399C121.157 51.5325 121.028 51.5846 120.893 51.5846H116.233C116.098 51.5846 115.969 51.5325 115.873 51.4399C115.778 51.3472 115.724 51.2215 115.724 51.0905V31.2045C115.724 31.0735 115.778 30.9478 115.873 30.8552C115.969 30.7625 116.098 30.7105 116.233 30.7105H120.846C120.981 30.7105 121.111 30.7625 121.206 30.8552C121.301 30.9478 121.355 31.0735 121.355 31.2045V35.1379H121.448C122.007 33.5115 122.891 32.2621 124.101 31.388C125.311 30.5148 126.8 30.0777 128.568 30.0777H128.801V35.5476V35.548ZM141.668 35.3642C141.534 35.3642 141.404 35.4162 141.309 35.5089C141.213 35.6015 141.16 35.7272 141.16 35.8582V44.1295C141.16 44.973 141.329 45.5755 141.671 45.9368C142.012 46.2981 142.602 46.4789 143.439 46.4789H143.908C144.043 46.4789 144.172 46.531 144.268 46.6236C144.363 46.7163 144.417 46.842 144.417 46.973V51.1353C144.417 51.2663 144.363 51.392 144.268 51.4846C144.172 51.5773 144.043 51.6294 143.908 51.6294H141.904C139.825 51.6294 138.228 51.1099 137.111 50.0708C135.994 49.0316 135.435 47.4885 135.435 45.4398V35.8582C135.435 35.7272 135.382 35.6015 135.286 35.5089C135.191 35.4162 135.061 35.3642 134.926 35.3642H131.989C131.854 35.3642 131.724 35.3121 131.629 35.2195C131.534 35.1268 131.48 35.0012 131.48 34.8701V31.2045C131.48 31.0735 131.534 30.9478 131.629 30.8552C131.724 30.7625 131.854 30.7105 131.989 30.7105H134.927C135.062 30.7105 135.191 30.6584 135.286 30.5657C135.382 30.4731 135.436 30.3474 135.436 30.2164V22.846C135.436 22.7149 135.489 22.5893 135.585 22.4966C135.68 22.404 135.809 22.3519 135.944 22.3519H140.65C140.785 22.3519 140.915 22.404 141.01 22.4966C141.106 22.5893 141.159 22.7149 141.159 22.846V30.2164C141.159 30.3474 141.213 30.4731 141.308 30.5657C141.404 30.6584 141.533 30.7105 141.668 30.7105H145.071C145.206 30.7105 145.336 30.7625 145.431 30.8552C145.526 30.9478 145.58 31.0735 145.58 31.2045V34.8705C145.58 35.0015 145.526 35.1272 145.431 35.2198C145.336 35.3125 145.206 35.3645 145.071 35.3645H141.668V35.3642ZM163.218 45.3946C164.288 44.3103 164.823 42.8947 164.823 41.1473C164.823 39.401 164.288 37.9847 163.218 36.9004C162.147 35.8161 160.743 35.2739 159.006 35.2739C157.268 35.2739 155.865 35.8161 154.795 36.9004C153.725 37.9847 153.189 39.401 153.189 41.1473C153.189 42.8947 153.725 44.3103 154.795 45.3946C155.865 46.4789 157.268 47.0211 159.006 47.0211C160.743 47.0211 162.147 46.4789 163.218 45.3946ZM152.352 50.9518C150.769 50.0787 149.52 48.8056 148.606 47.1341C147.69 45.4625 147.233 43.4671 147.233 41.1473C147.233 38.8285 147.69 36.8325 148.606 35.161C149.52 33.4894 150.769 32.2173 152.352 31.3432C153.934 30.4697 155.671 30.0329 157.564 30.0329C159.239 30.0329 160.673 30.3491 161.869 30.9815C163.062 31.6139 164.016 32.5029 164.73 33.6475H164.823V31.2045C164.823 31.0735 164.877 30.9478 164.972 30.8552C165.068 30.7625 165.197 30.7105 165.332 30.7105H169.992C170.126 30.7105 170.256 30.7625 170.351 30.8552C170.447 30.9478 170.5 31.0735 170.5 31.2045V51.0902C170.5 51.2212 170.447 51.3469 170.351 51.4395C170.256 51.5322 170.126 51.5842 169.992 51.5842H165.332C165.197 51.5842 165.068 51.5322 164.972 51.4395C164.877 51.3469 164.823 51.2212 164.823 51.0902V48.6475H164.73C164.016 49.7928 163.062 50.6808 161.868 51.3132C160.673 51.9456 159.239 52.2618 157.564 52.2618C155.671 52.2618 153.934 51.825 152.352 50.9518ZM189.879 45.3946C190.95 44.3103 191.484 42.8947 191.484 41.1473C191.484 39.401 190.95 37.9847 189.879 36.9004C188.809 35.8161 187.405 35.2739 185.668 35.2739C183.93 35.2739 182.527 35.8161 181.456 36.9004C180.386 37.9847 179.851 39.401 179.851 41.1473C179.851 42.8947 180.386 44.3103 181.456 45.3946C182.527 46.4789 183.93 47.0211 185.668 47.0211C187.405 47.0211 188.809 46.4789 189.879 45.3946ZM182.806 51.3132C181.611 50.6808 180.657 49.7928 179.944 48.6475H179.851V51.0902C179.851 51.2212 179.797 51.3469 179.702 51.4395C179.606 51.5322 179.477 51.5842 179.342 51.5842H174.636C174.501 51.5842 174.371 51.5322 174.276 51.4395C174.181 51.3469 174.127 51.2212 174.127 51.0902V20.4511C174.127 20.3201 174.181 20.1944 174.276 20.1017C174.371 20.0091 174.501 19.957 174.636 19.957H179.342C179.477 19.957 179.606 20.0091 179.702 20.1017C179.797 20.1944 179.851 20.3201 179.851 20.4511V33.6472H179.944C180.657 32.5026 181.611 31.6139 182.806 30.9815C184 30.3488 185.435 30.0326 187.111 30.0326C189.003 30.0326 190.74 30.4693 192.322 31.3428C193.905 32.217 195.153 33.4891 196.068 35.1603C196.983 36.8329 197.442 38.8289 197.442 41.1477C197.442 43.4675 196.983 45.4625 196.069 47.1344C195.153 48.806 193.905 50.079 192.323 50.9518C190.741 51.8253 189.003 52.2624 187.111 52.2624C185.435 52.2624 184 51.9462 182.806 51.3135L182.806 51.3132ZM205.371 51.5846H200.665C200.53 51.5846 200.4 51.5325 200.305 51.4399C200.209 51.3472 200.156 51.2215 200.156 51.0905V20.4521C200.156 20.321 200.209 20.1954 200.305 20.1027C200.4 20.0101 200.53 19.958 200.665 19.958H205.371C205.505 19.958 205.635 20.0101 205.73 20.1027C205.826 20.1954 205.879 20.321 205.879 20.4521V51.0905C205.879 51.2215 205.826 51.3472 205.73 51.4399C205.635 51.5325 205.505 51.5846 205.371 51.5846ZM216.471 35.5453C215.691 36.1362 215.164 36.9893 214.891 38.1052C214.817 38.4129 215.064 38.708 215.39 38.708H224.346C224.656 38.708 224.901 38.4379 224.85 38.1402C224.671 37.0845 224.205 36.243 223.452 35.6132C222.568 34.8754 221.411 34.5065 219.985 34.5065C218.557 34.5065 217.386 34.8527 216.471 35.5453ZM227.942 32.9472C229.773 34.8905 230.688 37.6392 230.688 41.1928V41.783C230.688 41.9141 230.634 42.0397 230.539 42.1324C230.443 42.225 230.314 42.2771 230.179 42.2771H215.217C215.142 42.2772 215.069 42.2932 215.001 42.3238C214.934 42.3544 214.874 42.399 214.826 42.4544C214.778 42.5097 214.743 42.5746 214.723 42.6445C214.704 42.7143 214.7 42.7875 214.713 42.8588C214.952 44.1789 215.554 45.2276 216.518 46.0046C217.619 46.8939 219.008 47.3376 220.683 47.3376C222.845 47.3376 224.847 46.5181 226.688 44.8788C226.913 44.6786 227.27 44.7211 227.444 44.9645L229.732 48.1528C229.804 48.252 229.835 48.3733 229.821 48.4936C229.806 48.614 229.747 48.725 229.654 48.8056C228.531 49.76 227.282 50.5654 225.941 51.2005C224.452 51.908 222.699 52.2624 220.683 52.2624C218.356 52.2624 216.323 51.8026 214.587 50.8843C212.849 49.966 211.499 48.6709 210.538 46.9987C209.576 45.3271 209.095 43.392 209.095 41.1928C209.095 38.9945 209.561 37.0519 210.491 35.3645C211.422 33.6781 212.725 32.3679 214.401 31.4338C216.076 30.5006 218.03 30.0333 220.264 30.0333C223.551 30.0333 226.111 31.0049 227.942 32.9472ZM112.252 23.3591C112.252 25.2227 110.696 26.7336 108.776 26.7336C106.856 26.7336 105.3 25.2227 105.3 23.3588C105.3 21.4949 106.857 19.984 108.776 19.984C110.696 19.984 112.252 21.4949 112.252 23.3588" fill="white"/>
<path d="M26.8007 11.0461L4.42394 20.0357C3.17958 20.5357 3.19247 22.2521 4.44463 22.734L26.9146 31.3853C28.8889 32.1455 31.0875 32.1455 33.0618 31.3853L55.5322 22.7336C56.784 22.2521 56.7975 20.5361 55.5525 20.0361L33.1765 11.0458C31.135 10.2256 28.8418 10.2256 26.8003 11.0458" fill="white"/>
<path d="M31.9824 36.1093V57.7219C31.9824 58.7495 33.05 59.4537 34.0342 59.0749L59.0727 49.639C59.3519 49.5316 59.5915 49.3451 59.7603 49.1038C59.929 48.8626 60.0193 48.5776 60.0192 48.286V26.6737C60.0192 25.6458 58.9516 24.9419 57.9674 25.3207L32.9289 34.7566C32.6497 34.8641 32.4102 35.0506 32.2415 35.2919C32.0727 35.5331 31.9825 35.818 31.9824 36.1097" fill="white"/>
<path d="M26.1349 37.225L18.704 40.7084L17.9496 41.0625L2.26346 48.3598C1.26946 48.8256 0 48.122 0 47.0496V26.7647C0 26.3767 0.204905 26.0417 0.479695 25.7897C0.592427 25.6807 0.720321 25.5876 0.859652 25.5131C1.23418 25.2947 1.76883 25.2364 2.22343 25.411L26.0101 34.5617C27.2191 35.0274 27.3141 36.6723 26.1349 37.2253" fill="white"/>
<path d="M26.1347 37.225L18.7039 40.7084L0.479492 25.7894C0.592246 25.6805 0.720139 25.5875 0.859449 25.5131C1.23398 25.2947 1.76863 25.2364 2.22322 25.411L26.0099 34.5616C27.219 35.0274 27.3139 36.6723 26.1347 37.2253" fill="#ADB5BD"/>
</g>
<defs>
<clipPath id="clip0_204_7311">
<rect width="231" height="72" fill="white"/>
</clipPath>
</defs>
</svg>
