<svg width="176" height="72" viewBox="0 0 176 72" fill="none" xmlns="http://www.w3.org/2000/svg">
<path d="M52.7801 31.0035H36.7016L50.6256 23.006L47.8644 18.246L33.9386 26.2435L41.9761 12.3922L37.1923 9.64473L29.153 23.4925V7.50098H23.627V23.4942L15.5878 9.64473L10.8022 12.3922L18.8397 26.24L4.91746 18.246L2.15447 23.006L16.0785 31.0035H0V36.5002H16.0767L2.15447 44.4977L4.91571 49.2577L18.8415 41.2602L10.8022 55.1115L15.586 57.859L23.627 44.0095V60.001H29.153V43.6665L37.34 57.7715L41.8266 55.1955L33.6378 41.087L47.8609 49.256L50.6238 44.496L36.7016 36.4985H52.7783V31.0035H52.7801ZM26.39 41.2235C25.4036 41.2236 24.4268 41.0304 23.5154 40.6549C22.604 40.2794 21.7759 39.7289 21.0783 39.0349C20.3807 38.341 19.8273 37.5171 19.4497 36.6103C19.0721 35.7035 18.8777 34.7316 18.8775 33.7501C18.8774 32.7686 19.0716 31.7966 19.449 30.8898C19.8264 29.9829 20.3796 29.1589 21.077 28.4648C21.7745 27.7706 22.6025 27.22 23.5138 26.8443C24.4251 26.4685 25.4018 26.2751 26.3883 26.275C28.3805 26.2747 30.2912 27.062 31.7001 28.4635C33.1089 29.865 33.9005 31.7661 33.9008 33.7484C33.901 35.7306 33.1098 37.6318 31.7013 39.0337C30.2928 40.4356 28.3822 41.2232 26.39 41.2235Z" fill="white"/>
<path d="M67.0254 52.9533V14.5479H74.1096V52.9533H67.0254ZM134.971 26.8538H141.735V30.0388C143.174 27.4926 146.531 26.1118 149.407 26.1118C152.977 26.1118 155.853 27.6518 157.184 30.4606C159.26 27.2756 162.031 26.1118 165.494 26.1118C170.341 26.1118 174.974 29.0291 174.974 36.0308V52.9533H168.104V37.4641C168.104 34.6518 166.718 32.5291 163.468 32.5291C160.431 32.5291 158.619 34.8653 158.619 37.6776V52.9551H151.591V37.4641C151.591 34.6518 150.153 32.5291 146.955 32.5291C143.865 32.5291 142.054 34.8128 142.054 37.6776V52.9551H134.971V26.8538ZM90.1195 53.7093C82.1383 53.7093 76.3591 47.8171 76.3591 39.9036C76.3591 32.1161 82.1207 26.0856 90.1195 26.0856C98.157 26.0856 103.88 32.1721 103.88 39.9036C103.88 47.7611 98.0972 53.7093 90.1195 53.7093ZM90.1195 32.4731C88.1399 32.4759 86.2422 33.26 84.8428 34.6533C83.4435 36.0467 82.6568 37.9355 82.6554 39.9053C82.6568 41.8752 83.4435 43.764 84.8428 45.1574C86.2422 46.5507 88.1399 47.3348 90.1195 47.3376C92.0989 47.3344 93.9962 46.55 95.3951 45.1567C96.7941 43.7634 97.5805 41.8749 97.5819 39.9053C97.5805 37.9358 96.7941 36.0473 95.3951 34.654C93.9962 33.2606 92.0989 32.4763 90.1195 32.4731ZM119.011 53.7093C111.029 53.7093 105.25 47.8171 105.25 39.9036C105.25 32.1161 111.012 26.0856 119.011 26.0856C127.048 26.0856 132.771 32.1721 132.771 39.9036C132.771 47.7611 126.985 53.7093 119.011 53.7093ZM119.011 32.3838C117.008 32.3871 115.089 33.1804 113.673 34.5897C112.258 35.9991 111.462 37.9094 111.46 39.9018C111.462 41.8943 112.258 43.8046 113.673 45.214C115.089 46.6233 117.008 47.4166 119.011 47.4198C121.013 47.4166 122.932 46.6233 124.348 45.214C125.763 43.8046 126.559 41.8943 126.561 39.9018C126.559 37.9094 125.763 35.9991 124.348 34.5897C122.932 33.1804 121.013 32.3871 119.011 32.3838Z" fill="white"/>
</svg>
