<svg width="244" height="72" viewBox="0 0 244 72" fill="none" xmlns="http://www.w3.org/2000/svg">
<g clip-path="url(#clip0_204_7309)">
<path fill-rule="evenodd" clip-rule="evenodd" d="M40.2788 16.5009H4.22046C2.16531 16.5009 0.5 18.1666 0.5 20.2213V56.2797C0.5 58.3347 2.16571 60.0001 4.22046 60.0001H40.2788C42.3339 60.0001 43.9992 58.3343 43.9992 56.2797V20.2213C43.9992 18.1662 42.3334 16.5009 40.2788 16.5009ZM23.3566 40.4665C20.1048 40.4665 18.627 37.3241 18.627 34.4113C18.627 29.8249 21.1122 28.1919 23.4368 28.1919C26.2897 28.1919 28.2065 30.6728 28.2065 34.3685C28.2065 38.5838 25.7681 40.4665 23.3566 40.4665ZM34.3334 34.2876C34.3334 27.4136 30.413 22.7957 24.5823 22.7957C21.1902 22.7957 19.2266 24.3342 18.2793 25.3959C18.1657 24.4804 17.5684 23.2928 15.2348 23.2928H10.1665V28.6462H12.2438C12.5959 28.6462 12.7096 28.7587 12.7096 29.1141V53.5599H18.7496V44.3849C18.7496 44.1375 18.7452 43.9057 18.7385 43.6988C19.6812 44.5715 21.4844 45.7771 24.2993 45.7771C30.2034 45.7771 34.3334 41.0535 34.3334 34.2876Z" fill="white"/>
<path fill-rule="evenodd" clip-rule="evenodd" d="M59.9602 28.2145C61.0302 27.0163 63.2481 25.28 67.08 25.28C73.6659 25.28 78.0944 30.4915 78.0944 38.249C78.0944 45.8847 73.4292 51.2156 66.7601 51.2156C63.5805 51.2156 61.5438 49.8549 60.4788 48.87C60.4864 49.1035 60.4914 49.3649 60.4914 49.6442V59.9986H53.6688V32.4106C53.6688 32.0095 53.5403 31.8826 53.1426 31.8826H50.7962V25.841H56.5212C59.1571 25.841 59.8318 27.1813 59.9602 28.2145ZM65.7859 31.3697C63.16 31.3697 60.3529 33.2127 60.3529 38.3886C60.3529 41.6759 62.0221 45.2222 65.6952 45.2222C68.4192 45.2222 71.1735 43.0975 71.1735 38.3405C71.1735 34.1697 69.0084 31.3697 65.7859 31.3697Z" fill="white"/>
<path d="M87.2566 44.1339V29.5148C87.2566 27.0449 86.0759 25.8416 83.6565 25.8416H77.5589V31.8831H79.9078C80.3031 31.8831 80.4315 32.0127 80.4315 32.4112V46.9794C80.4315 49.4874 81.5744 50.6526 84.0241 50.6526H90.1292V44.6644H87.7802C87.4026 44.6644 87.2566 44.512 87.2566 44.1339Z" fill="white"/>
<path fill-rule="evenodd" clip-rule="evenodd" d="M97.9572 28.2145C99.0321 27.0163 101.245 25.28 105.082 25.28C111.665 25.28 116.091 30.4915 116.091 38.249C116.091 45.8847 111.431 51.2156 104.76 51.2156C101.583 51.2156 99.5382 49.8549 98.4783 48.87C98.4858 49.1035 98.4934 49.3649 98.4934 49.6442V59.9986H91.6657V32.4106C91.6657 32.0095 91.5374 31.8826 91.1421 31.8826H88.7957V25.841H94.5232C97.1591 25.841 97.8313 27.1813 97.9572 28.2145ZM98.3499 38.3886C98.3499 41.6759 100.027 45.2222 103.69 45.2222C106.421 45.2222 109.173 43.0975 109.173 38.3405C109.173 34.1697 107.008 31.3697 103.785 31.3697C101.157 31.3697 98.3499 33.2127 98.3499 38.3886Z" fill="white"/>
<path fill-rule="evenodd" clip-rule="evenodd" d="M116.439 38.2503C116.439 30.6145 121.58 25.2812 128.932 25.2812C135.488 25.2812 139.893 30.023 139.893 37.08C139.893 37.7958 139.76 39.2605 139.747 39.3214L139.71 39.7733H123.529C124.121 43.0734 126.623 45.1776 130.042 45.1776C133.482 45.1776 136.115 42.8408 136.318 42.6603C136.326 42.6539 136.33 42.6502 136.331 42.6494L136.771 42.228L139.745 47.2009L139.47 47.4751C139.308 47.6332 135.636 51.2167 129.629 51.2167C121.986 51.2167 116.439 45.7616 116.439 38.2503ZM128.932 30.8531C126.374 30.8531 124.523 32.234 123.783 34.6685H132.847C132.567 32.4295 130.986 30.8531 128.932 30.8531Z" fill="white"/>
<path fill-rule="evenodd" clip-rule="evenodd" d="M164.711 20.1732V44.1338C164.711 44.512 164.857 44.6644 165.234 44.6644H167.533V50.6526H161.622C159.069 50.6526 158.382 49.297 158.243 48.2257C157.183 49.4544 155.013 51.216 151.249 51.216C144.663 51.216 140.237 46.0071 140.237 38.2496C140.237 30.6139 144.857 25.2806 151.478 25.2806C154.865 25.2806 156.831 26.4863 157.838 27.4027V23.0721C157.838 22.671 157.709 22.5441 157.314 22.5441H154.965V16.5H161.063C163.515 16.5 164.711 17.7032 164.711 20.1732ZM147.199 38.2496C147.199 42.4837 149.298 45.2228 152.543 45.2228C155.169 45.2228 157.979 43.3824 157.979 38.2039C157.979 34.7998 156.325 31.3703 152.636 31.3703C149.384 31.3703 147.199 34.1323 147.199 38.2496Z" fill="white"/>
<path d="M182.716 25.5138C179.876 25.5138 177.263 27.1664 175.712 29.7988V29.2327C175.712 26.9836 174.481 25.8413 172.064 25.8413H166.198V31.8828H168.544C168.94 31.8828 169.07 32.0098 169.07 32.4108V50.6523H175.893V40.7243C175.893 39.417 176.059 38.158 176.382 36.9927C177.409 33.5684 180.138 32.3499 182.346 32.3499C183.129 32.3499 183.698 32.4338 183.708 32.4362L184.277 32.5225V25.6839L183.861 25.6128C183.841 25.6078 183.262 25.5138 182.716 25.5138Z" fill="white"/>
<path d="M193.989 44.1339V29.5148C193.989 27.0449 192.813 25.8417 190.393 25.8417H184.878V31.8832H186.64C187.038 31.8832 187.163 32.0127 187.163 32.4113V46.9794C187.163 49.4874 188.309 50.6527 190.764 50.6527H196.864V44.6645H194.512C194.135 44.6645 193.989 44.5121 193.989 44.1339Z" fill="white"/>
<path d="M219.747 25.8417H216.107C213.98 25.8417 212.839 26.5855 212.163 28.4106L207.716 40.938C207.562 41.4025 207.418 41.9228 207.294 42.423C207.167 41.9228 207.013 41.3949 206.844 40.9304L202.395 28.4081C201.713 26.5626 200.61 25.8417 198.456 25.8417H194.583V31.8832H195.588C196.122 31.8832 196.293 32.0661 196.42 32.4011L203.305 50.6527H210.978L217.863 32.4011C217.99 32.0661 218.166 31.8832 218.699 31.8832H219.747V25.8417Z" fill="white"/>
<path fill-rule="evenodd" clip-rule="evenodd" d="M219.009 38.2503C219.009 30.6145 224.148 25.2812 231.497 25.2812C238.057 25.2812 242.465 30.023 242.465 37.08C242.465 37.7958 242.327 39.2605 242.32 39.3214L242.282 39.7733H226.096C226.688 43.0734 229.19 45.1776 232.612 45.1776C236.161 45.1776 238.873 42.6722 238.896 42.6494L239.349 42.228L242.315 47.2009L242.037 47.4751C241.884 47.6273 238.208 51.2167 232.194 51.2167C224.551 51.2167 219.009 45.7616 219.009 38.2503ZM231.497 30.8531C228.941 30.8531 227.098 32.234 226.35 34.6685H235.413C235.135 32.4295 233.556 30.8531 231.497 30.8531Z" fill="white"/>
<path d="M86.7907 16.5016H80.7083V22.962H86.7907V16.5016Z" fill="white"/>
<path d="M193.526 16.5016H187.441V22.962H193.526V16.5016Z" fill="white"/>
</g>
<defs>
<clipPath id="clip0_204_7309">
<rect width="243" height="72" fill="white" transform="translate(0.5)"/>
</clipPath>
</defs>
</svg>
