<svg width="200" height="72" viewBox="0 0 200 72" fill="none" xmlns="http://www.w3.org/2000/svg">
<g clip-path="url(#clip0_204_7293)">
<path d="M21.9525 9H0V61.5L21.9525 9Z" fill="white"/>
<path d="M37.3975 9H59.3213V61.5L37.3975 9Z" fill="white"/>
<path d="M29.6762 28.3496L43.6486 61.5H34.4815L30.3055 50.9456H20.0801L29.6762 28.3496Z" fill="white"/>
<path d="M95.1368 42.3864L97.7254 49.8087C97.8112 49.9946 97.9399 50.0805 98.1687 50.0805H103.146C103.417 50.0805 103.46 49.9517 103.417 49.68L93.1346 21.1204C93.0917 20.8915 93.0488 20.8486 92.82 20.8486H86.6419C86.4703 20.8486 86.3701 20.9773 86.3701 21.1633C86.2843 22.6649 86.1556 23.1225 85.9697 23.5659L76.8026 49.6371C76.7597 49.9518 76.8598 50.0805 77.1172 50.0805H81.5649C81.8366 50.0805 81.9653 49.9946 82.0655 49.7229L84.511 42.3864H95.1368ZM85.9268 37.5382C87.2711 33.4767 89.0445 28.271 89.7595 25.2963H89.8025C90.6891 28.414 92.7771 34.5922 93.721 37.5382H85.9268Z" fill="white"/>
<path d="M116.636 50.524C119.31 50.524 122.156 50.0377 125.045 48.7935C125.274 48.7077 125.317 48.6076 125.317 48.3931C125.231 47.5922 125.131 46.4338 125.131 45.5471V18.6607C125.131 18.4891 125.131 18.4033 124.916 18.4033H120.068C119.882 18.4033 119.796 18.4891 119.796 18.718V27.8279C119.038 27.7421 118.509 27.6992 117.88 27.6992C110.057 27.6992 105.252 32.8619 105.252 39.3118C105.252 46.7914 110.186 50.524 116.636 50.524ZM119.796 45.5471C118.995 45.8046 118.109 45.9047 117.208 45.9047C113.661 45.9047 110.758 43.9025 110.758 39.0401C110.758 34.7354 113.747 32.1898 117.708 32.1898C118.509 32.1898 119.21 32.2756 119.796 32.5044V45.5471Z" fill="white"/>
<path d="M140.781 27.6992C134.103 27.6992 129.97 32.8191 129.97 39.1402C129.97 44.7892 133.259 50.5241 140.681 50.5241C146.96 50.5241 151.364 45.9047 151.364 38.9972C151.364 32.9049 147.632 27.6992 140.781 27.6992ZM140.51 32.1898C144.285 32.1898 145.887 35.4362 145.887 39.1402C145.887 43.7167 143.527 45.9906 140.781 45.9906C137.392 45.9906 135.39 43.1446 135.39 39.0401C135.39 34.8213 137.521 32.1898 140.51 32.1898Z" fill="white"/>
<path d="M156.376 18.4033C156.19 18.4033 156.062 18.4891 156.062 18.718V49.1511C156.062 49.2798 156.19 49.5086 156.376 49.5515C158.507 50.2094 160.738 50.524 163.041 50.524C169.633 50.524 176.04 46.4338 176.04 38.1963C176.04 32.2327 171.95 27.6992 165.543 27.6992C164.07 27.6992 162.697 27.928 161.496 28.3284L161.439 18.7609C161.439 18.4462 161.353 18.4033 161.038 18.4033H156.376ZM170.563 38.7397C170.563 43.6737 167.188 45.9905 163.541 45.9905C162.783 45.9905 162.111 45.9476 161.496 45.7617V32.7761C162.197 32.5044 163.041 32.2756 164.599 32.2756C168.117 32.2756 170.563 34.5066 170.563 38.7397Z" fill="white"/>
<path d="M194.136 40.3416C196.31 40.3416 198.098 40.2986 198.713 40.1556C198.942 40.1127 199.027 40.0269 199.07 39.841C199.199 39.3548 199.256 38.3394 199.256 37.0952C199.256 32.862 196.711 27.6992 190.132 27.6992C183.41 27.6992 179.678 33.1766 179.678 39.3548C179.678 44.8322 182.567 50.5241 190.661 50.5241C193.693 50.5241 195.652 50.0378 197.34 49.2369C197.511 49.1511 197.597 49.0081 197.597 48.7507V45.0467C197.597 44.8322 197.468 44.7893 197.34 44.8751C195.652 45.5901 193.822 45.9477 191.82 45.9477C187.286 45.9477 185.227 43.4449 185.098 40.3416H194.136ZM185.098 36.5088C185.455 34.335 186.828 31.9753 189.903 31.9753C193.293 31.9753 194.179 34.8213 194.179 36.1084C194.179 36.1513 194.179 36.3372 194.179 36.4659C193.993 36.5088 193.421 36.5088 191.734 36.5088H185.098Z" fill="white"/>
</g>
<defs>
<clipPath id="clip0_204_7293">
<rect width="199.5" height="72" fill="white"/>
</clipPath>
</defs>
</svg>
