<svg width="1728" height="1069" viewBox="0 0 1728 1069" fill="none" xmlns="http://www.w3.org/2000/svg">
<mask id="mask0_204_7436" style="mask-type:alpha" maskUnits="userSpaceOnUse" x="0" y="0" width="1728" height="1069">
<rect x="0.5" y="0.5" width="1727" height="1068" fill="#FFDC24" stroke="#D9EAFF"/>
</mask>
<g mask="url(#mask0_204_7436)">
<path d="M-649.391 91.9475C-356.919 -36.0087 -38.8564 -87.1912 282.862 -54.2882C381.571 -43.3205 476.625 -21.3852 571.678 4.20609C622.86 18.8297 674.043 40.765 725.225 59.0445C805.655 88.2916 878.773 132.162 962.858 157.754C1386.94 303.989 1851.24 271.086 2253.39 91.9475" stroke="#D9EAFF" stroke-width="4" stroke-miterlimit="10"/>
<path d="M-685.948 336.89C-207.026 117.537 374.261 124.849 842.215 369.793C1280.92 545.276 1785.44 526.997 2216.83 336.89" stroke="#D9EAFF" stroke-width="4" stroke-miterlimit="10"/>
<path d="M-685.948 629.362C-525.089 556.245 -356.918 512.374 -181.435 486.783C-86.3817 475.815 5.0156 468.503 100.069 472.159C162.219 475.815 224.369 479.471 286.519 486.783C414.476 508.718 535.12 534.309 655.765 581.836C754.474 622.051 845.871 669.577 944.58 702.48C1365.01 841.404 1818.34 804.845 2216.83 629.362" stroke="#D9EAFF" stroke-width="4" stroke-miterlimit="10"/>
<path d="M-612.833 932.802L-448.318 866.996C-411.759 856.028 -375.2 845.06 -334.985 834.093C15.9806 739.04 374.258 750.007 710.6 877.964C849.524 932.802 977.481 998.608 1123.72 1035.17C1346.73 1093.66 1558.77 1104.63 1785.43 1075.38C1960.92 1049.79 2129.09 1005.92 2289.95 932.802" stroke="#D9EAFF" stroke-width="4" stroke-miterlimit="10"/>
</g>
</svg>
