<svg width="49" height="67" viewBox="0 0 49 67" fill="none" xmlns="http://www.w3.org/2000/svg">
<path d="M2.23631 37.478C10.4701 39.3028 15.5298 33.5657 20.3056 27.4929C26.2534 19.9237 30.8399 11.8218 29.9299 1.94612C29.6896 -0.637748 23.1375 -0.659645 23.1303 1.94612C23.1084 10.559 23.4433 20.6245 31.3786 25.909C36.5184 29.325 42.5245 29.5877 47.9701 26.8871C50.7948 25.4857 47.0747 23.6828 45.5677 23.6755C37.8143 23.639 32.5435 30.7993 28.4957 36.7773C22.7954 45.2077 19.9852 54.9374 19.6649 65.0539H26.4645C26.348 53.4775 25.5764 37.1058 12.2028 33.2957C9.63289 32.5658 4.5077 35.3248 8.77386 36.5437C19.7814 39.6823 19.5775 55.9519 19.6649 65.0539C19.694 67.6377 26.3844 67.6596 26.4645 65.0539C26.6902 57.857 28.1463 50.974 31.2403 44.4559C33.3152 40.0838 39.7945 27.4053 45.5677 27.4272C44.7669 26.3542 43.966 25.2886 43.1652 24.2156C35.5647 27.9819 31.4151 17.4786 30.505 12.7269C29.828 9.19412 29.9299 5.51536 29.9372 1.93882H23.1375C23.72 8.21602 22.0455 13.8071 18.886 19.1938C16.8548 22.6609 9.52373 35.0548 4.05635 33.8431C0.736607 33.1059 -2.17543 36.4854 2.25089 37.4707L2.23631 37.478Z" fill="#F2581D"/>
</svg>
