<svg width="702" height="548" viewBox="0 0 702 548" fill="none" xmlns="http://www.w3.org/2000/svg">
<path d="M126.079 528.518C151.979 525.026 178.298 522.722 204.548 523.909C229.052 524.467 253.486 528.937 278.06 527.54C310.523 523.699 336.004 499.468 352.131 472.373C388.712 414.763 374.61 348.284 384.942 284.598C388.363 268.746 393.599 236.973 415.729 240.953C426.201 246.54 423.409 274.332 422.501 285.226C420.407 306.874 415.171 328.312 408.818 349.191C398.207 381.803 382.638 413.995 380.404 448.771C379.008 489.412 402.535 523.979 443.515 531.52C471.44 537.246 500.272 531.381 528.616 533.406C573.295 534.593 617.207 546.883 661.887 547.931C697.142 547.512 737.563 544.299 764.232 518.741C777.147 503.797 777.286 483.127 778.822 464.482C780.638 440.6 783.29 416.788 785.804 392.975C792.366 341.999 784.407 250.311 735.888 221.4C706.637 205.339 694.978 211.624 665.447 219.864C648.902 223.565 630.681 226.708 613.786 222.099C607.224 220.493 599.894 218.118 596.543 211.764C595.775 209.739 595.286 207.434 596.194 204.99C603.943 189.907 625.794 194.236 639.757 195.703C655.883 197.937 671.94 201.918 688.346 201.708C743.218 200.94 768.839 160.927 774.494 110.439C779.52 67.1436 781.824 23.4992 790.202 -19.377C792.087 -33.8321 795.438 -52.2675 797.462 -71.4012C799.277 -88.5098 799.975 -106.107 797.462 -122.029C794.6 -140.394 787.409 -156.455 772.679 -166.441C718.086 -198.843 642.34 -195.142 591.865 -156.246C575.46 -143.327 564.08 -125.59 554.725 -107.225C544.323 -86.0658 533.852 -64.9069 525.753 -42.7006C516.817 -21.1228 510.883 1.43266 508.091 24.5467C503.902 46.6134 502.925 92.632 473.115 93.889C455.452 88.7215 475 42.6329 479.258 30.9712C487.008 12.1168 496.083 -6.03927 505.159 -24.2652C518.144 -50.0329 533.363 -75.6609 537.133 -104.711C542.229 -139.277 511.581 -163.578 478.909 -160.296C453.498 -159.668 427.877 -163.02 402.954 -168.746C374.401 -176.148 345.498 -181.595 316.038 -183.55C293.837 -185.575 271.009 -185.226 250.065 -176.916C206.433 -161.623 175.994 -111.205 189.817 -65.8147C198.404 -29.6422 227.446 -7.92469 257.675 10.1615C277.92 22.2423 300.47 34.4628 307.311 58.9036C315.06 94.6571 291.534 116.724 256.767 102.408C233.38 93.3303 217.114 73.0793 203.57 52.8283C179.485 14.072 166.221 -30.2008 156.098 -74.4039C149.047 -102.057 146.255 -131.805 131.664 -156.944C101.226 -207.013 25.8984 -204.709 17.5209 -140.185C13.8907 -110.716 17.7304 -81.387 13.1228 -51.7786C9.14347 -10.9274 -1.11891 31.5997 10.3303 72.0318C16.1945 94.9364 32.3211 112.464 49.2855 127.967C66.9479 147.449 38.674 164.837 27.3644 178.594C15.0775 191.792 4.74531 207.644 2.02264 225.8C-5.51707 279.919 9.98123 342.557 54.9403 376.914C74.348 392.836 99.7597 388.995 118.818 374.61C135.503 363.716 151.63 351.915 168.315 341.021C187.863 328.102 209.365 318.396 231.006 309.527C249.367 302.893 276.733 288.299 295.653 297.586C302.773 303.382 301.587 312.6 296.839 319.653C281.201 341.859 250.275 350.658 225.631 359.038C186.327 370.769 146.883 382.222 108.067 395.629C61.9913 410.643 -1.74721 442.276 16.6134 500.865C36.091 543.741 88.3105 533.685 126.079 528.518Z" fill="#FDF1EB"/>
</svg>
