<svg width="864" height="334" viewBox="0 0 864 334" fill="none" xmlns="http://www.w3.org/2000/svg">
<g opacity="0.3">
<path d="M178.72 308.6C177.84 308.6 177.09 308.41 176.45 308.13C170.47 305.5 167.97 292.03 169.93 272.96L170.41 269.65C172.65 254.16 174.97 238.14 179.83 223.36C185.93 204.84 194.82 192.1 207.81 183.29L208.28 182.97L208.54 183.48C217.28 200.79 218.64 220.75 212.68 244.49C207.67 264.46 197.93 284.29 188.15 302.75L188.08 302.85C184.12 307.32 181 308.61 178.72 308.61V308.6ZM170.93 273.07C169.02 291.69 171.29 304.77 176.86 307.21C179.68 308.45 183.28 306.72 187.3 302.21C197.04 283.82 206.74 264.08 211.72 244.23C217.56 220.96 216.31 201.39 207.91 184.42C195.37 193.09 186.74 205.58 180.79 223.65C175.95 238.35 173.64 254.33 171.41 269.78L170.93 273.06V273.07Z" fill="white"/>
<path d="M168.289 364.93L168.049 364.53C146.399 327.72 138.999 276.04 148.739 229.65C151.979 214.2 156.97 199.88 163.58 187.08C179.729 156.66 207.929 129.79 234.509 138.29C246.629 142.62 243.19 161.85 240.15 178.81C239.11 184.63 238.119 190.12 237.729 194.94C235.249 211.47 232.259 228.41 228.819 245.33V245.39C226.139 253.58 223.759 262.5 221.249 271.94C220.719 273.92 220.19 275.92 219.65 277.92C209.62 315.26 198.18 349.99 168.71 364.72L168.289 364.93ZM224.259 137.69C201.339 137.69 178.4 161.3 164.46 187.54C157.9 200.25 152.939 214.49 149.719 229.85C140.069 275.84 147.329 327.04 168.679 363.61C197.459 348.94 208.759 314.58 218.679 277.65C219.219 275.65 219.75 273.65 220.28 271.67C222.8 262.23 225.17 253.3 227.84 245.09C231.27 228.2 234.259 211.28 236.729 194.82C237.129 189.99 238.119 184.47 239.159 178.63C242.269 161.25 245.489 143.28 234.179 139.24C230.889 138.19 227.569 137.69 224.259 137.69Z" fill="white"/>
<path d="M191.638 439.301C189.808 439.301 187.938 439.011 186.188 438.431C153.688 424.981 128.958 396.901 119.998 363.291C110.958 325.781 108.778 286.661 113.508 246.981C117.988 209.371 128.568 172.001 144.948 135.911C151.858 121.381 159.388 107.751 167.348 95.4105C184.168 70.5405 213.258 53.8405 243.288 51.8005C267.728 50.1405 289.658 58.7105 305.058 75.9205C322.638 94.3405 312.448 113.801 302.598 132.631C299.118 139.281 295.828 145.571 293.738 151.781C289.858 160.911 285.628 170.571 281.148 180.811C279.658 184.221 278.138 187.681 276.608 191.201C271.688 202.611 267.358 215.131 263.358 229.491C261.558 235.961 259.878 242.721 258.248 249.261C256.508 256.251 254.708 263.471 252.708 270.641C242.168 307.511 231.368 342.111 219.928 378.741C214.578 395.871 209.048 413.581 203.588 431.411C203.188 433.841 201.718 435.921 199.348 437.341C197.198 438.631 194.458 439.301 191.658 439.301H191.638ZM249.198 52.6005C247.268 52.6005 245.318 52.6705 243.348 52.8005C213.628 54.8105 184.818 71.3506 168.178 95.9606C160.258 108.261 152.738 121.841 145.858 136.331C111.878 211.201 103.268 289.601 120.968 363.041C129.848 396.341 154.358 424.181 186.538 437.491C190.598 438.841 195.548 438.441 198.808 436.481C200.918 435.211 202.228 433.371 202.598 431.181C208.078 413.281 213.608 395.571 218.958 378.441C230.398 341.821 241.198 307.231 251.728 270.371C253.728 263.211 255.528 256.001 257.268 249.021C258.898 242.481 260.578 235.711 262.378 229.231C266.398 214.831 270.748 202.261 275.678 190.811C277.208 187.291 278.728 183.831 280.218 180.421C284.698 170.191 288.918 160.531 292.788 151.441C294.888 145.191 298.198 138.871 301.698 132.191C311.388 113.681 321.408 94.5305 304.318 76.6205C290.358 61.0205 270.958 52.6205 249.198 52.6205V52.6005Z" fill="white"/>
<path d="M209.119 493.22C208.589 493.22 208.049 493.2 207.519 493.15L207.409 493.13C167.879 480.81 134.259 452.94 107.499 410.31C79.9389 366.41 66.2989 317.39 59.7089 283.99C50.4489 237.68 58.2189 189.36 83.4589 136.28C93.1389 115.92 105.549 94.5098 121.399 70.8098C146.869 38.5098 174.239 15.3198 205.089 -0.110219C237.419 -16.2802 275.079 -18.0002 311.129 -4.94024C351.939 9.82977 386.419 41.7798 403.369 80.5198C413.119 102.18 393.749 122.92 379.599 138.05L377.699 140.08L374.239 143.52C365.929 151.77 357.329 160.31 348.739 169.35C326.999 196.23 305.199 225.84 293.029 260.16C289.239 270.39 286.099 281.16 283.049 291.58L281.959 295.31C278.209 312.12 271.989 328.66 265.969 344.67C257.259 367.81 248.259 391.73 246.689 416.78L246.469 418.41C244.219 434.92 241.899 451.99 235.929 468.27C228.399 484.85 219.389 493.22 209.109 493.22H209.119ZM207.649 492.16C218.099 492.99 227.299 484.83 235.009 467.89C240.929 451.75 243.239 434.73 245.479 418.28L245.699 416.68C247.279 391.52 256.309 367.53 265.039 344.32C271.049 328.35 277.259 311.84 280.999 295.07L282.099 291.31C285.149 280.88 288.299 270.09 292.099 259.83C304.319 225.37 326.179 195.67 347.989 168.72L348.019 168.69C356.629 159.63 365.229 151.09 373.549 142.83L376.999 139.41L378.879 137.39C392.829 122.46 411.939 102.01 402.469 80.9398C385.629 42.4398 351.359 10.6998 310.809 -3.98021C275.029 -16.9402 237.649 -15.2402 205.559 0.809764C174.839 16.1698 147.589 39.2597 122.229 71.4197C106.429 95.0497 94.0389 116.42 84.3789 136.73C59.2289 189.61 51.4789 237.72 60.6989 283.82C70.9789 335.89 105.869 460.41 207.659 492.18L207.649 492.16Z" fill="white"/>
<path d="M204.94 530.55C201.2 530.55 197.43 530.22 193.66 529.56C179.62 527.1 166.92 520.25 156.94 509.74C108.71 461.47 75.6903 417.44 53.0603 371.18C44.5103 354.5 34.9303 338.15 25.6503 322.34C9.57034 294.93 -7.04966 266.58 -18.4097 236.06C-20.2797 231.3 -22.3497 226.35 -24.3597 221.55C-35.9197 193.95 -47.8597 165.42 -37.3797 139.69C-32.2497 127.24 -19.7797 123.81 -6.56969 120.17C0.540306 118.21 7.89032 116.19 14.1903 112.65C45.2503 95.9198 65.5103 66.3997 79.6803 42.5497C81.7303 39.1997 83.7603 35.8397 85.7903 32.4797C90.5703 24.5797 95.5103 16.4197 100.63 8.45975C109.07 -4.70026 116.68 -15.1903 124.59 -24.5403C155.08 -60.7303 202.74 -77.0503 248.97 -67.1503C354.69 -43.1203 439.72 11.3797 494.87 90.4597C499.94 97.6998 501.62 105.71 499.86 114.25C496.56 130.28 482.06 144.25 469.59 151.96C459.09 158.66 447.99 165.32 436.23 172.38C432.25 174.77 428.24 177.18 424.22 179.6C386.12 207.86 333.42 252.94 315.62 317.86C311.11 330.12 306.16 343.17 300.03 358.99C295.97 369.47 291.78 380.15 287.72 390.48L283.93 400.15C278.37 414.06 276.1 428.5 273.91 442.47C271.71 456.49 269.44 470.99 263.83 485C256.82 504.63 246.97 517.49 234.55 523.22C225.28 528.06 215.2 530.52 204.93 530.52L204.94 530.55ZM222.13 -68.9803C185.25 -68.9803 149.76 -52.8403 125.36 -23.8803C117.48 -14.5603 109.89 -4.11025 101.48 9.01974C96.3603 16.9697 91.4203 25.1197 86.6503 33.0097C84.6203 36.3697 82.5903 39.7297 80.5403 43.0697C66.3003 67.0297 45.9503 96.6898 14.6803 113.53C8.2803 117.13 0.870323 119.17 -6.29967 121.14C-19.2597 124.7 -31.4997 128.07 -36.4397 140.07C-46.7697 165.42 -34.8997 193.76 -23.4197 221.17C-21.4097 225.97 -19.3297 230.93 -17.4597 235.71C-6.12971 266.16 10.4703 294.47 26.5303 321.84C35.8103 337.66 45.4003 354.02 53.9703 370.74C76.5603 416.9 109.51 460.85 157.67 509.05C167.51 519.41 180.02 526.16 193.85 528.58C207.73 531.01 221.66 528.86 234.14 522.35C246.33 516.73 256 504.05 262.93 484.67C268.5 470.75 270.76 456.31 272.95 442.34C275.15 428.32 277.42 413.82 283.03 399.81L286.82 390.14C290.87 379.81 295.06 369.13 299.13 358.65C305.26 342.84 310.21 329.79 314.7 317.58C332.57 252.39 385.45 207.16 423.67 178.81L423.71 178.78C427.73 176.35 431.75 173.94 435.74 171.54C447.49 164.49 458.59 157.83 469.08 151.13C481.38 143.52 495.67 129.78 498.9 114.06C500.6 105.8 498.97 98.0497 494.07 91.0397C439.07 12.1697 354.24 -42.1903 248.77 -66.1602C239.91 -68.0602 230.98 -68.9903 222.15 -68.9903L222.13 -68.9803Z" fill="white"/>
<path d="M200.041 560.85C195.141 560.85 190.221 560.48 185.321 559.74C168.571 557.21 153.041 550.54 139.161 539.93C92.4212 499.16 60.4113 447.82 26.5213 393.46C22.3713 386.81 18.2113 380.13 14.0113 373.46C7.94126 363.75 0.801247 354.16 -9.12875 342.38C-13.6488 337.02 -18.3187 331.71 -22.8287 326.58C-26.5487 322.35 -30.3887 317.98 -34.0887 313.66C-88.5987 252.47 -98.2188 165.31 -100.719 105.08C-100.299 92.4901 -98.8887 80.5301 -96.5187 69.5101C-93.9887 57.6301 -90.2388 46.3001 -85.3788 35.8601C-83.9888 32.3801 -76.6988 32.1301 -67.4788 31.8001C-61.1588 31.5801 -53.9888 31.3201 -48.4188 29.8401C-36.0588 26.8701 -24.0187 22.2401 -11.6087 15.7001C20.7713 -1.36987 49.4112 -28.5999 77.1012 -54.9299C89.3212 -66.5399 101.951 -78.5499 114.571 -89.3399C123.781 -97.1099 134.021 -103.33 145.011 -107.83C155.531 -112.02 166.861 -114.73 178.681 -115.88C298.821 -112.26 396.321 -38.0499 490.621 33.7201L492.841 35.4101C505.541 45.0701 518.671 55.0701 531.601 64.7001C543.921 73.6601 553.541 86.4001 558.681 100.58C574.461 136.99 548.901 171.82 516.831 186.08C504.381 192.36 491.421 198.36 481.531 202.88C468.431 208.84 455.941 215.66 444.411 223.15C406.391 247.85 378.761 279.27 362.291 316.55C356.451 329.89 350.611 343.11 344.791 356.29L344.091 357.88C326.331 398.1 307.971 439.69 296.241 484.96C289.881 510.02 274.781 531.33 253.741 544.95C237.621 555.39 218.971 560.85 200.041 560.85ZM178.721 -114.9C167.051 -113.76 155.821 -111.07 145.391 -106.92C134.511 -102.46 124.361 -96.2899 115.231 -88.5899C102.631 -77.8199 90.0112 -65.8198 77.8012 -54.2198C50.0612 -27.8399 21.3712 -0.56987 -11.1288 16.5701C-23.6188 23.1501 -35.7288 27.8101 -48.1588 30.8001C-53.8288 32.3101 -61.0587 32.5701 -67.4287 32.7901C-75.5887 33.0801 -83.2888 33.3501 -84.4488 36.2501C-89.2888 46.6601 -93.0187 57.9101 -95.5287 69.7201C-97.8887 80.6901 -99.2887 92.5901 -99.7087 105.08C-97.2187 165.13 -87.6287 252.05 -33.3287 313.01C-29.6287 317.34 -25.7887 321.71 -22.0787 325.93C-17.5587 331.07 -12.8787 336.39 -8.35873 341.75C1.61127 353.57 8.77124 363.19 14.8612 372.94C19.0612 379.61 23.2212 386.29 27.3712 392.94C61.2213 447.23 93.1912 498.51 139.791 539.16C153.511 549.65 168.881 556.25 185.461 558.75C235.421 566.3 282.621 534.47 295.261 484.71C307.021 439.36 325.401 397.73 343.171 357.47L343.871 355.88C349.691 342.7 355.521 329.48 361.371 316.14C377.931 278.68 405.681 247.11 443.871 222.3C455.441 214.78 467.971 207.94 481.121 201.96C491.001 197.44 503.951 191.44 516.411 185.16C548.061 171.08 573.291 136.78 557.761 100.93C552.671 86.9101 543.181 74.3401 531.011 65.4901C518.071 55.8501 504.941 45.8501 492.241 36.1901L490.021 34.5001C395.851 -37.1699 298.481 -111.29 178.721 -114.9Z" fill="white"/>
<path d="M188.391 585.9C186.701 585.9 185.011 585.87 183.321 585.82C157.611 585.06 133.241 578.58 112.841 567.09C98.4313 559 86.5413 548.69 77.5013 536.45L77.4413 536.35C58.8513 493.65 32.6313 454.15 -7.59865 408.28C-17.6686 396.8 -28.7687 384.71 -42.5487 370.24C-53.7087 357.76 -66.0087 346.79 -77.9087 336.18C-93.6287 322.15 -109.889 307.65 -123.289 289.78C-144.309 261.49 -138.499 227.6 -132.889 194.83C-130.719 182.18 -128.479 169.09 -127.859 156.61C-125.429 114.09 -135.259 78.4105 -157.909 47.5305C-165.229 36.0205 -162.019 22.8204 -158.919 10.0504C-158.649 8.96042 -158.389 7.87041 -158.129 6.79041C-152.369 -9.3696 -140.549 -24.0296 -126.499 -32.4596C-99.3287 -48.2496 -71.1587 -58.7996 -43.9187 -69.0096C-23.1687 -76.7796 -1.71864 -84.8096 18.6514 -94.9996C35.3114 -103.33 49.1613 -113.67 63.8313 -124.61C72.5013 -131.08 81.4713 -137.77 91.1613 -144.09C105.071 -153.54 119.701 -160 134.631 -163.28C148.231 -166.27 162.631 -166.73 177.431 -164.65C204.291 -161.91 228.281 -149.94 250.211 -137.4C279.351 -121.17 307.791 -104.39 335.291 -88.1696C381.191 -61.0996 428.641 -33.1096 479.041 -7.91956C490.381 -2.10956 501.051 4.0704 510.751 10.4204C521.261 17.3104 531.071 24.7004 539.881 32.3804C549.621 41.2804 557.861 49.6904 565.071 58.0704C573.591 67.9804 580.691 77.9104 586.171 87.5804C598.101 105.12 601.981 126.77 597.071 148.49C591.671 172.4 575.871 194.02 554.811 206.33C546.271 211.96 537.901 217.07 529.241 221.94L529.191 221.96L525.801 223.42C501.241 233.98 475.851 244.91 454.481 261.57C443.111 270.13 433.041 279.7 424.561 290.04C415.551 301.01 408.161 313.04 402.601 325.78L401.211 329.31C395.391 344.03 389.371 359.26 383.011 373.66C374.001 391.19 365.951 410.65 358.171 429.47C334.791 486.03 310.611 544.52 254.641 571.25C235.081 580.87 212.271 585.9 188.371 585.9H188.391ZM78.3414 535.9C87.2914 548.01 99.0613 558.21 113.331 566.22C154.951 589.67 211.581 591.33 254.231 570.35C309.861 543.78 333.961 485.47 357.271 429.09C365.061 410.25 373.111 390.77 382.131 373.23C388.471 358.88 394.481 343.66 400.301 328.94L401.701 325.4C407.311 312.55 414.751 300.45 423.811 289.41C432.351 279.01 442.471 269.38 453.901 260.78C475.361 244.05 500.811 233.1 525.431 222.51L528.801 221.06C537.421 216.21 545.771 211.12 554.311 205.49C575.151 193.3 590.771 171.92 596.121 148.28C600.971 126.83 597.141 105.47 585.351 88.1204C579.881 78.4704 572.821 68.6004 564.341 58.7304C557.161 50.3804 548.951 42.0004 539.251 33.1304C530.481 25.4904 520.711 18.1304 510.231 11.2604C500.561 4.92044 489.921 -1.2296 478.621 -7.0296C428.201 -32.2396 380.731 -60.2396 334.821 -87.3196C307.321 -103.54 278.891 -120.31 249.761 -136.54C227.921 -149.02 204.041 -160.94 177.351 -163.66C162.661 -165.72 148.381 -165.27 134.891 -162.3C120.091 -159.05 105.581 -152.64 91.7613 -143.25C82.0913 -136.94 73.1313 -130.26 64.4713 -123.8C49.7613 -112.83 35.8713 -102.47 19.1413 -94.0995C-1.27866 -83.8895 -22.7587 -75.8496 -43.5287 -68.0696C-70.7387 -57.8796 -98.8687 -47.3495 -125.959 -31.5995C-139.809 -23.2896 -151.469 -8.82956 -157.139 7.07043C-157.379 8.10043 -157.649 9.19046 -157.909 10.2805C-160.969 22.8505 -164.119 35.8405 -157.049 46.9604C-134.279 78.0105 -124.389 113.9 -126.829 156.66C-127.459 169.2 -129.699 182.32 -131.879 195C-137.459 227.56 -143.229 261.23 -122.469 289.18C-109.129 306.97 -92.9087 321.44 -77.2187 335.43C-65.2987 346.06 -52.9787 357.05 -41.7887 369.56C-28.0187 384.02 -16.9087 396.12 -6.82869 407.61C33.4513 453.54 59.7213 493.11 78.3513 535.89L78.3414 535.9Z" fill="white"/>
<path d="M191.86 613.26C160.09 613.26 127.56 605.66 97.0499 591.03C83.4999 584.53 70.6299 576.73 58.7799 567.85C29.1499 542.17 9.29994 510.67 -11.7201 477.32C-17.2901 468.49 -23.0401 459.35 -28.9301 450.45C-39.6101 434.31 -49.0101 421.57 -58.5101 410.36C-68.3501 399.43 -78.5301 388.11 -91.8401 381.46C-126.55 362.69 -152.43 337.52 -166.72 308.67C-182.1 277.62 -184.41 242.94 -173.59 205.6C-159.9 157.67 -171.93 109.56 -211.47 54.2097C-217.9 45.0297 -218.53 30.9297 -213.36 12.2997C-210.69 1.55966 -205.93 -9.69032 -199.22 -21.1303C-181.04 -52.2303 -148.53 -83.8503 -116.42 -101.69C-90.2101 -116.73 -64.1301 -131.14 -38.9001 -145.09C1.17992 -167.24 42.6299 -190.15 84.5099 -215.55C127.95 -241.86 165.79 -223.1 193.9 -203.81C205.66 -195.74 217.11 -186.49 227.73 -177.7C296.42 -120.05 373.6 -79.7903 460.08 -36.8003C465.87 -33.9203 471.67 -31.0503 477.47 -28.1703C488.05 -22.9203 498.64 -17.6803 509.22 -12.3903C532.03 -0.200333 553.61 15.5697 571.65 33.2297C581.41 42.7897 590.09 52.8497 597.43 63.1297C632.58 104.51 634.32 162.85 601.52 201.82C592.85 211.78 584.13 219.93 574.05 227.45L574.01 227.48C561.52 235.01 548.33 242.08 535.57 248.93C504.93 265.36 473.25 282.35 448.4 307.12C437.01 319.74 429.11 333.89 424.28 350.35C418.22 366.54 413.46 383.09 409.1 398.64L407.4 404.74C403.46 418.87 399.38 433.48 394.49 448.14C378.66 499.01 341.07 538.4 302.81 573.38C276.27 596.83 242.16 610.48 204.18 612.86C200.1 613.12 196 613.24 191.89 613.24L191.86 613.26ZM128.29 -227.49C114.67 -227.49 100.18 -223.87 85.0099 -214.68C43.1099 -189.27 1.65991 -166.35 -38.4301 -144.2C-63.6501 -130.26 -89.7401 -115.84 -115.94 -100.81C-147.91 -83.0503 -180.27 -51.5703 -198.37 -20.6103C-205.03 -9.25031 -209.75 1.90968 -212.41 12.5697C-217.5 30.9097 -216.92 44.7197 -210.67 53.6397C-170.94 109.26 -158.86 157.64 -172.64 205.89C-193.46 277.71 -163.84 341.38 -91.3901 380.58C-77.9201 387.31 -67.6801 398.7 -57.7701 409.71C-48.2301 420.97 -38.8001 433.74 -28.1001 449.91C-22.2001 458.82 -16.4501 467.96 -10.8801 476.8C10.0999 510.08 29.9099 541.52 59.3999 567.08C71.1599 575.9 83.9799 583.67 97.4699 590.13C170.25 625.04 250.57 618.18 302.1 572.66C340.25 537.78 377.73 498.51 393.49 447.86C398.37 433.21 402.45 418.61 406.39 404.49L408.09 398.39C412.46 382.81 417.22 366.24 423.28 350.05C428.14 333.47 436.11 319.2 447.62 306.44C472.59 281.55 504.34 264.53 535.04 248.06C547.78 241.23 560.96 234.16 573.42 226.65C583.43 219.17 592.1 211.08 600.71 201.18C633.18 162.59 631.45 104.79 596.59 63.7497C589.26 53.4797 580.62 43.4597 570.9 33.9497C552.93 16.3597 531.42 0.639679 508.71 -11.5003C498.15 -16.7803 487.56 -22.0303 476.98 -27.2703C471.18 -30.1503 465.38 -33.0203 459.59 -35.9003C373.05 -78.9103 295.82 -119.21 227.05 -176.92C216.45 -185.7 205.03 -194.93 193.3 -202.98C175.28 -215.34 153.22 -227.49 128.27 -227.49H128.29Z" fill="white"/>
<path d="M183.21 638.29C146.94 638.29 110.34 631.1 75.5502 616.64C60.8702 610.54 46.6002 603.15 33.1402 594.67C17.4302 583.92 2.84024 570.56 -10.2498 554.93C-32.8698 524.13 -58.3598 495.38 -88.1698 466.99C-97.7598 457.88 -107.6 449.01 -117.41 440.63C-139.76 420.53 -165.73 406.57 -193.23 391.79L-197.92 389.27C-207.84 383.76 -239.64 363.34 -232.78 331.79C-232.04 327.97 -231.28 324.14 -230.53 320.29C-216.54 249.15 -202.08 175.6 -252.78 111.17C-269.62 89.0199 -260.14 56.2699 -250.97 24.6099C-248.47 15.9799 -246.11 7.81995 -244.27 -0.100067C-240.09 -13.4801 -234.62 -26.4101 -228 -38.5501C-214.3 -63.6901 -195.94 -85.2901 -173.43 -102.75C-153.26 -118.08 -133.2 -133.12 -113.8 -147.66C-51.4098 -194.43 7.53021 -238.6 67.6802 -290.28C85.1002 -305.71 106.45 -308.46 131.13 -298.46C153.68 -289.32 175.54 -270.94 190.02 -257.9C202.8 -246.03 214.75 -233.7 223.74 -224.29C228.07 -219.77 232.37 -215.24 236.67 -210.71C243.22 -203.81 250 -196.67 256.79 -189.69C313.78 -127.4 385.98 -92.0201 462.41 -54.5701C479.89 -46.0101 497.96 -37.1501 515.64 -28.0301C530.32 -20.4401 543.27 -13.4101 555.22 -6.52011C567.92 0.819885 579.94 9.74991 590.94 19.9999C601.82 30.1399 611.61 41.4799 620.03 53.7099C636.5 74.7899 647.12 100.39 649.93 125.79C653.01 153.59 646.72 179.53 631.75 200.81C626.47 208.46 619.98 216.07 612.48 223.43L612.44 223.47C594.37 237.73 573.64 248.99 553.6 259.88C521.24 277.46 487.78 295.63 465.6 326.7C455.72 340.16 449.13 355.58 446.02 372.53C444.27 389.27 441.72 405.55 438.45 420.87C419.06 511.65 373.37 575.39 302.65 610.34C265.42 628.95 224.52 638.31 183.19 638.31L183.21 638.29ZM103.67 -303.34C90.5502 -303.34 78.7302 -298.73 68.3502 -289.53C8.16019 -237.82 -50.7798 -193.64 -113.19 -146.86C-132.59 -132.32 -152.64 -117.29 -172.81 -101.96C-195.2 -84.5901 -213.48 -63.1001 -227.11 -38.0801C-233.7 -25.9901 -239.14 -13.1301 -243.29 0.159882C-245.12 8.0799 -247.49 16.2399 -249.99 24.8899C-259.09 56.3199 -268.5 88.8099 -251.97 110.56C-200.99 175.35 -215.5 249.13 -229.53 320.49C-230.29 324.33 -231.04 328.17 -231.78 332C-238.5 362.89 -207.18 382.98 -197.42 388.4L-192.74 390.92C-165.19 405.73 -139.17 419.72 -116.74 439.88C-106.93 448.26 -97.0798 457.14 -87.4698 466.27C-57.6098 494.69 -32.0998 523.49 -9.45979 554.31C3.5502 569.84 18.0802 583.14 33.6902 593.83C47.0902 602.27 61.3002 609.64 75.9302 615.71C150.11 646.53 232.59 644.24 302.22 609.42C372.65 574.62 418.16 511.1 437.48 420.64C440.74 405.35 443.29 389.11 445.04 372.37C448.19 355.24 454.83 339.68 464.8 326.1C487.12 294.86 520.68 276.63 553.14 258.99C573.14 248.13 593.81 236.89 611.82 222.69C619.27 215.39 625.71 207.83 630.95 200.23C664.26 152.89 648.23 91.3899 619.24 54.2899C610.84 42.0999 601.1 30.8099 590.27 20.7199C579.32 10.5199 567.36 1.63992 554.73 -5.67007C542.79 -12.5501 529.86 -19.5801 515.19 -27.1601C497.52 -36.2701 479.45 -45.1301 461.98 -53.6901C385.46 -91.1901 313.18 -126.6 256.07 -189.02C249.28 -195.99 242.5 -203.14 235.95 -210.04C231.65 -214.57 227.35 -219.1 223.02 -223.61C214.04 -233.01 202.11 -245.32 189.35 -257.17C174.93 -270.15 153.16 -288.46 130.75 -297.54C121.2 -301.41 112.16 -303.34 103.66 -303.34H103.67Z" fill="white"/>
<path d="M177.589 673C126.429 673 75.3689 661.05 29.5589 636.18C15.1489 628.36 1.31888 619.26 -11.5511 609.14C-25.5611 598.45 -38.5611 586.4 -50.1811 573.32C-70.9011 543.93 -97.1211 518.98 -130.351 496.97C-140.481 490.27 -151.191 483.92 -162.201 478.08C-166.441 476.53 -169.991 474.52 -173.741 472.4C-176.741 470.7 -179.841 468.94 -183.361 467.43C-195.621 462.63 -208.771 458.8 -222.691 454.75C-266.311 442.05 -311.431 428.92 -327.641 384.53C-339.321 353.15 -319.391 326.48 -300.111 300.68C-289.631 286.65 -278.791 272.15 -272.931 256.91C-269.861 247.71 -267.201 236.27 -273.931 229.53C-321.151 181.45 -307.211 122.82 -293.731 66.1097C-289.701 49.1497 -285.531 31.6097 -283.231 14.9397C-280.151 -3.76031 -274.871 -20.7903 -267.101 -37.1303C-239.091 -96.2003 -182.151 -135.08 -127.091 -172.69C-109.031 -185.02 -90.3611 -197.77 -72.9311 -211.07C-52.3111 -225.96 -37.1011 -242.58 -25.0611 -263.39C-21.0611 -270.7 -17.1111 -278.35 -13.3011 -285.75C7.56888 -326.23 29.1589 -368.1 74.5589 -384.18C93.5289 -389.6 113.139 -388.44 131.299 -380.82C148.909 -373.44 163.849 -360.62 174.499 -343.76C179.199 -335.44 183.959 -326.88 188.559 -318.6C191.129 -313.98 193.699 -309.35 196.289 -304.71C202.789 -293.07 210.539 -279.31 218.769 -265.56C226.519 -252.05 234.499 -239.35 242.509 -227.79C251.779 -214.55 260.999 -202.81 270.709 -191.88C321.319 -135.4 387.799 -106.76 458.179 -76.4303C468.589 -71.9503 479.349 -67.3103 489.929 -62.6303C505.339 -55.8103 517.949 -49.9503 529.609 -44.2103C561.859 -30.8603 592.409 -10.0003 617.929 16.0997C630.819 29.2897 642.129 43.5097 651.519 58.3797C665.189 78.0897 674.449 100.6 677.599 121.74C681.289 146.55 676.569 169.28 663.939 187.48C658.229 197.35 651.719 206.86 644.599 215.72C637.049 224.57 629.739 230.96 621.279 238.36L619.859 239.6C605.369 249.99 588.899 259.39 572.979 268.47C523.489 296.7 472.309 325.9 471.219 389.2V389.3C468.139 403.15 466.199 417.29 464.249 434.26C463.919 437.17 463.589 440.08 463.259 442.99C458.539 484.96 453.649 528.35 424.549 562.17C362.309 634.13 269.839 672.98 177.629 672.98L177.589 673ZM98.2389 -386.51C90.4289 -386.51 82.5888 -385.41 74.8488 -383.2C29.8488 -367.26 8.35889 -325.58 -12.4211 -285.27C-16.2411 -277.87 -20.1911 -270.21 -24.2011 -262.88C-36.3211 -241.94 -51.6211 -225.22 -72.3511 -210.25C-89.7911 -196.94 -108.471 -184.18 -126.541 -171.84C-181.491 -134.31 -238.311 -95.5103 -266.211 -36.6803C-273.941 -20.4203 -279.191 -3.48032 -282.261 15.1097C-284.561 31.8097 -288.731 49.3697 -292.771 66.3597C-306.191 122.8 -320.061 181.16 -273.231 228.84C-266.111 235.96 -268.831 247.76 -272.001 257.26C-277.921 272.65 -288.801 287.21 -299.321 301.29C-319.311 328.05 -338.201 353.32 -326.711 384.19C-310.671 428.1 -265.801 441.16 -222.421 453.8C-208.481 457.86 -195.311 461.69 -182.991 466.51C-179.411 468.05 -176.281 469.82 -173.261 471.53C-169.541 473.64 -166.031 475.63 -161.801 477.17C-150.701 483.05 -139.961 489.42 -129.811 496.13C-96.4711 518.2 -70.1711 543.25 -49.4111 572.69C-37.8711 585.68 -24.9211 597.69 -10.9511 608.34C1.87885 618.43 15.6589 627.49 30.0189 635.29C158.009 704.78 327.279 673.07 423.739 561.53C452.639 527.94 457.509 484.7 462.219 442.89C462.549 439.98 462.879 437.07 463.209 434.16C465.169 417.18 467.099 403.02 470.179 389.14C471.299 325.3 522.719 295.97 572.439 267.61C588.339 258.54 604.779 249.16 619.189 238.83L620.569 237.62C628.999 230.25 636.289 223.88 643.789 215.1C650.879 206.28 657.359 196.82 663.059 186.96C691.259 146.34 673.999 92.6197 650.649 58.9397C641.279 44.1197 630.019 29.9497 617.169 16.8097C591.749 -9.19031 561.319 -29.9703 529.159 -43.2803C517.479 -49.0303 504.879 -54.8803 489.479 -61.7003C478.909 -66.3803 468.149 -71.0203 457.739 -75.5003C387.249 -105.87 320.679 -134.56 269.919 -191.2C260.179 -202.16 250.929 -213.93 241.639 -227.2C233.619 -238.79 225.619 -251.52 217.859 -265.04C209.619 -278.79 201.869 -292.56 195.359 -304.21C192.769 -308.85 190.199 -313.48 187.629 -318.1C183.029 -326.38 178.279 -334.94 173.589 -343.23C163.059 -359.89 148.279 -372.57 130.859 -379.88C120.329 -384.3 109.299 -386.52 98.1989 -386.52L98.2389 -386.51Z" fill="white"/>
<path d="M165.818 707.74C92.7181 707.74 26.0781 688.07 -28.6319 650.08C-43.2819 639.91 -57.2119 628.36 -71.2319 614.78C-83.1919 602.56 -96.2419 590.86 -111.112 579.02C-120.002 572.19 -128.802 565.61 -138.752 560.08C-152.552 552.98 -167.042 546.56 -178.122 541.76C-183.962 539.23 -189.852 536.73 -195.742 534.23C-203.342 531 -211.202 527.66 -218.882 524.29C-224.942 521.54 -231.022 518.83 -237.112 516.11C-294.612 490.44 -354.062 463.9 -394.562 409.23C-409.652 388.41 -414.892 363.57 -409.722 337.39C-405.232 314.69 -393.092 292.05 -375.472 273.48C-382.082 274.38 -388.882 272.62 -393.152 268.82C-396.762 265.6 -398.442 261.15 -398.012 255.95C-395.672 244.24 -392.192 233.01 -387.922 223.41C-383.472 213.35 -378.812 203.17 -374.322 193.33C-348.482 136.79 -321.772 78.3202 -319.872 13.7302C-319.872 4.3302 -319.152 -7.90979 -313.512 -19.1798C-309.012 -33.8298 -302.432 -48.1698 -293.982 -61.7298C-277.742 -87.7898 -254.832 -110.99 -225.882 -130.67C-134.342 -193.08 -44.3918 -266.81 -6.35184 -382.72L-6.31186 -382.82C1.20813 -395.78 8.86813 -406.81 17.1281 -416.57C36.8981 -439.93 58.9781 -454.52 84.6181 -461.19C106.228 -466.46 128.268 -463.31 148.338 -452.07C166.538 -441.89 182.558 -425.21 193.468 -405.12C200.488 -391.58 207.498 -376.37 215.558 -357.26C220.108 -346.47 224.588 -335.38 228.928 -324.67C231.178 -319.1 233.438 -313.52 235.708 -307.97C241.348 -293.86 246.158 -282.42 250.848 -271.97C256.698 -258.96 262.368 -247.46 268.208 -236.83C296.648 -183.18 342.568 -141.53 397.508 -119.56C418.998 -110.96 441.078 -103.51 462.438 -96.2998C474.328 -92.2898 486.628 -88.1398 498.658 -83.8398C511.188 -79.3698 522.138 -75.1998 532.138 -71.0998C572.078 -55.1098 611.298 -29.4698 642.568 1.1102C653.608 11.9002 663.588 23.2502 672.248 34.8502C691.248 59.4902 731.598 122.42 695.938 174.21C689.228 183.83 681.778 193.64 674.708 202.81C653.128 236.94 620.258 256.13 585.448 276.44C571.648 284.49 557.388 292.82 543.838 302.17C500.408 333.33 497.138 383.78 493.968 432.57C493.408 441.26 492.868 449.47 492.108 457.64L491.888 461.04C490.998 474.55 490.078 488.52 488.528 502.36C483.878 543.92 473.548 590.43 432.218 620.33C365.118 668.76 283.268 699.26 201.718 706.2C189.598 707.23 177.608 707.75 165.798 707.75L165.818 707.74ZM-372.582 271.93L-373.702 273.08C-407.392 307.85 -426.652 363.25 -393.752 408.63C-353.412 463.09 -294.082 489.58 -236.702 515.19C-230.612 517.91 -224.532 520.62 -218.472 523.37C-210.802 526.73 -202.952 530.07 -195.352 533.3C-189.462 535.81 -183.572 538.31 -177.732 540.84C-166.642 545.64 -152.132 552.07 -138.282 559.19C-128.262 564.76 -119.422 571.37 -110.492 578.23C-95.5718 590.11 -82.5019 601.83 -70.5219 614.07C-56.5619 627.61 -42.6619 639.12 -28.0619 649.26C26.8281 687.38 95.5081 706.11 167.378 706.11C257.318 706.11 352.278 676.81 431.658 619.51C472.678 589.84 482.938 543.58 487.568 502.24C489.118 488.42 490.038 474.46 490.928 460.97L491.158 457.55C491.918 449.39 492.448 441.18 493.018 432.5C496.198 383.48 499.488 332.79 543.308 301.35C556.898 291.97 571.178 283.63 584.988 275.57C619.688 255.31 652.468 236.18 673.918 202.25L673.948 202.21C681.008 193.04 688.458 183.24 695.158 173.63C730.448 122.38 690.368 59.9202 671.488 35.4402C662.858 23.8802 652.898 12.5602 641.898 1.81021C610.718 -28.6698 571.618 -54.2398 531.788 -70.1798C521.798 -74.2798 510.858 -78.4398 498.348 -82.9098C486.318 -87.1998 474.028 -91.3498 462.138 -95.3598C440.768 -102.57 418.678 -110.03 397.158 -118.64C341.998 -140.7 295.898 -182.51 267.348 -236.37C261.508 -247.02 255.818 -258.53 249.958 -271.57C245.258 -282.03 240.438 -293.48 234.798 -307.6C232.528 -313.16 230.268 -318.73 228.018 -324.3C223.688 -335.01 219.208 -346.09 214.658 -356.88C206.618 -375.96 199.608 -391.15 192.608 -404.66C174.518 -437.99 135.438 -472.55 84.8882 -460.22C59.4582 -453.61 37.5581 -439.12 17.9181 -415.92C9.70813 -406.23 2.08813 -395.25 -5.39188 -382.36C-22.4519 -330.41 -50.8619 -283.62 -92.2519 -239.32C-125.652 -203.57 -166.682 -169.81 -225.292 -129.84C-254.132 -110.23 -276.942 -87.1398 -293.112 -61.1898C-301.512 -47.6998 -308.062 -33.4398 -312.572 -18.7998C-318.142 -7.63977 -318.852 4.46024 -318.852 13.7602C-320.762 78.5702 -347.512 137.13 -373.392 193.76C-377.892 203.6 -382.542 213.77 -386.992 223.83C-391.222 233.36 -394.692 244.52 -397.002 256.1C-397.402 260.91 -395.832 265.08 -392.462 268.08C-388.102 271.97 -380.912 273.61 -374.142 272.26L-372.572 271.95L-372.582 271.93Z" fill="white"/>
<path d="M178.891 743.2C154.101 743.2 128.631 741.72 102.571 738.74C56.841 733.51 -9.789 719.69 -67.459 683.55C-80.129 675.61 -92.049 666.76 -102.879 657.25C-113.719 647.49 -125.819 638.82 -139.869 630.74C-151.679 623.95 -165.099 617.49 -180.869 611C-202.259 601.3 -225.609 596.09 -248.199 591.05C-263.619 587.61 -279.569 584.05 -294.939 579.08C-313.619 573.4 -330.159 565.36 -344.109 555.2C-385.139 519.76 -418.119 474.21 -437.019 426.92C-458.719 372.61 -460.649 318.84 -442.619 271.43C-434.999 251.91 -424.609 233.77 -414.559 216.22C-401.089 192.7 -387.159 168.38 -380.119 140.87C-373.649 116.86 -369.439 92.5599 -365.349 69.0699C-359.379 34.6899 -353.739 2.2099 -341.659 -29.7701C-335.809 -43.7301 -328.359 -57.7601 -319.489 -71.5001C-273.059 -143.41 -192.199 -200.26 -135.419 -236.76C-119.529 -246.54 -109.249 -259.13 -102.059 -269.01C-85.479 -291.88 -74.359 -316.47 -63.599 -340.26C-53.039 -363.6 -43.069 -385.64 -28.349 -406.36C-22.179 -414.76 -14.839 -424.65 -7.159 -434.34C19.961 -468.95 52.7809 -506.83 99.171 -518.15C138.811 -527.66 196.111 -525.2 228.951 -502.08C244.321 -491.27 253.071 -476.99 254.961 -459.66C255.461 -454.19 255.961 -448.68 256.451 -443.13C262.051 -380.55 268.391 -309.62 293.591 -251.16C299.511 -237.67 306.011 -225.65 313.471 -214.39C355.271 -151.45 425.591 -127.57 488.221 -110.14C498.421 -107.3 508.831 -104.53 518.901 -101.86C525.801 -100.03 532.681 -98.2001 539.521 -96.3401C589.731 -85.4901 626.261 -67.3001 654.461 -39.1001C664.791 -28.9701 674.421 -18.8102 683.091 -8.90015C693.141 2.58984 702.171 14.0698 709.961 25.2198C751.191 83.5798 758.221 129.26 730.841 161.01C724.821 168.36 717.961 176.12 709.851 184.73C673.231 230.34 629.351 268.01 571.751 303.28C515.411 339.63 518.471 401.11 521.431 460.56C522.091 473.9 522.721 486.49 522.691 498.83C522.431 514.49 521.551 528.27 520.021 540.98C513.831 592.31 496.081 628.85 465.751 652.67C416.051 691.26 357.771 717.87 292.511 731.75C256.671 739.37 218.661 743.19 178.891 743.19V743.2ZM145.811 -522.35C129.381 -522.35 113.301 -520.49 99.391 -517.16C53.311 -505.92 20.621 -468.19 -6.38904 -433.7C-14.0591 -424.02 -21.389 -414.14 -27.549 -405.75C-42.209 -385.12 -52.159 -363.12 -62.699 -339.82C-73.479 -315.99 -84.619 -291.35 -101.259 -268.4C-108.499 -258.45 -118.859 -245.76 -134.889 -235.89C-191.579 -199.44 -272.329 -142.68 -318.649 -70.9401C-327.479 -57.2601 -334.909 -43.2801 -340.729 -29.3901C-352.769 2.47992 -358.399 34.9099 -364.359 69.2499C-368.439 92.7699 -372.669 117.08 -379.139 141.13C-386.209 168.76 -400.169 193.14 -413.679 216.72C-423.709 234.23 -434.079 252.34 -441.669 271.79C-480.799 374.63 -420.549 487.85 -343.479 554.42C-329.649 564.49 -313.209 572.47 -294.629 578.13C-279.299 583.09 -263.379 586.64 -247.969 590.08C-225.339 595.13 -201.929 600.35 -180.459 610.08C-164.659 616.58 -151.209 623.06 -139.359 629.87C-125.239 637.98 -113.089 646.69 -102.199 656.5C-91.409 665.97 -79.539 674.79 -66.909 682.7C-9.38904 718.75 57.071 732.53 102.711 737.75C128.421 740.68 153.551 742.14 178.001 742.14C290.241 742.14 388.451 711.47 465.161 651.89C495.261 628.24 512.891 591.92 519.051 540.86C520.581 528.19 521.451 514.44 521.711 498.82C521.741 486.52 521.121 473.94 520.451 460.61C518.991 431.28 517.481 400.95 523.431 373.34C530.171 342.04 545.811 318.84 571.251 302.43C628.761 267.22 672.571 229.61 709.111 184.09L709.141 184.06C717.231 175.46 724.091 167.71 730.101 160.37C757.151 129 750.101 83.7299 709.171 25.7899C701.411 14.6599 692.391 3.2099 682.371 -8.25012C673.721 -18.1401 664.101 -28.2901 653.791 -38.4001C625.731 -66.4601 589.351 -84.5701 539.321 -95.3801C532.451 -97.2401 525.571 -99.0701 518.681 -100.9C508.611 -103.58 498.201 -106.34 487.991 -109.18C425.181 -126.66 354.661 -150.61 312.671 -213.84C305.181 -225.14 298.651 -237.22 292.711 -250.76C267.441 -309.37 261.091 -380.38 255.491 -443.04C254.991 -448.59 254.501 -454.1 254.001 -459.56C252.141 -476.58 243.531 -490.61 228.411 -501.26C207.311 -516.11 176.001 -522.37 145.861 -522.37L145.811 -522.35Z" fill="white"/>
<path d="M172.92 787.85C154.11 787.85 135.1 787.11 115.98 785.63C50.6801 780.34 -15.1699 761.12 -79.7499 728.521C-91.7799 722.451 -104.13 715.731 -116.45 708.551C-137.21 692.971 -160.28 679.941 -187.04 668.671C-198.69 663.76 -210.99 659.2 -224.62 654.72C-243.96 648.25 -265.48 643.69 -288.27 638.85C-329.71 630.06 -372.57 620.981 -403.85 599.431C-416.74 590.551 -426.64 580.34 -434.12 568.21L-434.16 568.12C-450.26 523.641 -468.15 471.74 -476.6 418.69C-485.88 360.44 -482.07 310.81 -464.93 266.96C-429.87 175.81 -399.96 93.1105 -388.96 4.03046C-385.1 -12.4395 -379.35 -28.8495 -371.87 -44.8096C-335.4 -122.62 -262.03 -183.51 -191.09 -242.4C-176.79 -254.27 -163.28 -265.48 -149.98 -276.9C-124.19 -298.51 -109.01 -327.67 -94.3299 -355.88C-85.5099 -372.83 -76.3799 -390.36 -65.0099 -406.23C-53.8499 -423.02 -43.1399 -437.58 -32.2599 -450.72C-23.5199 -460.09 -13.0899 -471.17 -1.80988 -482.43C46.5901 -531.56 103.94 -582.61 171.98 -566.15C178.23 -564.59 184.6 -563.06 191.35 -561.45C255.35 -546.12 334.99 -527.05 354.31 -461.99L354.36 -461.81L354.28 -461.64C341.27 -433.61 300.4 -335.91 320.89 -255.34C324.48 -241.72 329.71 -229.21 336.43 -218.17C378.38 -160.38 443.7 -145.16 512.6 -133.53C517.52 -132.7 522.45 -131.89 527.39 -131.07C539.28 -129.11 551.57 -127.08 563.6 -124.83C630.37 -115.99 691.52 -75.8095 735.77 -11.7195C743.82 -0.0595703 751.25 12.3405 757.85 25.1304C760.64 32.7704 764.31 40.6904 768.19 49.0804C782.03 78.9304 797.71 112.75 773.5 139.9C767.72 148.12 760.68 156.33 752.01 164.95C749.25 170.57 744.84 174.53 740.58 178.36C739.04 179.74 737.45 181.17 735.97 182.65C734.32 183.97 732.73 185.24 731.16 186.49C721.88 193.89 713.12 200.87 703.57 209.46C690.21 221.82 676.55 233.95 663.35 245.68C631.36 274.1 601.14 300.95 573 332.22C537.8 371.33 545.65 423.801 553.23 474.531C556.41 495.781 559.69 517.76 559.68 538.25C560.01 553.171 559.05 567.781 556.84 581.681C554.52 596.25 550.81 610.141 545.82 622.96C540.55 636.5 533.77 649.03 525.68 660.21C477.31 710.45 413.52 746.51 336.03 767.431C286.04 780.931 230.5 787.82 172.94 787.82L172.92 787.85ZM-433.25 567.74C-425.85 579.73 -416.06 589.83 -403.29 598.62C-372.17 620.051 -329.41 629.12 -288.07 637.88C-265.25 642.72 -243.7 647.291 -224.31 653.781C-210.65 658.271 -198.33 662.84 -186.65 667.76C-159.82 679.061 -136.67 692.141 -115.9 707.73C-103.64 714.86 -91.3099 721.571 -79.2999 727.641C-14.8299 760.181 50.8901 779.36 116.06 784.651C286.62 797.87 435.64 752.301 524.89 659.61C532.89 648.55 539.62 636.1 544.86 622.641C549.83 609.891 553.51 596.061 555.82 581.561C558.03 567.721 558.98 553.161 558.65 538.301C558.66 517.87 555.38 495.93 552.21 474.72C544.59 423.75 536.71 371.05 572.22 331.59C600.4 300.28 630.64 273.42 662.65 244.97C675.85 233.24 689.5 221.12 702.86 208.76C712.43 200.15 721.21 193.15 730.5 185.75C732.07 184.5 733.66 183.23 735.26 181.95C736.72 180.49 738.32 179.05 739.86 177.66C744.07 173.87 748.43 169.96 751.1 164.48L751.2 164.34C759.86 155.74 766.88 147.56 772.67 139.32C796.48 112.62 780.94 79.1104 767.23 49.5404C763.33 41.1304 759.65 33.1904 756.88 25.5704C750.32 12.8704 742.91 0.510437 734.89 -11.1096C690.8 -74.9695 629.89 -114.99 563.38 -123.8C551.33 -126.06 539.05 -128.09 527.17 -130.04C522.24 -130.85 517.3 -131.67 512.38 -132.5C443.27 -144.16 377.74 -159.44 335.54 -217.57C328.74 -228.72 323.48 -241.32 319.86 -255.04C312.2 -285.17 312.29 -320.87 320.12 -361.14C328.23 -402.84 342.59 -438.89 353.23 -461.84C333.99 -526.2 254.74 -545.18 191.05 -560.43C184.3 -562.05 177.93 -563.57 171.67 -565.14C104.15 -581.47 47.0502 -530.63 -1.16986 -481.69C-12.4398 -470.44 -22.8699 -459.37 -31.5799 -450.03C-42.4099 -436.94 -53.1099 -422.41 -64.2499 -405.64C-75.5899 -389.82 -84.6999 -372.32 -93.4999 -355.4C-108.23 -327.11 -123.46 -297.85 -149.39 -276.12C-162.7 -264.69 -176.21 -253.48 -190.51 -241.61C-261.37 -182.8 -334.65 -121.98 -371.03 -44.3696C-378.48 -28.4796 -384.2 -12.1296 -388.04 4.2204C-399.04 93.3704 -428.98 176.13 -464.06 267.34C-501.41 362.91 -469.35 468.151 -433.3 567.75L-433.25 567.74Z" fill="white"/>
<path d="M175.628 838.22C140.158 838.22 104.698 835.15 69.8084 829.04C23.7084 820.97 -21.5916 807.56 -64.8116 789.18C-82.3315 781.73 -99.7616 773.35 -116.592 764.28C-161.302 735.14 -211.032 711.72 -273.132 690.55C-286.392 686.03 -300.432 681.55 -314.872 677.24C-373.442 668.38 -426.352 639.75 -456.352 600.66C-464.692 589.79 -471.342 578.07 -476.112 565.83C-478.112 555.71 -480.202 545.43 -482.222 535.48C-501.222 441.99 -520.872 345.31 -490.632 253.59C-463.732 170.43 -443.232 99.7899 -430.642 25.3898C-428.692 13.2998 -425.952 1.11981 -422.512 -10.8202C-412.862 -44.2802 -397.002 -77.9601 -375.362 -110.92C-365.482 -125.98 -354.172 -141.21 -341.772 -156.19C-304.262 -200.67 -270.932 -232.74 -233.692 -260.18C-189.852 -293.06 -153.712 -331.08 -123.222 -376.42C-118.902 -382.48 -114.542 -388.7 -110.312 -394.71C-108.042 -397.94 -105.772 -401.17 -103.492 -404.41C-91.4615 -421.47 -77.3416 -441.23 -61.8615 -459.93C-52.7915 -470.17 -44.1216 -479.35 -35.3516 -487.98C-26.0916 -497.09 -16.6815 -505.61 -7.37155 -513.3C2.28845 -519.76 12.0084 -526.54 22.2984 -533.71C25.1384 -535.69 27.9984 -537.68 30.8684 -539.68C79.8084 -575.44 140.718 -619.96 211.018 -605.22C270.438 -593.12 327.968 -579.73 378.628 -549.34C409.178 -531.09 421.678 -503.83 416.838 -466C412.628 -433.05 395.728 -396.11 380.818 -363.53C372.778 -345.96 365.188 -329.36 359.858 -314.31C355.008 -301.38 353.338 -287.37 354.888 -272.66C356.458 -258.72 360.998 -244.48 368.038 -231.46C401.138 -176.28 460.498 -162.73 519.718 -156.31C530.968 -155.09 542.398 -154.1 553.458 -153.15C557.218 -152.82 560.968 -152.5 564.708 -152.17C631.068 -147.34 698.428 -135.69 741.568 -83.7102C761.708 -59.8302 776.688 -39.6502 788.718 -20.2102C796.258 -8.0202 802.648 3.95984 807.688 15.3998C818.288 38.6398 833.048 83.5698 812.708 123.26C808.008 131.3 802.098 139.31 795.138 147.1H795.128C783.708 158.98 770.278 168.37 757.288 177.45C743.658 186.98 729.558 196.83 718.108 209.42C704.688 223.63 689.428 237.24 673.278 251.64C621.498 297.81 567.958 345.55 576.458 414.43C579.018 436.72 583.318 459.12 587.478 480.77C595.978 525.05 604.768 570.84 598.688 616.92C596.978 628.65 594.348 639.78 590.878 650.02C579.068 684.83 557.348 711.21 524.488 730.66C507.998 741.77 490.638 752.26 472.888 761.83C431.958 784.26 388.518 802.07 343.788 814.76C299.438 827.34 253.658 834.95 207.718 837.35C197.038 837.91 186.328 838.19 175.628 838.19V838.22ZM183.128 -607.1C124.828 -607.1 73.6685 -569.71 31.4484 -538.85C28.5684 -536.84 25.7084 -534.85 22.8684 -532.87C12.5784 -525.69 2.85843 -518.91 -6.77158 -512.48C-16.0116 -504.84 -25.4116 -496.34 -34.6416 -487.25C-43.3916 -478.63 -52.0515 -469.48 -61.0916 -459.26C-76.5316 -440.6 -90.6516 -420.86 -102.662 -403.82C-104.942 -400.59 -107.212 -397.35 -109.482 -394.13C-113.702 -388.12 -118.072 -381.9 -122.382 -375.85C-152.932 -330.43 -189.152 -292.33 -233.082 -259.38C-270.262 -231.99 -303.542 -199.97 -340.992 -155.55C-353.372 -140.6 -364.652 -125.4 -374.512 -110.37C-396.092 -77.4902 -411.912 -43.9001 -421.532 -10.5402C-424.972 1.35986 -427.692 13.4998 -429.642 25.5498C-442.242 100.01 -462.742 170.69 -489.662 253.89C-519.822 345.36 -500.202 441.91 -481.222 535.27C-479.202 545.22 -477.112 555.5 -475.132 565.54C-470.422 577.6 -463.822 589.24 -455.532 600.03C-425.682 638.92 -373.012 667.41 -314.622 676.24C-300.102 680.57 -286.042 685.06 -272.782 689.58C-210.602 710.77 -160.792 734.23 -116.052 763.4C-99.2816 772.44 -81.8916 780.8 -64.3916 788.24C109.888 862.35 305.558 852.4 472.438 760.95C490.158 751.4 507.498 740.93 523.978 729.82C556.648 710.48 578.218 684.28 589.958 649.7C593.408 639.52 596.028 628.44 597.728 616.78C603.788 570.87 595.008 525.16 586.518 480.96C582.358 459.29 578.058 436.87 575.488 414.55C566.918 345.16 620.658 297.24 672.628 250.9C688.768 236.51 704.008 222.92 717.398 208.74C728.908 196.07 743.058 186.19 756.738 176.63C769.688 167.58 783.078 158.22 794.428 146.42C801.339 138.68 807.208 130.73 811.858 122.77C831.998 83.4698 817.339 38.8798 806.808 15.7998C801.778 4.39978 795.418 -7.55017 787.898 -19.7002C775.898 -39.0902 760.938 -59.2402 740.838 -83.0802C697.938 -134.78 630.818 -146.36 564.668 -151.18C560.928 -151.51 557.178 -151.84 553.418 -152.16C542.358 -153.12 530.918 -154.11 519.658 -155.33C460.188 -161.78 400.548 -175.4 367.218 -230.98C360.108 -244.12 355.528 -258.5 353.948 -272.56C352.378 -287.43 354.068 -301.59 358.968 -314.66C364.308 -329.74 371.908 -346.36 379.958 -363.95C394.838 -396.47 411.708 -433.33 415.898 -466.13C420.678 -503.52 408.338 -530.46 378.158 -548.48C327.638 -578.79 270.198 -592.15 210.858 -604.24C201.468 -606.21 192.228 -607.11 183.168 -607.11L183.128 -607.1Z" fill="white"/>
<path d="M176.58 884.43C78.1 884.43 -16.8 863.65 -105.5 822.68C-119.71 816.12 -133.86 808.97 -147.57 801.42C-205.92 766.28 -266.41 739.54 -323.1 715.87C-333.58 711.5 -344.88 706.83 -359.74 700.75C-402.75 684.13 -461.67 661.37 -486.15 610.08C-493.79 594.97 -499.82 578.52 -504.07 561.19C-520.63 465.11 -530.09 381.67 -533 306.07C-531.33 287.01 -528.73 269.03 -525.04 251.06C-517.4 205.35 -504.96 159.76 -492.92 115.67C-484.13 83.4701 -475.04 50.1701 -467.76 16.7201C-463.48 -1.22992 -458.33 -19.0499 -452.45 -36.2399C-437.37 -80.3599 -417.07 -121.89 -392.11 -159.68C-366.17 -198.95 -335.03 -234.42 -299.54 -265.11C-286.08 -278.57 -271.85 -291.64 -257.27 -303.94C-243.64 -315.43 -228.78 -327.05 -211.84 -339.45C-207.9 -343 -203.9 -346.48 -200.04 -349.85C-187.98 -360.36 -176.58 -370.3 -165.68 -382.88C-115.66 -445.4 -69.39 -500.76 -9.62 -544.98C2.78003 -554.15 15.67 -562.75 28.7 -570.55C36.96 -574.9 45.21 -579.35 53.94 -584.06C59.69 -587.16 65.5 -590.3 71.37 -593.43C84.58 -600.49 100.24 -608.71 116.25 -616.2C198.2 -660.05 288.34 -639.87 349.52 -615.21C362.13 -610.17 374.96 -610.86 388.54 -611.59C398.66 -612.14 409.12 -612.7 419.75 -610.77C434.77 -608.46 446.95 -595.78 448.07 -581.29C458.39 -490.75 447.11 -404.65 414.54 -325.42C409.89 -313.94 407.11 -301.14 406.49 -288.4C405.86 -275.42 407.36 -262.83 410.97 -250.98C419.39 -223.06 438.1 -204.04 468.16 -192.85C494.61 -183.01 525.6 -180.69 555.15 -179.66C560.79 -179.46 566.36 -179.31 571.76 -179.17C577.64 -179.01 583.19 -178.86 588.6 -178.66C668.02 -181.43 729 -162.8 775 -121.69C814.66 -86.6299 845.65 -36.1999 857.9 13.2201C862.27 30.8501 864.28 48.1401 863.85 64.6101C864.58 99.4801 852.11 127.9 829.64 142.56C738.87 199.67 614.57 277.88 607.71 395.58C605.51 434.67 615.82 475.64 625.79 515.26C641.26 576.73 657.25 640.29 628.63 700.81C622.01 713.03 613.51 724.17 603.36 733.96C592.61 744.34 579.66 753.53 564.86 761.29C549.27 772.32 532.96 782.84 516.44 792.51C413.77 852.66 296.24 884.45 176.57 884.45L176.58 884.43ZM222.91 -641C187.93 -641 151.57 -633.98 116.7 -615.32C100.69 -607.83 85.04 -599.61 71.84 -592.57C65.97 -589.43 60.16 -586.3 54.41 -583.2C45.67 -578.49 37.42 -574.04 29.18 -569.69C16.2 -561.92 3.33997 -553.34 -9.03003 -544.19C-68.7 -500.04 -114.93 -444.73 -164.92 -382.25C-175.88 -369.6 -187.3 -359.65 -199.39 -349.11C-203.25 -345.74 -207.24 -342.26 -211.22 -338.69C-228.18 -326.27 -243.02 -314.67 -256.63 -303.19C-271.19 -290.91 -285.4 -277.86 -298.87 -264.39C-369.12 -203.64 -420.47 -126.78 -451.52 -35.9299C-457.39 -18.7599 -462.53 -0.96991 -466.8 16.9301C-474.08 50.4001 -483.17 83.7101 -491.97 115.93C-504 160 -516.44 205.57 -524.07 251.23V251.25C-527.76 269.19 -530.36 287.13 -532.02 306.09C-529.11 381.59 -519.65 464.98 -503.1 560.98C-498.88 578.21 -492.88 594.59 -485.26 609.64C-460.95 660.58 -402.24 683.26 -359.38 699.82C-344.5 705.91 -333.2 710.57 -322.72 714.94C-266 738.62 -205.46 765.38 -147.08 800.55C-133.41 808.07 -119.28 815.21 -105.09 821.77C-16.52 862.69 78.24 883.43 176.57 883.43C296.06 883.43 413.41 851.69 515.93 791.63C532.42 781.97 548.71 771.47 564.33 760.42C579.1 752.67 591.98 743.53 602.66 733.22C612.73 723.5 621.17 712.43 627.73 700.33C656.19 640.16 640.24 576.78 624.81 515.48C614.82 475.79 604.49 434.75 606.7 395.5C609.7 343.96 634.72 295.97 683.18 248.79C724.18 208.87 775.59 175.35 829.08 141.7C851.25 127.24 863.56 99.1301 862.83 64.5901C863.25 48.1901 861.26 30.9901 856.91 13.4401C844.7 -35.7899 813.83 -86.0299 774.31 -120.96C728.51 -161.89 667.76 -180.43 588.58 -177.68C583.13 -177.88 577.58 -178.03 571.71 -178.19C566.31 -178.33 560.74 -178.48 555.09 -178.68C525.45 -179.72 494.37 -182.04 467.79 -191.93C437.42 -203.24 418.52 -222.46 410 -250.7C406.36 -262.66 404.84 -275.37 405.48 -288.46C406.11 -301.31 408.92 -314.23 413.6 -325.81C446.1 -404.89 457.35 -490.82 447.06 -581.21C445.98 -595.27 434.16 -607.55 419.57 -609.8C409.04 -611.71 398.64 -611.15 388.57 -610.61C374.88 -609.87 361.94 -609.17 349.13 -614.3C314.19 -628.38 269.79 -641 222.89 -641H222.91Z" fill="white"/>
</g>
</svg>
