<svg width="193" height="66" viewBox="0 0 193 66" fill="none" xmlns="http://www.w3.org/2000/svg">
<path d="M192.998 42.6575C192.808 39.1637 191.235 35.5228 188.721 33.1404C182.408 27.161 172.517 30.1695 165.656 33.3376C151.201 40.0121 138.299 49.7984 123.745 56.382C110.308 62.4617 94.1221 67.0386 80.5772 58.7206C68.2419 51.1445 60.2892 36.1928 64.3056 21.6198C66.5676 13.4207 74.6558 0.632202 84.6736 2.28829C92.6017 3.60002 89.5825 14.5665 87.4251 19.4409C82.9655 29.5089 74.4373 37.924 64.7888 42.8265C51.4101 49.6262 34.4768 49.9267 20.7811 43.8721C14.989 41.3113 8.88589 37.4168 4.98033 32.22C4.20168 31.1869 1.51181 31.9602 2.49666 33.2688C14.2565 48.9093 38.0007 52.882 55.7004 48.5242C67.3094 45.666 77.7796 38.5 84.9752 28.8264C89.3763 22.9065 94.9346 13.2517 92.057 5.51595C89.2163 -2.12586 79.4016 -0.275665 74.0772 3.17739C64.6687 9.27581 59.3967 21.5321 60.4893 32.6833C61.8988 47.0998 73.5047 60.0261 87.0219 63.9675C101.758 68.2627 117.359 62.2269 130.488 55.6526C138.835 51.4732 146.852 46.6552 154.897 41.9218C162.191 37.6266 170.522 31.7536 179.324 31.813C185.366 31.8537 189.792 36.6123 190.124 42.6606C190.201 44.06 193.075 44.0443 192.998 42.6606V42.6575Z" fill="#F2581D"/>
<path d="M15.8195 33.6102C11.1299 33.4545 6.59596 32.6397 2.14144 31.1687C1.49418 30.955 -0.31938 31.074 0.0469971 32.1636C1.52471 36.5613 3.00243 40.956 4.48015 45.3538C5.35029 45.128 6.21739 44.9021 7.08754 44.6732C6.87382 44.4566 6.65705 44.2429 6.44333 44.0262C5.67089 43.2541 2.94747 43.8828 3.97943 44.9174C4.19315 45.1341 4.40992 45.3477 4.62364 45.5644C5.22205 46.1626 7.66762 46.1809 7.23103 44.8838C5.75331 40.4861 4.27559 36.0913 2.79787 31.6936C2.0987 32.0262 1.40259 32.3589 0.703428 32.6885C5.61897 34.3121 10.6475 35.2002 15.8225 35.3711C17.5689 35.4291 17.5598 33.6651 15.8225 33.6071L15.8195 33.6102Z" fill="#F2581D"/>
</svg>
