<svg width="378" height="108" viewBox="0 0 378 108" fill="none" xmlns="http://www.w3.org/2000/svg">
<path d="M285.604 104.06C285.604 104.06 286.359 104.114 286.208 104.458C286.057 104.802 285.692 104.599 285.327 104.395C284.962 104.192 285.1 104.024 285.604 104.06ZM360.483 42.0124C360.483 42.0124 361.956 42.6495 362.786 43.418C363.743 44.1955 364.473 44.6021 364.485 44.4257C364.51 44.0728 361.641 41.7403 360.307 40.9359C359.577 40.5292 359.313 40.6877 359.539 41.0585C359.64 41.4204 360.118 41.8091 360.496 41.836L360.483 42.0124ZM53.3538 89.988C53.3538 89.988 54.0586 90.7476 54.6879 90.7924C55.3172 90.8373 55.7199 90.5113 55.6192 90.1495C55.5185 89.7876 54.9144 89.3899 54.2851 89.345C53.6558 89.3002 53.2531 89.6262 53.3538 89.988ZM355.625 40.9569C355.625 40.9569 356.456 41.7254 357.073 41.9466C357.928 42.3623 358.281 42.7421 358.117 43.2624C357.954 43.7827 358.054 44.1446 358.306 44.1626C358.558 44.1805 358.835 43.8456 358.86 43.4927C358.885 43.1398 359.162 42.8049 359.413 42.8228C359.665 42.8408 359.778 43.0262 359.627 43.3701C359.476 43.714 359.564 44.2522 359.917 44.632C360.257 45.1882 360.508 45.2062 360.546 44.6769C360.571 44.324 360.345 43.9533 360.106 43.7589C359.741 43.5555 359.879 43.388 360.257 43.4149C360.634 43.4418 361.112 43.8306 361.201 44.3689C361.289 44.9072 361.654 45.1105 362.17 44.9699C362.686 44.8294 362.799 45.0147 362.648 45.3586C362.359 45.87 362.61 45.888 363 45.7385C363.529 45.4215 363.63 45.7834 363.328 46.4711C363.013 47.3354 363.126 47.5207 363.567 46.6654C363.856 46.1541 364.146 45.6428 364.171 45.29C364.196 44.9371 356.594 39.7847 355.965 39.7398C355.713 39.7219 355.701 39.8983 355.927 40.2691L355.625 40.9569ZM56.5001 90.2123C56.5001 90.2123 56.5882 90.7505 57.0916 90.7864C57.4692 90.8133 59.2311 90.939 60.7162 91.3995C62.2265 91.5071 63.4851 91.5968 63.2459 91.4024C62.7928 90.6608 56.7896 89.7009 56.5001 90.2123ZM154.158 1.41529C155.19 1.13419 155.076 0.948806 153.44 0.832183C152.433 0.760417 151.414 0.865062 151.263 1.20896C150.835 1.88778 152.471 2.0044 154.158 1.41529ZM357.979 39.8834C357.979 39.8834 356.053 38.5048 356.015 39.0341C355.99 39.3869 356.468 39.7757 357.098 39.8206C357.727 39.8654 358.104 39.8923 357.979 39.8834ZM337.351 31.1424C338.697 31.7704 339.075 31.7973 338.874 31.0736C338.672 30.3499 336.445 29.6591 336.407 30.1884C336.394 30.3649 336.872 30.7537 337.351 31.1424ZM320.738 24.6383C320.738 24.6383 322.689 25.664 324.174 26.1245C325.785 26.594 327.257 27.231 327.635 27.2579C328.012 27.2848 329.85 28.1251 331.826 28.798C333.802 29.4708 335.513 30.3021 335.627 30.4875C335.878 30.5055 336.004 30.5144 336.029 30.1615C336.054 29.8086 335.576 29.42 334.834 29.1897C334.217 28.9684 330.894 27.6675 327.572 26.3667C321.166 23.9595 319.681 23.4991 320.75 24.462L320.738 24.6383ZM82.3128 93.6482C78.2099 92.6465 64.6429 91.3247 64.8443 92.0483C64.945 92.4102 65.4358 92.6225 65.8134 92.6494C66.191 92.6763 69.9665 92.9455 74.0945 93.5944C78.2225 94.2433 82.7408 94.7427 84.251 94.8503C85.6354 94.949 86.768 95.0298 86.7932 94.6769C86.8183 94.3241 86.0758 94.0937 85.1949 94.0309C84.3139 93.9681 82.9294 93.8695 82.1869 93.6393L82.3128 93.6482ZM158.688 1.73824C160.463 1.6874 164.012 1.5857 166.416 1.57971C168.945 1.5827 171.613 1.41824 172.494 1.48104C173.375 1.54384 175.527 1.51997 177.428 1.4781C182.965 1.87282 190.441 1.69637 190.479 1.16707C190.504 0.814207 189.761 0.583875 188.868 0.697512C187.987 0.634716 185.721 0.473276 183.821 0.515146C181.933 0.380582 177.126 0.392572 173.073 0.45837C169.021 0.524168 163.445 0.658701 160.664 0.637775C157.631 0.598907 155.58 0.984763 155.554 1.33763C155.529 1.6905 156.649 1.94757 158.814 1.74721L158.688 1.73824ZM277.935 12.8981C279.206 12.8114 295.63 16.6422 300.085 18.0237C300.714 18.0686 303.294 19.1391 306.013 20.0421C316.887 23.6545 318.246 24.106 318.976 24.5127C319.467 24.725 319.731 24.5666 319.744 24.3902C319.832 23.1552 297.694 16.0798 285.498 13.2599C278.274 11.681 276.525 11.3791 276.827 12.4646C276.928 12.8264 277.419 13.0387 277.796 13.0656L277.935 12.8981ZM203.404 2.62035C215.36 3.47259 220.633 4.02576 234.288 5.88575C237.548 6.29543 242.305 6.9892 245.187 7.37197C255.218 8.61894 265.349 10.2278 267.577 10.9185C268.319 11.1488 269.087 11.0262 269.364 10.6913C269.515 10.3474 269.037 9.95866 268.03 9.88689C267.149 9.82409 265.89 9.73431 265.286 9.33659C263.675 8.8671 248.774 6.74095 240.631 5.62854C236.742 5.17401 232.363 4.50729 231.117 4.24115C225.126 3.10481 191.045 0.320754 190.995 1.02649C190.97 1.37935 195.349 2.04622 203.53 2.62932L203.404 2.62035ZM276.261 11.5375C276.261 11.5375 275.417 10.9455 274.285 10.8647C273.152 10.784 272.384 10.9066 272.485 11.2684C272.812 12.001 276.21 12.2433 276.261 11.5375ZM270.471 11.1249C270.471 11.1249 270.987 10.9843 271.025 10.455C271.063 9.9257 270.95 9.74028 270.572 9.71337C270.195 9.68646 270.056 9.85394 270.018 10.3832C269.981 10.9125 270.094 11.098 270.471 11.1249ZM87.7875 94.925C87.7875 94.925 93.1488 96.0166 113.65 97.6553C123.089 98.3281 127.872 98.669 127.91 98.1397C127.947 97.6104 121.164 96.9495 107.572 95.9807C96.3706 95.1823 87.4351 94.5453 87.7875 94.925ZM348.955 38.708C348.099 38.2924 347.47 38.2475 347.319 38.5914C347.029 39.1028 348.011 39.5274 349.03 39.4228C349.282 39.4407 349.647 39.6441 349.987 40.2003C350.453 40.7655 350.578 40.7744 350.616 40.2451C350.641 39.8923 350.667 39.5394 350.667 39.5394C350.667 39.5394 349.924 39.3091 349.194 38.9025L348.955 38.708ZM339.465 31.6477C339.465 31.6477 340.296 32.4163 341.277 32.841C342.272 33.0892 345.217 34.363 347.784 35.61C350.352 36.857 352.567 37.7242 352.818 37.7421C354.203 37.8408 348.225 34.7547 340.724 31.7374C340.107 31.5162 339.465 31.6477 339.465 31.6477ZM322.201 92.8373C320.54 93.0735 319.37 93.5221 319.47 93.8839C319.672 94.6076 319.798 94.6165 323.51 93.9945C324.92 93.7403 326.09 93.2918 326.115 92.9389C326.166 92.2332 326.166 92.2332 322.201 92.8373ZM353.234 40.7865C354.077 41.3786 354.43 41.7583 354.039 41.9078C353.788 41.8899 353.158 41.8449 352.932 41.4741C352.705 41.1033 352.101 40.7057 351.724 40.6788C351.346 40.6519 351.12 40.281 351.283 39.7607C351.749 38.5526 346.966 36.4384 346.262 37.4521C345.834 38.1309 345.33 38.0951 343.87 37.2817C342.889 36.857 342.184 36.0975 342.222 35.5682C342.247 35.2154 341.781 34.6501 341.038 34.4199C340.296 34.1896 339.704 33.6155 339.717 33.4391C339.73 33.2627 339.994 33.1041 340.233 33.2985C340.485 33.3164 343.304 34.5813 346.488 36.0496C352.756 38.6243 353.108 39.0042 352.315 39.4797C351.912 39.8056 352.265 40.1854 353.234 40.7865ZM345.569 36.5161C345.569 36.5161 344.927 36.6477 345.292 36.8511C345.544 36.869 346.048 36.9049 346.173 36.9139C346.312 36.7464 346.073 36.552 345.569 36.5161ZM354.429 38.2117C354.429 38.2117 354.467 37.6824 353.976 37.4701C353.372 37.0724 353.36 37.2487 353.699 37.8049C353.926 38.1757 354.291 38.3792 354.429 38.2117ZM376.983 60.7443C376.518 67.2723 375.411 70.3853 371.925 74.9247C367.181 81.1477 357.641 88.9795 356.194 87.9897C355.829 87.7864 355.565 87.9449 355.665 88.3068C355.615 89.0125 351.965 90.5256 351.638 89.793C351.525 89.6076 351.386 89.775 351.6 90.3222C351.663 91.2134 349.31 92.287 348.593 91.7039C348.341 91.6859 347.825 91.8264 347.271 92.4963C346.717 93.1661 346.063 93.4742 345.824 93.2798C345.585 93.0854 345.195 93.2349 345.044 93.5788C344.767 93.9137 343.974 94.3892 343.093 94.3264C342.338 94.2726 341.293 94.7302 340.89 95.0561C340.475 95.5585 339.582 95.6721 338.713 95.4329C337.958 95.3791 337.203 95.3252 337.178 95.6781C337.153 96.031 337.153 96.031 336.914 95.8366C336.8 95.6512 336.41 95.8008 336.146 95.9593C335.869 96.2942 335.366 96.2583 335.013 95.8785C334.548 95.3133 334.56 95.1368 335.126 94.2905C335.693 93.4443 335.693 93.4443 334.661 93.7254C333.352 94.3414 333.226 94.3325 332.219 94.2607C331.842 94.2338 331.577 94.3922 331.552 94.7451C331.527 95.098 332.156 95.1428 332.786 95.1876C334.057 95.1009 335.001 96.0549 334.309 96.8922C333.755 97.5621 326.833 98.8419 325.084 98.5399C323.699 98.4412 323.196 98.4053 323.41 98.9526C323.636 99.3234 323.372 99.4819 323.007 99.2786C322.642 99.0752 322.252 99.2248 322.113 99.3923C322.088 99.7451 321.585 99.7092 320.855 99.3025C319.999 98.8869 319.622 98.8599 319.194 99.5387C318.778 100.041 318.64 100.209 318.804 99.6883C318.955 99.3444 318.866 98.806 318.627 98.6117C318.388 98.4173 318.287 98.0555 318.439 97.7116C318.59 97.3677 318.224 97.1644 317.721 97.1285C316.84 97.0657 316.714 97.0567 317.532 98.0016C317.998 98.5668 318.074 99.2816 317.923 99.6255C317.633 100.137 317.381 100.119 316.916 99.5537C316.45 98.9885 316.324 98.9795 316.261 99.8617C316.173 101.097 315.418 101.043 315.254 99.7899C315.166 99.2516 314.814 98.8719 314.562 98.854C314.311 98.8361 314.16 99.1799 314.248 99.7181C314.336 100.256 314.185 100.6 313.43 100.547C310.913 100.367 310.007 100.657 310.107 101.019C310.422 101.928 309.679 101.698 309.113 100.771C308.773 100.215 308.647 100.206 308.61 100.735C308.584 101.088 308.32 101.246 307.829 101.034C307.338 100.822 307.2 100.989 307.301 101.351C307.401 101.713 306.999 102.039 305.979 102.143C305.098 102.081 304.595 102.045 304.733 101.877C304.884 101.533 304.771 101.348 304.519 101.33C304.268 101.312 303.764 101.276 303.538 100.905C303.173 100.702 302.392 101.001 301.839 101.671C300.618 102.825 299.448 103.274 298.881 102.347C298.428 101.605 297.295 101.524 297.245 102.23C297.22 102.583 297.081 102.751 296.842 102.556C296.603 102.362 296.087 102.502 295.798 103.014C295.244 103.683 294.992 103.666 294.539 102.924C294.074 102.359 294.074 102.359 294.288 102.906C294.501 103.453 294.237 103.612 293.86 103.585C293.482 103.558 293.13 103.178 293.029 102.816C292.828 102.093 292.702 102.084 292.526 102.78C292.375 103.124 291.972 103.45 291.72 103.432C291.468 103.414 291.355 103.229 291.632 102.894C292.06 102.215 290.789 102.302 290.235 102.972C289.958 103.307 290.21 103.325 290.487 102.99C290.89 102.664 291.003 102.849 290.738 103.008C290.172 103.854 288.41 103.728 288.096 102.819C287.882 102.272 287.743 102.44 287.693 103.145C287.592 104.557 287.215 104.53 286.308 103.047C285.742 102.12 285.49 102.102 284.924 102.948C284.509 103.45 283.867 103.582 283.376 103.37C282.759 103.148 282.621 103.316 282.848 103.686C282.948 104.048 282.797 104.392 282.42 104.365C282.042 104.338 281.677 104.135 281.715 103.606C281.753 103.076 281.513 102.882 281.262 102.864C281.01 102.846 280.872 103.014 280.972 103.376C280.947 103.728 280.935 103.905 280.557 103.878C280.179 103.851 279.953 103.48 279.991 102.951C280.041 102.245 279.777 102.404 279.336 103.259C278.77 104.105 278.103 104.59 277.222 104.527C276.467 104.473 275.976 104.261 276.127 103.917C276.278 103.573 276.026 103.555 275.51 103.696C274.994 103.836 274.592 104.162 274.566 104.515C274.504 105.397 270.904 104.431 270.589 103.522C270.388 102.798 270.262 102.789 270.212 103.495C270.187 103.848 270.036 104.192 269.797 103.997C269.205 103.423 267.884 104.216 268.098 104.763C268.412 105.672 266.789 105.379 266.21 104.629C265.983 104.258 265.606 104.231 265.178 104.91C264.473 105.923 262.434 106.133 262.51 105.074C262.547 104.545 262.283 104.703 261.88 105.029C261.063 105.858 258.759 106.225 259.2 105.37C259.351 105.026 259.112 104.832 258.482 104.787C257.853 104.742 257.589 104.901 257.803 105.448C258.017 105.995 257.501 106.136 256.381 105.879C255.5 105.816 254.367 105.735 253.838 106.052C253.448 106.201 252.442 106.13 251.825 105.908C250.365 105.095 248.578 105.322 248.502 106.381C248.465 106.91 248.351 106.725 248.012 106.169C247.81 105.445 247.558 105.427 247.508 106.133C247.47 106.662 246.829 106.794 245.948 106.731C245.067 106.668 244.462 106.27 244.488 105.917C244.525 105.388 244.525 105.388 244.11 105.891C243.959 106.234 243.43 106.551 243.065 106.348C242.688 106.321 242.172 106.462 241.769 106.788C241.367 107.114 240.989 107.087 240.637 106.707C240.058 105.956 239.542 106.097 238.359 106.722C237.83 107.039 237.465 106.836 237.364 106.474C237.402 105.944 236.509 106.058 234.961 106.48C233.274 107.069 232.519 107.015 232.418 106.653C232.23 105.753 230.468 105.627 229.901 106.474C229.209 107.311 226.793 107.493 226.214 106.743C225.861 106.363 225.61 106.345 225.585 106.698C225.559 107.051 224.653 107.341 222.904 107.039C221.394 106.931 220.261 106.851 220.236 107.203C220.211 107.556 219.846 107.353 219.355 107.141C218.763 106.566 218.512 106.548 218.348 107.069C218.184 107.589 217.933 107.571 217.341 106.997C216.876 106.432 216.636 106.237 216.838 106.961C217.039 107.685 216.523 107.825 214.51 107.682C213.125 107.583 209.853 107.35 207.311 107.523C203.51 107.607 202.767 107.377 203.069 106.689C203.371 106.001 203.372 106.001 202.692 106.662C201.597 107.825 191.101 107.787 191.189 106.552C191.227 106.022 190.975 106.004 190.182 106.48C189.125 107.114 186.331 107.269 168.925 106.561C161.739 106.226 159.486 105.888 159.512 105.535C159.549 105.006 159.424 104.997 158.882 105.49C158.203 106.151 148.764 105.478 147.933 104.71C147.581 104.33 147.43 104.674 147.392 105.203C147.329 106.085 147.203 106.076 146.498 105.317C145.794 104.557 145.542 104.539 145.24 105.227C144.938 105.915 144.686 105.897 144.611 105.182C144.397 104.635 144.145 104.617 143.604 105.11C142.924 105.771 142.924 105.771 143.226 105.083C143.528 104.395 143.528 104.396 143.126 104.721C142.861 104.88 141.074 105.107 139.3 105.158C137.538 105.033 136.279 104.943 136.657 104.97C136.908 104.988 137.198 104.476 137.097 104.114C137.122 103.762 135.839 104.025 134.555 104.288C133.007 104.71 132.113 104.823 132.025 104.285C131.836 103.385 129.697 103.232 128.879 104.061C128.464 104.563 128.338 104.554 128.375 104.025C128.401 103.672 128.162 103.478 127.897 103.636C126.966 104.279 121.793 104.088 121.605 103.187C121.391 102.64 121.265 102.631 121.227 103.161C121.189 103.69 120.925 103.848 120.698 103.477C120.459 103.283 119.591 103.044 118.836 102.99C118.081 102.936 117.212 102.697 116.986 102.326C116.646 101.77 116.142 101.734 115.853 102.246C115.576 102.58 114.431 102.676 113.437 102.428C112.43 102.356 110.693 101.878 109.56 101.797C108.428 101.716 107.547 101.653 107.673 101.662C107.887 102.21 101.846 101.779 101.38 101.214C101.153 100.843 100.272 100.78 99.3662 101.07C97.038 101.791 96.4087 101.746 97.1134 100.732C97.5413 100.054 97.5664 99.7007 97.214 99.3209C96.9875 98.9501 96.8491 99.1176 96.9498 99.4794C97.277 100.212 96.094 100.837 93.9294 101.037C92.9225 100.966 92.4191 100.93 92.117 99.8443C91.4751 98.2025 90.8459 98.1577 91.0977 99.949C91.1606 100.84 91.1355 101.193 91.0348 100.831C91.0599 100.478 89.4364 100.185 87.6744 100.06C84.7798 99.8532 84.5281 99.8353 84.2511 98.3969C83.8861 96.4202 83.3826 96.3843 83.6218 98.352C83.7729 99.7814 83.6346 99.9489 82.5145 99.6918C81.7593 99.6379 81.0294 99.2312 80.8028 98.8604C80.5637 98.666 80.1735 98.8156 80.0225 99.1595C79.7205 99.8473 79.5946 99.8384 79.5191 99.1236C79.4309 98.5854 78.9275 98.5495 78.2731 98.8575C77.6187 99.1655 77.1153 99.1296 77.002 98.9442C76.8888 98.7588 74.8877 98.4388 72.4965 98.2683C70.1052 98.0979 68.2301 97.787 68.2426 97.6105C68.2678 97.2577 67.5252 97.0274 61.8744 96.4473C59.2315 96.2589 57.6708 95.0837 57.7714 93.6722C57.8217 92.9665 57.57 92.9485 56.8653 93.9622C55.8711 95.4873 55.3677 95.4515 48.5338 93.7231C47.2879 93.4569 46.0419 93.1907 45.5385 93.1548C45.161 93.1279 44.9344 92.7571 45.0728 92.5897C45.2238 92.2458 45.1105 92.0604 44.8588 92.0424C44.6071 92.0245 44.3302 92.3594 44.3051 92.7123C44.2799 93.0652 43.7766 93.0293 42.8075 92.4282C42.0901 91.8451 40.3532 91.3667 39.0947 91.277C35.8225 91.0437 32.8524 90.1227 32.651 89.399C32.5503 89.0372 32.2985 89.0192 32.0342 89.1777C31.7825 89.1597 31.1533 89.1149 30.4233 88.7082C29.6933 88.3015 28.3467 87.6735 27.214 87.5928C24.3445 87.0336 21.2988 85.3978 21.4875 84.5246C21.5252 83.9953 21.5378 83.8189 20.9841 84.4887C20.4429 84.9821 20.0779 84.7789 19.1214 84.0014C18.404 83.4182 17.3091 82.8082 16.6924 82.5869C16.0631 82.5421 14.729 81.7376 13.8858 81.1456C10.0345 78.3884 9.55633 77.9996 9.05292 77.9637C8.80121 77.9458 8.56203 77.7514 8.83889 77.4165C8.86404 77.0636 8.39837 76.4984 7.68098 75.9153C6.83774 75.3232 6.25874 74.5726 6.29647 74.0433C6.34677 73.3376 6.34679 73.3376 5.9315 73.84C5.35263 74.8627 2.40745 70.0423 1.61442 66.9711C1.32489 65.7092 0.934614 64.0853 0.720635 63.5381C0.21713 61.7289 0.481402 59.7971 1.36238 59.8599C1.99164 59.9048 1.99165 59.9047 1.38753 59.507C0.531712 59.0913 0.77066 57.5125 2.30587 53.7207C4.13052 49.4175 10.083 42.2166 13.3803 40.3236C13.9089 40.0067 14.4375 39.6897 14.5885 39.3458C15.8595 37.4858 35.0137 26.0833 37.5811 25.557C37.9587 25.5839 39.0157 24.95 39.6702 24.642C41.7844 23.3741 61.027 16.0565 65.1549 14.9321C65.5325 14.959 67.4832 14.2115 69.5471 13.6493C71.6111 13.0871 74.4554 12.2258 75.9907 11.9806C77.5387 11.5589 80.4962 10.8831 82.8119 10.3388C99.0216 6.529 130.699 2.22583 146.027 1.89984C148.054 1.86694 149.967 1.64863 150.105 1.48117C150.357 1.49911 150.608 1.51699 150.709 1.87882C150.81 2.24066 150.659 2.58458 150.407 2.56663C150.03 2.53972 149.274 2.48593 148.758 2.62648C136.437 3.3442 114.376 5.85013 101.967 7.80288C99.0217 8.30228 95.9508 8.79274 95.4474 8.75686C94.8182 8.71201 92.8801 9.28317 91.0804 9.68688C75.3993 13.1797 71.6615 14.1546 66.6149 15.7455C63.5064 16.7652 60.2719 17.776 59.5042 17.8986C58.724 18.1977 56.66 18.7599 54.9736 19.349C53.2872 19.9381 51.2233 20.5002 50.5815 20.6318C49.9522 20.5869 49.2852 21.0714 49.1342 21.4153C49.109 21.7682 47.9386 22.2168 46.7808 22.4889C45.623 22.761 44.3141 23.377 43.7981 23.5176C43.2695 23.8346 42.0991 24.2831 41.0671 24.5642C40.0352 24.8453 38.978 25.4793 38.7012 25.8142C38.4243 26.1492 37.921 26.1133 37.6818 25.9189C37.4427 25.7246 37.1784 25.883 36.9141 26.0414C36.7631 26.3853 35.9577 27.0373 35.1648 27.5128C21.485 34.8722 18.0493 36.9326 17.7347 37.7968C17.697 38.3261 19.2701 37.5516 21.5228 36.1162C28.7843 31.8459 32.0816 29.953 32.8367 30.0068C33.2142 30.0337 33.6044 29.8841 33.7554 29.5402C34.0574 28.8524 41.6587 25.1383 42.4138 25.1922C42.6655 25.2101 43.3074 25.0786 43.8359 24.7616C46.743 23.0182 51.0471 21.1971 51.2611 21.7443C51.2611 21.7443 51.7645 21.7801 52.1672 21.4542C52.7084 20.9607 52.8217 21.1462 52.7714 21.852C52.7336 22.3813 52.9476 22.9285 53.1993 22.9464C53.4511 22.9643 53.602 22.6204 53.5013 22.2586C53.1866 21.3495 55.0492 20.0637 58.9255 18.9213C60.8636 18.3501 62.9401 17.6115 63.4687 17.2945C67.5085 15.6319 85.4045 11.2329 93.8618 9.70777C114.111 6.00861 133.228 4.00204 152.006 3.21253C156.826 3.02413 161.898 2.85366 163.169 2.76694C165.321 2.74301 166.29 3.34417 164.855 3.95122C164.478 3.92431 164.83 4.30407 165.698 4.5433C166.454 4.59713 167.209 4.65091 167.221 4.47448C167.234 4.29805 167.007 3.92726 166.63 3.90035C166.252 3.87344 166.026 3.50261 166.051 3.14974C166.076 2.79688 167.234 2.52473 168.618 2.62341C170.002 2.72209 171.89 2.85671 172.796 2.56664C173.677 2.62944 178.611 2.62643 183.796 2.64137C188.969 2.83274 193.273 2.7849 193.399 2.79387C193.675 2.45895 223.213 5.09639 228.726 5.84398C231.608 6.22674 236.743 6.94743 240.254 7.37505C257.169 9.64472 264.808 10.7212 266.041 11.1638C266.671 11.2087 269.653 11.9532 272.9 12.5393C290.759 15.7629 299.317 18.1463 319.92 25.4667C327.194 28.1132 333.852 30.5384 334.834 30.963C335.815 31.3876 336.923 31.8213 337.288 32.0246C339.503 32.8918 340.346 33.484 340.296 34.1897C340.258 34.719 340.724 35.2842 341.466 35.5144C342.083 35.7357 342.435 36.1154 342.045 36.2649C341.529 36.4054 333.626 33.7142 331.927 32.7064C331.562 32.5031 330.693 32.2639 330.076 32.0426C329.46 31.8213 328.34 31.564 327.711 31.5192C327.081 31.4743 326.099 31.0497 325.747 30.6699C325.269 30.2812 324.765 30.2453 324.363 30.5712C323.973 30.7207 323.129 30.1287 322.462 28.8399C321.783 27.7274 320.952 26.9589 320.448 26.923C319.819 26.8782 319.819 26.8782 320.537 27.4613C321.015 27.85 321.481 28.4152 321.455 28.7681C321.393 29.6503 320.637 29.5964 320.323 28.6873C320.222 28.3255 319.354 28.0863 318.46 28.2C317.579 28.1372 316.207 27.8621 315.616 27.2879C314.898 26.7048 313.904 26.4566 313.262 26.5882C312.495 26.7108 312.255 26.5164 312.394 26.3489C312.545 26.005 312.444 25.6432 312.067 25.6162C311.689 25.5893 311.324 25.386 311.349 25.0331C311.374 24.6803 312.13 24.7341 313.237 25.1677C314.231 25.4159 314.861 25.4608 314.747 25.2754C314.634 25.0899 313.539 24.4799 312.545 24.2317C310.934 23.7622 310.67 23.9207 310.091 24.9434C309.638 25.9751 309.247 26.1247 308.782 25.5595C308.429 25.1797 307.8 25.1348 307.536 25.2933C307.284 25.2753 307.032 25.2574 307.07 24.7281C307.108 24.1988 306.743 23.9954 305.963 24.2945C305.321 24.426 304.704 24.2047 304.704 24.2047C304.729 23.8519 303.987 23.6217 303.219 23.7443C302.464 23.6905 301.344 23.4333 300.626 22.8501C299.909 22.267 298.789 22.0098 298.034 21.956C297.279 21.9022 296.536 21.6719 296.435 21.3101C296.209 20.9393 296.083 20.9303 296.058 21.2832C296.02 21.8125 295.768 21.7946 294.925 21.2025C294.321 20.8047 292.962 20.3532 291.829 20.2724C290.697 20.1917 289.828 19.9525 289.853 19.5996C289.878 19.2468 288.997 19.1839 287.852 19.2796C286.719 19.1989 285.713 19.1271 285.599 18.9417C285.612 18.7652 284.492 18.5081 283.359 18.4274C282.226 18.3466 281.345 18.2839 281.371 17.931C281.396 17.5782 281.157 17.3837 280.779 17.3568C280.402 17.3299 280.125 17.6648 280.1 18.0177C280.062 18.547 279.823 18.3526 279.47 17.9728C279.118 17.593 278.753 17.3898 278.489 17.5482C278.35 17.7157 277.859 17.5034 277.368 17.291C276.764 16.8933 276.513 16.8754 276.487 17.2282C276.462 17.5811 276.06 17.9071 275.556 17.8712C275.053 17.8353 274.826 17.4645 274.965 17.2971C275.116 16.9532 274.247 16.7139 272.976 16.8006C271.718 16.7109 270.585 16.6302 270.484 16.2684C270.509 15.9155 269.251 15.8258 267.841 16.08C266.319 16.1488 265.45 15.9096 265.475 15.5567C265.5 15.2038 265.274 14.833 264.771 14.7971C264.267 14.7613 264.116 15.1052 264.343 15.476C264.557 16.0232 264.305 16.0053 263.839 15.4401C263.361 15.0513 262.115 14.7851 260.97 14.8808C259.711 14.7911 258.83 14.7284 258.855 14.3755C258.881 14.0226 258.39 13.8103 257.622 13.9329C256.98 14.0644 255.482 13.7804 254.224 13.6906C252.965 13.6009 252.11 13.1853 252.084 13.5381C252.059 13.891 251.304 13.8373 250.297 13.7655C249.291 13.6937 248.674 13.4725 248.825 13.1286C248.85 12.7757 248.611 12.5812 248.233 12.5543C247.856 12.5274 247.327 12.8444 247.176 13.1883C247.138 13.7176 247.138 13.7176 246.924 13.1703C246.95 12.8175 246.459 12.6052 245.943 12.7458C245.427 12.8863 245.062 12.6829 244.86 11.9593C244.672 11.0592 244.936 10.9007 247.05 11.406C248.435 11.5047 249.567 11.5854 249.706 11.4179C249.731 11.0651 248.485 10.799 246.723 10.6734C244.08 10.485 243.577 10.4491 243.765 11.3493C244.055 12.6112 242.243 13.1913 241.55 12.2553C241.085 11.6901 240.707 11.6632 240.04 12.1477C239.512 12.4646 239.134 12.4377 239.159 12.0849C239.184 11.732 236.68 11.3762 233.408 11.1429C230.261 10.9186 227.505 10.5448 227.14 10.3414C226.901 10.1471 226.259 10.2787 225.982 10.6136C225.567 11.116 225.315 11.0981 225.353 10.5688C225.378 10.2159 224.9 9.82715 224.397 9.79127C223.893 9.75538 222.131 9.62975 220.634 9.34567C219.123 9.23802 217.739 9.13938 217.6 9.30684C217.449 9.65073 212.415 9.2919 210.93 8.83138C210.679 8.81344 209.546 8.73274 208.526 8.8374C207.381 8.9331 206.374 8.86133 206.135 8.66695C205.544 8.0928 202.284 7.68312 202.234 8.38886C202.183 9.09459 194.909 8.22134 194.582 7.48869C194.355 7.11788 194.229 7.10891 194.204 7.46178C194.179 7.81465 193.902 8.14959 193.651 8.13164C193.399 8.1137 193.298 7.75185 193.575 7.41692C193.864 6.90556 193.613 6.88762 193.072 7.38104C192.14 8.02397 188.616 7.77279 188.163 7.03117C188.05 6.84577 187.534 6.98636 187.27 7.14485C186.993 7.47977 186.615 7.45286 186.641 7.1C186.666 6.74713 186.389 7.082 186.112 7.41692C185.81 8.10471 185.558 8.08677 185.609 7.38104C185.634 7.02817 185.407 6.65748 185.03 6.63056C184.652 6.60365 184.375 6.93846 184.35 7.29133C184.312 7.82063 184.186 7.81166 183.972 7.26442C183.557 5.9935 184.098 5.50017 185.885 5.2729C186.766 5.33569 185.898 5.09643 184.136 4.97083C182.374 4.84524 181.367 4.77351 181.984 4.99479C183.343 5.44634 183.645 6.53189 182.261 6.43321C181.757 6.39733 181.367 6.54678 181.103 6.70528C180.964 6.87274 180.436 7.1897 179.933 7.15382C179.303 7.10896 179.19 6.9236 179.379 6.05041C179.416 5.52111 179.467 4.81534 179.228 4.62097C178.749 4.23222 178.573 4.92899 178.586 6.52586C178.548 7.05516 177.78 7.17774 175.653 6.84881C174.017 6.73218 172.759 6.64255 172.734 6.99542C172.709 7.34829 172.469 7.15387 172.117 6.77409C171.765 6.39431 171.525 6.1999 171.5 6.55276C171.45 7.2585 170.066 7.15982 169.361 6.40026C168.883 6.01151 168.883 6.01159 169.084 6.73526C169.298 7.2825 169.034 7.44097 168.417 7.21969C167.926 7.00737 167.41 7.14795 167.398 7.32439C167.385 7.50082 166.856 7.81779 166.353 7.7819C165.472 7.71911 165.472 7.71909 166.026 7.04924C166.567 6.55582 166.315 6.53788 165.397 7.00439C164.616 7.30343 162.968 7.36318 161.596 7.08806C159.96 6.97144 159.33 6.92657 159.796 7.49175C160.274 7.8805 160.136 8.04807 159.381 7.99425C158.751 7.9494 158.525 7.57857 158.676 7.23468C159.116 6.37942 158.487 6.33451 156.511 7.43497C154.41 8.52647 153.529 8.46372 154.359 7.45894C155.328 6.28671 155.165 5.03364 154.019 5.12934C153.264 5.07551 153.138 5.06666 153.73 5.64081C154.938 6.43625 153.554 8.11083 151.93 7.81777C151.175 7.76395 150.294 7.70113 149.879 8.20352C149.325 8.87337 149.212 8.68802 149.526 7.8238C149.828 7.13601 149.589 6.94162 149.199 7.09114C148.809 7.24066 148.658 7.58447 148.759 7.9463C148.734 8.29917 147.45 8.56239 145.424 8.59529C143.523 8.63716 139.836 8.9063 137.281 9.25618C134.097 9.5612 132.713 9.46252 132.75 8.93322C132.775 8.58036 132.775 8.58036 132.373 8.90631C131.932 9.76157 123.009 10.7215 122.305 9.96192C122.078 9.59111 121.94 9.75857 122.053 9.94397C122.38 10.6766 117.786 11.2359 116.692 10.6259C116.327 10.4225 115.936 10.572 115.924 10.7484C115.874 11.4541 108.838 12.5487 105.692 12.3244C104.685 12.2527 103.918 12.3753 104.018 12.7371C104.006 12.9135 103.1 13.2035 101.816 13.4667C100.545 13.5534 99.0094 13.7986 98.4934 13.9392C97.99 13.9033 96.8321 14.1754 95.6869 14.2711C94.5416 14.3668 93.648 14.4805 93.3838 14.639C92.5783 15.2909 87.0535 16.4931 86.5752 16.1044C85.8452 15.6977 85.9584 14.1097 86.7387 13.8106C87.1288 13.6611 87.0155 13.4758 86.638 13.4489C86.1346 13.413 85.8451 13.9243 85.5054 15.1414C85.304 16.191 84.8762 16.8698 84.6371 16.6754C84.398 16.481 83.6303 16.6037 82.9759 16.9117C80.6225 17.9853 72.5176 19.8902 71.9135 19.4925C71.6618 19.4746 71.41 19.4566 71.6366 19.8274C71.7373 20.1892 71.5863 20.5331 71.0829 20.4972C69.4342 20.557 67.6346 20.9608 66.3257 21.5768C64.0982 22.6593 57.1135 24.8214 57.1386 24.4685C57.1512 24.2921 56.7862 24.0888 56.2828 24.0529C55.7794 24.017 55.3893 24.1665 55.3641 24.5194C55.339 24.8722 55.0746 25.0307 54.5712 24.9948C54.0678 24.9589 53.9294 25.1264 54.1433 25.6737C54.3447 26.3973 53.9672 26.3703 51.4375 26.3674C50.5566 26.3046 50.1539 26.6306 50.1161 27.1599C50.091 27.5127 50.0784 27.6891 49.7135 27.4858C49.1219 26.9116 46.9195 27.6413 47.1334 28.1886C47.1209 28.365 46.7307 28.5145 46.1266 28.1168C45.5099 27.8955 44.8681 28.0271 44.5787 28.5384C44.2892 29.0498 44.1634 29.0408 43.9494 28.4936C43.8487 28.1317 44.5409 27.2944 45.7113 26.8459C48.7317 25.2879 50.1915 24.328 49.1469 24.7855C48.6309 24.9261 47.2088 25.3567 46.051 25.6288C44.8932 25.9009 43.8486 26.3585 43.8235 26.7113C43.7983 27.0642 43.4081 27.2137 43.0306 27.1868C42.653 27.1599 41.7469 27.45 41.0799 27.9344C39.746 28.9033 39.9851 29.0976 41.8225 28.1646C42.7412 27.6981 43.1062 27.9014 43.3327 28.2722C43.7481 29.5432 43.7103 30.0726 42.8293 30.0098C42.4518 29.9829 42.3511 29.621 42.5021 29.2771C42.6531 28.9332 42.5398 28.7478 42.1371 29.0737C41.747 29.2232 41.4701 29.5582 41.5708 29.9201C41.5457 30.2729 41.5206 30.6257 41.2563 30.7842C40.9794 31.1191 40.8787 30.7574 41.0171 30.5899C41.6085 29.3908 40.4508 29.6629 39.4692 31.0116C38.3617 32.3513 33.6424 34.6748 34.2212 33.6521C34.3722 33.3082 34.2715 32.9463 34.1457 32.9373C34.0198 32.9284 33.4912 33.2454 33.2018 33.7568C32.9124 34.2681 32.497 34.7705 32.1195 34.7435C30.5841 34.9888 29.4011 35.6137 29.3508 36.3195C29.3257 36.6723 29.0739 36.6544 28.8348 36.46C28.5957 36.2657 28.0797 36.4062 27.6519 37.0851C27.224 37.7639 26.708 37.9044 26.343 37.7011C25.8522 37.4888 25.7137 37.6562 25.676 38.1855C25.6257 38.8913 25.3614 39.0498 24.7447 38.8285C24.128 38.6072 23.8638 38.7657 23.826 39.295C23.7883 39.8243 23.2598 40.1412 22.6305 40.0963C22.0013 40.0515 21.4852 40.1921 21.3342 40.536C21.0322 41.2238 18.2132 43.5055 17.5839 43.4606C17.3322 43.4427 16.4009 44.0856 15.6962 45.0993C14.8782 45.9277 14.0602 46.756 13.6826 46.7291C13.3051 46.7022 12.3613 47.5216 11.5181 48.7028C10.6875 49.7076 10.0079 50.3684 9.76878 50.174C9.52965 49.9796 9.51711 50.1561 9.46681 50.8618C9.4165 51.5675 9.15221 51.7261 8.91307 51.5317C8.67394 51.3373 8.40965 51.4957 8.3845 51.8486C8.35935 52.2015 8.08255 52.5364 7.70498 52.5095C7.07572 52.4646 6.6352 53.32 5.22584 57.1208C3.82905 60.7451 3.57745 62.5004 3.84182 64.1152C4.19432 66.2683 5.96906 69.764 6.7116 69.9943C7.59258 70.0571 9.45536 72.3179 9.40505 73.0236C9.3799 73.3765 9.63162 73.3944 9.90848 73.0595C10.1853 72.7246 10.286 73.0864 10.135 73.4303C9.98399 73.7741 10.0847 74.136 10.2106 74.145C10.4623 74.1629 10.6763 74.7102 10.6385 75.2395C10.5756 76.1217 10.5756 76.1216 11.0035 75.4428C11.5824 74.4201 12.8157 74.8627 17.3088 77.4883C19.1337 78.505 20.5685 79.6712 20.4175 80.0151C20.2665 80.359 20.3798 80.5444 20.6315 80.5623C20.8832 80.5803 21.1475 80.4218 21.1727 80.0689C21.2104 79.5396 24.7847 80.8585 26.8488 82.0696C27.4529 82.4673 27.4529 82.4672 26.7859 82.9516C26.3832 83.2776 26.2447 83.445 26.4964 83.463C26.7481 83.4809 27.2641 83.3404 27.541 83.0055C27.9437 82.6795 29.1771 83.1222 30.6621 83.5827C33.9847 84.8835 44.5314 87.7632 49.402 88.6424C53.6432 89.4767 54.9648 90.4575 51.5541 90.3917L49.4146 90.2392L51.7681 90.9389C53.1273 91.3904 55.6193 91.9228 57.2428 92.2158C58.9922 92.5179 60.7289 92.9963 61.2324 93.0322C61.7358 93.0681 62.214 93.4569 62.3398 93.4659C62.3398 93.4659 65.7253 93.8845 69.4883 94.33C81.2808 95.7026 86.4032 96.5997 86.3529 97.3054C86.3277 97.6583 86.4536 97.6672 86.7304 97.3323C87.0324 96.6445 88.165 96.7253 91.8022 97.1619C96.4336 97.8466 146.775 101.435 154.729 101.647C156.994 101.809 165.326 102.048 173.016 102.419C180.705 102.79 188.407 102.984 190.056 102.924C191.692 103.041 198.274 102.978 204.592 103.074C211.036 103.178 222.425 103.104 230.153 102.945C237.88 102.787 245.985 102.655 248.389 102.649C252.945 102.619 256.242 102.499 259.804 102.221C261.062 102.311 263.479 102.129 265.266 101.901C267.053 101.674 269.205 101.65 270.224 101.545C272.905 101.204 274.805 101.163 278.367 100.884C280.142 100.834 282.306 100.633 283.326 100.529C284.332 100.6 286.245 100.382 287.642 100.304C289.027 100.403 290.436 100.149 290.575 99.9814C290.826 99.9993 291.858 99.7182 292.853 99.9664C293.86 100.038 294.74 100.101 294.766 99.7481C294.791 99.3953 295.546 99.449 296.301 99.5028C297.182 99.5656 297.799 99.787 297.774 100.14C297.748 100.493 297.358 100.642 296.855 100.606C296.351 100.57 295.949 100.896 295.936 101.073C295.911 101.426 296.414 101.462 297.321 101.172C298.101 100.872 298.73 100.917 298.705 101.27C298.655 101.976 299.661 102.048 300.089 101.369C300.228 101.201 301.524 100.762 303.047 100.693C306.483 100.406 307.389 100.116 307.791 99.7899C308.207 99.2875 302.103 99.7391 300.555 100.161C299.9 100.469 299.271 100.424 299.296 100.071C299.347 99.3654 300.781 98.7582 302.304 98.6894C303.059 98.7433 303.827 98.6207 304.104 98.2858C304.368 98.1273 305.262 98.0137 306.143 98.0765C307.024 98.1393 307.653 98.1841 307.678 97.8312C307.691 97.6548 308.861 97.2063 310.51 97.1465C312.171 96.9102 313.43 96.9999 313.404 97.3528C313.379 97.7057 313.631 97.7236 314.034 97.3977C314.965 96.7547 316.11 96.659 316.311 97.3827C316.412 97.7445 316.261 98.0884 315.758 98.0525C313.618 97.9 311.693 98.2947 310.648 98.7522C309.73 99.2187 309.981 99.2367 312.121 99.3892C313.505 99.4878 314.663 99.2157 314.676 99.0393C314.688 98.8629 315.343 98.5549 316.098 98.6087C317.23 98.6895 317.495 98.531 317.318 97.4544C317.13 96.5543 317.406 96.2194 317.922 96.0788C320.213 95.8874 321.358 95.7917 326.241 94.7211C329.199 94.0453 332.156 93.3695 333.05 93.2558C333.817 93.1332 334.724 92.8433 334.862 92.6758C335.139 92.3409 333.1 92.5501 329.639 93.1901C328.23 93.4443 327.726 93.4084 327.877 93.0645C327.902 92.7116 328.947 92.2541 329.853 91.964C330.747 91.8504 332.156 91.5962 332.798 91.4646C337.291 90.5436 353.777 84.6256 355.137 83.3039C355.401 83.1454 357.263 81.8594 359.113 80.75C363.87 77.8971 369.018 73.1215 371.824 69.243C375.624 63.8393 376.669 59.8352 375.372 54.9549C374.969 53.5075 374.692 52.0691 374.73 51.5398C374.755 51.1869 374.529 50.8161 374.277 50.7982C374.025 50.7802 373.811 50.233 373.61 49.5093C373.157 46.9944 368.802 40.6548 365.442 38.1099C363.642 36.7404 362.081 35.5652 361.943 35.7327C361.817 35.7237 361.578 35.5292 361.351 35.1584C361.251 34.7966 360.772 34.4079 360.281 34.1956C359.778 34.1597 359.061 33.5765 358.456 33.1788C357.978 32.7901 357.122 32.3744 356.619 32.3385C356.116 32.3026 355.511 31.905 355.172 31.3488C354.832 30.7925 354.215 30.5713 353.573 30.7029C352.68 30.8165 352.566 30.631 352.881 29.7668C353.208 28.7262 353.208 28.7262 352.403 29.3781C351.987 29.8805 351.61 29.8535 351.635 29.5006C351.66 29.1478 351.182 28.759 350.666 28.8996C348.904 28.774 345.695 27.6586 345.607 27.1203C345.632 26.7674 345.254 26.7405 344.851 27.0665C344.461 27.216 344.222 27.0217 344.247 26.6688C344.272 26.3159 343.782 26.1036 343.152 26.0588C341.881 26.1455 340.22 24.6084 340.66 23.7531C340.811 23.4092 340.723 22.871 340.245 22.4822C338.936 21.325 343.895 22.7424 349.671 25.1048C354.58 27.228 357.261 28.6604 360.747 31.2142C362.068 32.195 362.975 31.9049 361.905 30.942C361.552 30.5622 359.979 29.5634 358.393 28.7411C356.807 27.9187 355.486 26.9379 355.511 26.585C355.536 26.2321 355.41 26.2232 355.146 26.3817C354.894 26.3638 353.523 26.0886 351.937 25.2663C350.477 24.4529 347.645 23.3644 345.682 22.5152C339.641 20.3113 340.069 19.6324 346.261 21.4924C348.979 22.3955 355.209 25.4995 355.788 26.2501C356.14 26.6299 356.38 26.8242 356.392 26.6478C356.417 26.2949 360.432 28.5318 362.232 29.9014C362.949 30.4845 364.623 31.8452 365.945 32.826C369.053 35.3529 372.2 39.1237 371.759 39.979C371.608 40.3229 371.722 40.5082 371.86 40.3407C372.93 39.5303 375.976 46.486 377.411 52.9722C377.977 55.6725 378.078 57.8077 377.915 61.8746L376.983 60.7443ZM344.411 24.3752C344.411 24.3752 343.228 23.2268 342.926 23.9146C342.901 24.2675 343.001 24.6293 343.505 24.6652C344.008 24.7011 344.398 24.5516 344.411 24.3752ZM335.677 33.3284C338.886 34.4438 339.805 33.9773 336.722 32.8708C335.614 32.4372 333.764 31.7734 332.896 31.5342C330.165 30.8075 332.468 32.2129 335.677 33.3284ZM329.183 30.3828C329.183 30.3828 329.397 30.9301 329.774 30.957C330.152 30.9839 330.404 31.0019 330.416 30.8255C330.429 30.6491 330.19 30.4547 329.825 30.2514C329.46 30.048 329.196 30.2064 329.183 30.3828ZM321.896 27.9128C321.896 27.9128 323.117 28.5319 323.62 28.5678C324.375 28.6216 324.249 28.6125 323.406 28.0204C321.946 27.207 320.813 27.1263 321.896 27.9128ZM316.836 26.1336C316.836 26.1336 317.592 26.1874 317.717 26.1964C317.856 26.0289 317.617 25.8345 317.113 25.7986C316.61 25.7627 316.472 25.9303 316.836 26.1336ZM304.981 22.0966C304.981 22.0966 305.736 22.1504 305.862 22.1594C306 21.9919 305.761 21.7975 305.258 21.7616C304.754 21.7257 304.616 21.8933 304.981 22.0966ZM296.926 19.7491C296.926 19.7491 298.034 20.1827 298.084 19.477C298.084 19.477 297.845 19.2826 297.467 19.2557C297.09 19.2287 296.825 19.3873 297.039 19.9345L296.926 19.7491ZM293.969 18.6517C293.969 18.6517 294.724 18.7055 294.85 18.7145C294.988 18.547 294.749 18.3525 294.245 18.3167C293.742 18.2808 293.604 18.4483 293.969 18.6517ZM290.621 17.7037C290.621 17.7037 291.615 17.9519 292.005 17.8024C292.395 17.6529 292.03 17.4496 291.275 17.3958C290.52 17.3419 290.268 17.3239 290.747 17.7127L290.621 17.7037ZM286.266 16.684C286.266 16.684 287.399 16.7647 287.776 16.7916C288.154 16.8185 287.802 16.4388 287.047 16.385C286.291 16.3312 285.788 16.2952 286.266 16.684ZM282.78 15.9035C282.78 15.9035 283.774 16.1517 284.164 16.0022C284.555 15.8527 284.19 15.6494 283.435 15.5956C282.679 15.5417 282.428 15.5237 282.906 15.9125L282.78 15.9035ZM277.922 14.8479C277.922 14.8479 278.916 15.0961 279.306 14.9466C279.684 14.9735 279.332 14.5938 278.577 14.5399C277.821 14.4861 277.57 14.4681 278.048 14.8569L277.922 14.8479ZM272.674 13.9418C272.674 13.9418 274.675 14.2617 274.713 13.7324C274.713 13.7324 274.222 13.5202 273.593 13.4754C272.963 13.4305 272.573 13.58 272.674 13.9418ZM266.318 12.6021C266.318 12.6021 267.803 13.0626 269.301 13.3467C271.05 13.6487 271.692 13.5171 271.063 13.4723C269.968 12.8622 265.84 12.2134 266.18 12.7696L266.318 12.6021ZM260.554 11.8366C261.183 11.8815 262.316 11.9622 262.945 12.0071C263.575 12.0519 262.958 11.8306 261.7 11.7409C260.441 11.6512 259.812 11.6064 260.428 11.8277L260.554 11.8366ZM255.671 11.1338C256.552 11.1966 257.307 11.2505 257.332 10.8976C257.358 10.5448 256.363 10.2966 255.092 10.3834C252.701 10.2129 252.927 10.5836 255.671 11.1338ZM239.021 8.70567C239.021 8.70567 239.864 9.29784 240.254 9.14832C240.896 9.01675 240.783 8.83132 239.801 8.40669C239.058 8.17643 238.668 8.32599 238.907 8.52037L239.021 8.70567ZM234.389 8.02094C235.018 8.0658 236.025 8.13756 236.655 8.18242C237.158 8.2183 236.667 8.00595 235.409 7.91624C234.15 7.82653 233.773 7.79965 234.389 8.02094ZM227.631 7.00723C227.631 7.00723 227.845 7.55446 228.222 7.58137C228.6 7.60828 228.738 7.44084 228.638 7.079C228.537 6.71717 228.298 6.52281 228.046 6.50487C227.794 6.48693 227.656 6.65437 227.631 7.00723ZM223.1 6.68428C223.855 6.73811 225.24 6.83679 225.995 6.89062C226.75 6.94444 226.133 6.72311 224.497 6.60649C222.861 6.48987 222.232 6.44505 222.974 6.67531L223.1 6.68428ZM219.954 6.46001C219.954 6.46001 220.709 6.51384 221.086 6.54075C221.338 6.55869 221.112 6.18781 220.608 6.15192C220.105 6.11604 219.727 6.0892 220.08 6.46898L219.954 6.46001ZM210.666 5.44322C210.666 5.44322 211.484 6.38818 211.333 6.73207C211.182 7.07597 211.283 7.43783 211.534 7.45577C212.289 7.50959 212.163 5.7274 211.433 5.32071C211.068 5.11736 210.578 4.90497 210.2 4.87806C209.823 4.85115 210.175 5.23094 210.653 5.61969L210.666 5.44322ZM189.22 4.62391C189.22 4.62391 189.434 5.17123 189.699 5.01274C189.963 4.85425 190.24 4.51931 190.252 4.34288C190.265 4.16644 190.152 3.98096 189.774 3.95405C189.396 3.92714 189.245 4.27105 189.22 4.62391ZM170.43 3.81653C170.43 3.81653 171.463 5.30876 172.016 4.63891C172.293 4.30398 172.948 3.99605 173.589 3.86447C174.219 3.90932 173.866 3.52947 172.608 3.43976C171.475 3.35902 170.468 3.28723 170.43 3.81653ZM162.288 4.47742C162.288 4.47742 163.068 4.1784 162.955 3.993C162.753 3.26933 161.998 3.21549 161.696 3.90329C161.545 4.24718 161.784 4.44154 162.288 4.47742ZM158.009 4.17241C158.638 4.21727 159.645 4.28904 160.274 4.33389C160.778 4.36978 160.287 4.15755 159.028 4.06784C157.77 3.97813 157.392 3.95113 158.009 4.17241ZM148.343 4.90212C149.098 4.95595 149.854 5.00974 149.866 4.83331C149.904 4.30401 148.658 4.03792 147.878 4.33696C147.097 4.636 147.211 4.82138 148.343 4.90212ZM144.052 6.54686C144.052 6.54686 143.41 6.67851 143.775 6.88186C144.027 6.8998 144.53 6.93569 144.656 6.94466C144.794 6.77719 144.555 6.58274 144.052 6.54686ZM143.032 4.87829C143.032 4.87829 143.787 4.93211 144.165 4.95902C144.417 4.97697 144.19 4.60608 143.687 4.5702C143.183 4.53431 142.806 4.50748 143.158 4.88725L143.032 4.87829ZM138.955 5.29697C138.955 5.29697 139.71 5.35079 139.836 5.35977C139.974 5.1923 139.735 4.99785 139.232 4.96197C138.728 4.92608 138.59 5.09362 138.955 5.29697ZM134.499 5.6886C134.499 5.6886 135.255 5.74242 135.38 5.75139C135.519 5.58393 135.28 5.38962 134.776 5.35374C134.273 5.31785 134.134 5.48525 134.499 5.6886ZM126.86 6.38537C126.86 6.38537 127.615 6.4392 127.741 6.44817C127.88 6.2807 127.641 6.08639 127.137 6.05051C126.634 6.01463 126.495 6.18203 126.86 6.38537ZM120.102 7.14494C120.102 7.14494 120.857 7.19877 120.983 7.20774C121.121 7.04028 120.882 6.84596 120.379 6.81007C119.875 6.77419 119.737 6.9416 120.102 7.14494ZM116.905 7.62642C116.905 7.62642 117.66 7.68024 117.786 7.68921C117.925 7.52175 117.686 7.32743 117.182 7.29155C116.679 7.25567 116.54 7.42307 116.905 7.62642ZM96.9578 10.6378C96.9578 10.6378 97.7129 10.6916 97.8388 10.7006C97.9646 10.7096 97.738 10.3388 97.2346 10.3029C96.7312 10.267 96.5928 10.4344 96.9578 10.6378ZM92.5781 11.7443C92.5781 11.7443 93.4717 11.6307 93.6227 11.2868C93.6227 11.2868 93.3291 11.2658 92.7417 11.224C91.9489 11.6994 91.9489 11.6994 92.5781 11.7443ZM82.9882 13.1887C82.9882 13.1887 83.2148 13.5595 83.5798 13.7628C83.9448 13.9662 84.209 13.8077 84.2216 13.6312C84.2341 13.4548 84.0077 13.084 83.6301 13.0571C83.2525 13.0302 83.0008 13.0123 82.9882 13.1887ZM81.176 13.7689C81.176 13.7689 81.4026 14.1397 81.7675 14.343C82.1325 14.5463 82.3968 14.3878 82.4093 14.2114C82.4219 14.0349 82.1954 13.6642 81.8178 13.6372C81.4403 13.6103 81.1885 13.5924 81.176 13.7689ZM79.326 14.8783C79.326 14.8783 80.2321 14.5882 80.2447 14.4118C80.2824 13.8825 78.9987 14.1456 78.7093 14.657C78.5582 15.0009 78.81 15.0188 79.326 14.8783ZM75.1099 15.4643C75.1099 15.4643 75.8651 15.5182 76.2426 15.5451C76.4944 15.563 76.2678 15.1923 75.7644 15.1564C75.261 15.1205 74.8834 15.0935 75.2358 15.4733L75.1099 15.4643ZM67.7602 17.4231C67.7602 17.4231 68.5153 17.4769 68.6412 17.4859C68.7796 17.3184 68.5405 17.1241 68.0371 17.0882C67.5337 17.0523 67.3952 17.2197 67.7602 17.4231ZM65.948 18.0032C65.948 18.0032 66.7031 18.057 66.8289 18.066C66.9548 18.075 66.7283 17.7042 66.2249 17.6684C65.7215 17.6325 65.583 17.7999 65.948 18.0032ZM55.0493 21.837C55.0493 21.837 55.2633 22.3841 55.5276 22.2257C55.7919 22.0672 56.0686 21.7323 56.0812 21.5559C56.0938 21.3795 55.9806 21.194 55.6031 21.1671C55.2255 21.1402 55.0745 21.4841 55.0493 21.837ZM37.8204 29.298C37.8204 29.298 38.8523 29.0169 38.8649 28.8405C38.9152 28.1347 38.3993 28.2753 37.4806 28.7418C36.9395 29.2352 36.9395 29.2352 37.8204 29.298ZM32.8493 31.6036C32.8493 31.6036 32.9374 32.1419 33.315 32.1688C33.6925 32.1957 33.831 32.0283 33.8561 31.6754C33.8813 31.3225 34.4225 30.8291 34.951 30.5121C35.4796 30.1951 35.7565 29.8602 35.5048 29.8423C34.7496 29.7884 32.8996 30.8979 32.8493 31.6036ZM29.2626 34.0079C30.2317 34.609 30.4834 34.6269 30.1562 33.8943C30.0555 33.5324 30.4708 33.03 31.1252 32.722C31.7796 32.414 32.3081 32.097 32.3207 31.9205C32.371 31.2148 31.2007 31.6634 29.8667 32.6323C28.797 33.4427 28.6459 33.7867 29.2501 34.1844L29.2626 34.0079ZM20.8433 38.5504C20.8433 38.5504 22.1395 38.1108 22.5297 37.9612C23.0457 37.8207 23.3225 37.4857 23.3477 37.1329C23.4105 36.2507 22.7687 36.3823 21.2837 37.6951C20.4783 38.347 20.2014 38.682 20.7174 38.5414L20.8433 38.5504ZM18.4522 40.1532C18.4522 40.1532 19.1191 39.6687 19.1317 39.4923C19.1694 38.963 18.2634 39.253 17.9739 39.7644C17.8229 40.1083 17.9362 40.2937 18.3389 39.9678L18.4522 40.1532ZM15.2807 40.2817C15.2807 40.2817 16.4762 39.4803 16.5014 39.1274C16.5768 38.0688 15.5449 38.35 14.4375 39.6897C13.33 41.0294 13.4558 41.0383 15.1548 40.2728L15.2807 40.2817ZM12.1219 43.7805C12.1219 43.7805 11.606 43.9211 11.3165 44.4324C11.1655 44.7763 11.2662 45.1382 11.6438 45.1651C12.0213 45.192 12.4114 45.0425 12.4492 44.5132C12.4869 43.9839 12.3736 43.7984 12.1219 43.7805ZM10.8256 42.4468C10.8256 42.4468 11.0522 42.8176 11.4423 42.6681C11.8324 42.5186 12.1093 42.1837 12.1093 42.1837C12.1093 42.1837 11.8702 41.9893 11.4926 41.9624C11.115 41.9354 10.8381 42.2703 10.8256 42.4468ZM6.72316 50.3116C6.72316 50.3116 6.93716 50.8588 7.20144 50.7003C7.46572 50.5418 7.74259 50.2069 7.75517 50.0305C7.76775 49.854 7.65445 49.6687 7.27689 49.6418C6.89933 49.6149 6.74831 49.9588 6.72316 50.3116ZM1.89097 61.3163C1.89097 61.3163 1.68956 60.5926 1.43785 60.5747C1.18615 60.5567 1.03518 60.9006 1.13588 61.2625C1.23658 61.6243 1.46315 61.9951 1.589 62.0041C1.71486 62.0131 1.85325 61.8456 1.89097 61.3163ZM17.1453 79.7819C17.2207 78.7233 16.9817 78.5289 16.5412 79.3842C16.3902 79.7281 16.4909 80.0899 16.73 80.2842C16.9691 80.4786 17.2334 80.3201 17.2712 79.7908L17.1453 79.7819ZM18.6556 79.8895C18.6556 79.8895 18.2276 78.7951 17.9759 78.7771C17.3467 78.7323 17.6236 80.1706 18.3536 80.5773C18.7312 80.6042 18.7311 80.6042 18.6556 79.8895ZM22.2424 81.0319C22.2424 81.0319 21.7894 80.2903 21.5377 80.2723C21.286 80.2544 21.1475 80.4219 21.3615 80.9691C21.4622 81.3309 21.8145 81.7107 22.0663 81.7287C22.318 81.7466 22.4564 81.5791 22.2424 81.0319ZM29.0009 83.8189C28.2458 83.765 27.7424 83.7292 27.8556 83.9146C28.057 84.6383 29.7938 85.1167 30.0833 84.6054C30.1084 84.2525 29.7435 84.0491 29.0009 83.8189ZM39.4721 87.7572C39.4721 87.7572 38.6414 86.9888 37.6471 86.7405C34.5511 85.8105 32.6885 85.3231 32.9151 85.6939C32.9151 85.6939 33.8967 86.1185 34.7651 86.3577C35.646 86.4205 36.6152 87.0216 36.8543 87.216C37.4459 87.7902 39.4344 88.2865 39.4721 87.7572ZM42.3667 87.9635C41.6115 87.9097 41.3598 87.8918 41.8381 88.2806C42.3289 88.4929 42.8323 88.5288 43.2225 88.3793C43.6126 88.2297 43.2477 88.0263 42.4926 87.9725L42.3667 87.9635ZM46.9856 88.8247C46.9856 88.8247 46.2807 88.0652 46.1549 88.0562C46.029 88.0472 45.6263 88.3732 45.2236 88.6991C44.6825 89.1926 44.9216 89.3869 46.0543 89.4677C47.187 89.5484 47.4387 89.5663 46.9856 88.8247ZM113.852 100.152C113.852 100.152 113.751 99.7903 113.374 99.7634C112.996 99.7365 112.845 100.08 112.82 100.433C112.795 100.786 113.034 100.981 113.298 100.822C113.562 100.664 113.839 100.329 113.852 100.152ZM118.735 100.855C118.735 100.855 118.534 100.131 118.282 100.113C118.03 100.095 117.879 100.439 117.98 100.801C118.081 101.163 118.307 101.534 118.433 101.543C118.559 101.552 118.697 101.384 118.735 100.855ZM194.285 103.935C193.404 103.872 193.026 103.845 193.504 104.234C194.008 104.27 194.637 104.315 195.015 104.342C195.392 104.368 195.04 103.989 194.285 103.935ZM205.536 104.028C204.655 103.965 204.277 103.938 204.756 104.327C205.259 104.363 205.888 104.407 206.266 104.434C206.644 104.461 206.291 104.081 205.536 104.028ZM212.747 104.01C212.747 104.01 212.508 103.815 212.131 103.788C211.753 103.761 211.489 103.92 211.703 104.467C211.917 105.014 212.81 104.901 212.861 104.195L212.747 104.01ZM215.264 104.189C214.258 104.117 213.88 104.09 214.484 104.488C214.988 104.524 215.869 104.587 216.246 104.614C216.624 104.641 216.271 104.261 215.252 104.366L215.264 104.189ZM222.866 104.022C222.111 103.968 221.859 103.95 222.337 104.339C222.828 104.551 223.332 104.587 223.722 104.437C224.112 104.288 223.747 104.084 222.992 104.031L222.866 104.022ZM230.958 104.066C229.7 103.977 229.322 103.95 229.939 104.171C230.568 104.216 231.575 104.288 232.204 104.333C232.708 104.368 232.217 104.156 230.958 104.066ZM239.302 104.129C239.302 104.129 238.434 103.89 237.553 103.827C236.672 103.764 235.778 103.878 235.879 104.24C236.093 104.787 239.265 104.658 239.29 104.306L239.302 104.129ZM244.89 103.818C243.632 103.728 243.254 103.702 243.871 103.923C244.5 103.968 245.507 104.039 246.136 104.084C246.64 104.12 246.149 103.908 244.89 103.818ZM251.107 103.552C249.975 103.471 249.585 103.621 249.534 104.327C249.484 105.032 249.597 105.218 250.013 104.715C250.289 104.38 251.07 104.081 251.586 103.941C252.228 103.809 251.988 103.615 251.107 103.552ZM254.38 103.785C254.38 103.785 254.103 104.12 255.512 103.866C256.658 103.77 257.689 103.489 257.689 103.489C258.105 102.987 255.298 103.319 254.392 103.609L254.38 103.785ZM260.358 105.098C260.358 105.098 259.917 105.953 260.295 105.98C260.546 105.998 260.949 105.672 261.1 105.328C261.679 104.306 261.188 104.093 260.484 105.107L260.358 105.098ZM261.893 103.079C260.886 103.008 259.98 103.298 259.955 103.651C259.917 104.18 262.95 104.219 263.504 103.549C263.504 103.549 262.9 103.151 261.893 103.079ZM264.775 105.236C264.775 105.236 264.7 104.521 264.322 104.494C263.944 104.467 263.806 104.635 263.768 105.164C263.731 105.693 263.844 105.879 264.221 105.905C264.599 105.932 264.737 105.765 264.775 105.236ZM267.456 103.121C266.449 103.05 266.071 103.023 266.675 103.42C267.179 103.456 268.06 103.519 268.437 103.546C268.815 103.573 268.463 103.193 267.443 103.298L267.456 103.121ZM272.163 102.748C271.282 102.685 270.904 102.658 271.382 103.047C271.886 103.082 272.515 103.127 272.893 103.154C273.27 103.181 272.918 102.801 272.163 102.748ZM275.611 102.284C274.856 102.23 274.604 102.212 275.082 102.601C275.573 102.813 276.077 102.849 276.467 102.7C276.844 102.727 276.492 102.347 275.737 102.293L275.611 102.284ZM282.029 102.742C282.029 102.742 281.325 101.982 280.582 101.752C279.701 101.689 279.072 101.644 279.059 101.821C279.047 101.997 279.399 102.377 279.902 102.413C280.406 102.448 281.023 102.67 281.388 102.873C281.753 103.076 282.143 102.927 282.155 102.751L282.029 102.742ZM286.145 101.794C286.145 101.794 285.314 101.025 284.131 101.65C283.351 101.949 283.464 102.134 284.597 102.215C285.352 102.269 286.12 102.146 286.145 101.794ZM289.669 102.045C289.669 102.045 289.216 101.303 288.712 101.267C287.957 101.213 287.831 101.204 288.297 101.77C289.128 102.538 289.631 102.574 289.681 101.868L289.669 102.045ZM293.243 101.59C293.243 101.59 292.513 101.183 291.758 101.13C290.877 101.067 290.222 101.375 290.21 101.551C290.197 101.728 290.927 102.134 291.695 102.012C292.576 102.075 293.23 101.767 293.243 101.59ZM294.665 101.16C294.665 101.16 294.715 100.454 294.464 100.436C294.212 100.418 294.199 100.594 293.91 101.106C293.759 101.45 293.86 101.812 294.111 101.829C294.363 101.847 294.64 101.512 294.665 101.16ZM300.152 102.26C300.152 102.26 299.825 101.527 299.699 101.518C299.573 101.509 299.435 101.677 299.397 102.206C299.359 102.736 299.599 102.93 299.85 102.948C300.102 102.966 300.253 102.622 300.152 102.26ZM308.207 99.2875C308.207 99.2875 308.106 98.9258 307.728 98.8989C307.477 98.8809 307.2 99.2159 307.175 99.5687C307.15 99.9216 307.389 100.116 307.653 99.9574C307.917 99.7989 308.194 99.464 308.207 99.2875ZM320.603 97.5112C320.603 97.5112 319.961 97.6429 320.326 97.8462C320.578 97.8641 321.081 97.9 321.207 97.909C321.346 97.7415 321.107 97.5471 320.603 97.5112ZM323.41 97.1793C322.655 97.1255 322.403 97.1076 322.881 97.4963C323.372 97.7087 323.875 97.7445 324.265 97.595C324.656 97.4455 324.291 97.2421 323.536 97.1883L323.41 97.1793ZM325.599 96.626C325.599 96.626 324.958 96.7577 325.323 96.961C325.574 96.979 326.078 97.0149 326.204 97.0238C326.342 96.8564 326.103 96.6619 325.599 96.626ZM334.774 92.1374C334.774 92.1374 334.233 92.6309 334.61 92.6579C334.988 92.6848 335.252 92.5263 335.416 92.0059C335.844 91.3271 335.592 91.3092 334.786 91.9611L334.774 92.1374ZM337.706 93.5877C337.706 93.5877 336.976 93.1811 337.14 92.6608C337.304 92.1405 337.203 91.7786 336.825 91.7517C336.07 91.6978 336.02 92.4036 336.687 93.6925C337.014 94.4251 337.379 94.6284 337.908 94.3114C338.449 93.818 338.449 93.818 337.82 93.7732L337.706 93.5877ZM340.626 93.4413C340.626 93.4413 339.758 93.202 339.468 93.7133C339.317 94.0572 339.431 94.2427 339.833 93.9167C340.223 93.7672 340.626 93.4412 340.639 93.2648L340.626 93.4413ZM341.733 90.3283C341.733 90.3283 341.633 89.9665 341.255 89.9396C341.003 89.9216 340.727 90.2566 340.702 90.6094C340.676 90.9623 340.915 91.1566 341.18 90.9981C341.444 90.8396 341.721 90.5047 341.733 90.3283ZM343.747 94.0183C343.747 94.0183 343.798 93.3127 343.546 93.2948C343.294 93.2769 343.282 93.4532 342.992 93.9645C342.841 94.3084 342.942 94.6703 343.194 94.6882C343.445 94.7062 343.722 94.3712 343.747 94.0183ZM347.623 87.5562C345.861 87.4306 345.068 87.906 345.031 88.4353C344.968 89.3175 347.246 89.3026 347.951 88.2888C348.504 87.619 348.517 87.4425 347.623 87.5562ZM349.838 90.1967C349.838 90.1967 349.599 90.0022 349.222 89.9753C348.844 89.9484 348.58 90.1069 348.794 90.6542C349.008 91.2014 349.901 91.0878 349.952 90.3821L349.838 90.1967ZM353.423 39.9132C353.423 39.9132 353.637 40.4604 354.014 40.4873C354.392 40.5143 354.644 40.5322 354.656 40.3557C354.669 40.1793 354.43 39.9849 354.064 39.7816C353.7 39.5782 353.435 39.7368 353.423 39.9132ZM304.909 95.8606C304.909 95.8606 304.003 96.1507 303.248 96.0969C302.493 96.0431 301.7 96.5185 301.536 97.0388C301.36 97.7356 301.486 97.7445 302.015 97.4275C302.405 97.278 303.94 97.0329 305.337 96.9551C308.257 96.8086 309.591 95.8397 306.948 95.6513C305.941 95.5795 305.06 95.5167 304.909 95.8606ZM293.419 97.3469C292.538 97.2841 291.77 97.4066 291.758 97.5831C291.758 97.5831 290.474 97.8462 288.951 97.915C287.428 97.9838 283.477 98.4114 279.915 98.6896C276.353 98.9677 272.93 99.0784 272.049 99.0156C270.916 98.9348 270.652 99.0933 270.589 99.9755C270.539 100.681 270.526 100.858 270.803 100.523C270.828 100.17 271.722 100.056 272.729 100.128C274.239 100.236 276.895 100.248 283.892 99.6824C285.415 99.6136 287.202 99.3863 287.97 99.2637C288.725 99.3175 290.65 98.9228 292.173 98.854C295.093 98.7075 296.188 97.5442 293.406 97.5232L293.419 97.3469ZM295.433 97.4904C295.433 97.4904 295.886 98.232 296.905 98.1274C297.786 98.1902 298.453 97.7057 298.466 97.5293C298.478 97.3528 297.748 96.9461 296.993 96.8923C295.986 96.8206 295.47 96.9611 295.433 97.4904ZM315.003 94.4521C313.719 94.7153 312.687 94.9963 312.674 95.1728C312.662 95.3492 313.669 95.421 315.066 95.3432C316.337 95.2565 317.746 95.0023 318.25 95.0382C318.753 95.0741 319.03 94.7392 319.042 94.5627C319.093 93.857 318.589 93.8212 315.128 94.4611L315.003 94.4521ZM266.461 99.3265C266.461 99.3265 265.052 99.5807 263.667 99.4821C262.283 99.3834 261.138 99.4791 261.112 99.8319C261.087 100.185 262.333 100.451 264.75 100.269C266.776 100.236 268.676 100.194 269.054 100.221C269.306 100.239 269.57 100.08 269.595 99.7272C269.645 99.0215 266.751 98.8152 266.323 99.494L266.461 99.3265ZM311.202 94.5358C311.202 94.5358 310.686 94.6763 310.044 94.8079C308.76 95.0711 308.685 96.1297 309.943 96.2194C310.447 96.2553 310.849 95.9293 310.875 95.5764C310.9 95.2236 311.164 95.0652 311.391 95.436C311.617 95.8068 311.768 95.4628 311.667 95.101C311.567 94.7392 311.34 94.3683 311.34 94.3683L311.202 94.5358ZM258.344 99.6346C257.211 99.5538 256.192 99.6585 256.066 99.6496C255.94 99.6406 253.775 99.8409 251.246 99.8379C248.716 99.835 245.67 99.9725 244.525 100.068C243.392 99.9875 240.347 100.125 237.805 100.299C235.149 100.287 228.441 100.34 222.74 100.466C208.682 100.705 182.278 100.242 164.998 99.5421C157.183 99.1624 146.083 98.7258 140.419 98.3221C134.756 97.9184 129.835 97.7449 129.319 97.8854C128.816 97.8496 128.551 98.008 128.526 98.3609C128.501 98.7138 131.899 98.956 135.926 99.2431C154.427 100.562 181.8 101.626 191.025 101.752C196.588 101.794 203.787 101.952 207.21 101.842C210.494 101.898 214.169 101.806 215.315 101.71C216.447 101.791 219.745 101.671 222.79 101.534C225.698 101.563 229.121 101.453 230.253 101.534C231.386 101.614 234.18 101.459 236.584 101.453C240.762 101.396 245.96 101.235 250.012 101.169C251.145 101.249 253.687 101.076 255.852 100.876C259.904 100.81 262.132 99.7273 258.47 99.6435L258.344 99.6346ZM299.951 96.2164C299.951 96.2164 299.044 96.5065 299.019 96.8594C298.994 97.2123 299.347 97.5921 299.85 97.6279C300.353 97.6638 300.756 97.3379 300.781 96.985C300.806 96.6321 300.454 96.2523 299.951 96.2164Z" fill="#A7C957"/>
</svg>
