<svg width="115" height="30" viewBox="0 0 115 30" fill="none" xmlns="http://www.w3.org/2000/svg">
<mask id="mask0_99_30" style="mask-type:luminance" maskUnits="userSpaceOnUse" x="0" y="0" width="115" height="30">
<path d="M115 0H0V29.6992H115V0Z" fill="white"/>
</mask>
<g mask="url(#mask0_99_30)">
<path d="M30.0789 22.4853V1.52588e-05H33.5803V8.85915C34.6772 7.21388 36.3224 6.41234 38.5161 6.41234C40.3723 6.41234 41.8488 6.96076 42.8613 8.05761C43.8738 9.15445 44.38 10.7153 44.38 12.6981V22.4853H40.8786V13.2043C40.8786 10.631 39.7395 9.36539 37.4615 9.36539C36.3224 9.36539 35.3943 9.70288 34.635 10.42C33.9178 11.095 33.5381 12.0653 33.5381 13.3309V22.5275L30.0789 22.4853Z" fill="#323232"/>
<path d="M60.9171 20.5448C59.3562 22.1057 57.4156 22.865 55.0532 22.865C52.6907 22.865 50.7502 22.1057 49.1893 20.5448C47.6284 18.9839 46.8268 17.0011 46.8268 14.6387C46.8268 12.2341 47.6284 10.2935 49.1893 8.7326C50.7502 7.1717 52.6907 6.41235 55.0532 6.41235C57.4156 6.41235 59.3562 7.1717 60.9171 8.7326C62.478 10.2935 63.2373 12.2341 63.2373 14.6387C63.2373 17.0433 62.478 19.0261 60.9171 20.5448ZM51.7626 18.6042C52.6064 19.5745 53.7032 20.0807 55.0954 20.0807C56.4875 20.0807 57.5844 19.5745 58.4281 18.6042C59.2718 17.6339 59.6937 16.3261 59.6937 14.6387C59.6937 12.9934 59.2718 11.6856 58.4281 10.7154C57.5844 9.74507 56.4875 9.23883 55.1376 9.23883C53.7454 9.23883 52.6486 9.70288 51.8048 10.6732C50.9611 11.6435 50.5392 12.9512 50.5392 14.5965C50.4971 16.2839 50.9189 17.6339 51.7626 18.6042Z" fill="#323232"/>
<path d="M71.3371 22.9072C68.1309 22.9072 66.5279 21.1776 66.5279 17.7183V9.74505H64.0811V6.79201H66.6122L67.4138 2.15151H70.0293V6.79201H76.2729V9.74505H70.0293V17.5917C70.0293 19.0261 70.5778 19.7432 71.6324 19.7432C72.6449 19.7432 73.5308 18.8573 74.3323 17.0433L77.0323 18.4354C75.6823 21.4307 73.7839 22.9072 71.3371 22.9072Z" fill="#323232"/>
<path d="M78.1291 29.6992C76.5682 29.6992 75.3026 29.2773 74.2902 28.3914L75.5979 25.6493C76.2307 26.3665 76.9057 26.7462 77.6229 26.7462C78.5932 26.7462 79.0994 26.1134 79.0994 24.89V6.79202H82.6009V24.89C82.6009 26.5774 82.179 27.8008 81.3353 28.518C80.4916 29.3195 79.4369 29.6992 78.1291 29.6992ZM80.829 4.13428C80.2384 4.13428 79.69 3.92335 79.2682 3.54367C79.0572 3.33274 78.8885 3.12181 78.8041 2.86869C78.6775 2.61557 78.6354 2.32027 78.6775 2.06715C78.6775 1.77184 78.7197 1.51872 78.8463 1.26561C78.9728 1.01249 79.0994 0.75937 79.3103 0.590625C79.7322 0.210948 80.2806 1.52588e-05 80.8712 1.52588e-05C81.4618 1.52588e-05 82.0103 0.210948 82.4321 0.590625C82.6431 0.801557 82.8118 1.01249 82.8962 1.26561C83.0227 1.51872 83.0649 1.81403 83.0649 2.06715C83.0649 2.36245 83.0227 2.61557 82.8962 2.86869C82.7696 3.12181 82.6431 3.33274 82.4321 3.54367C82.2212 3.7546 81.9681 3.88116 81.715 4.00772C81.4197 4.09209 81.1244 4.17647 80.829 4.13428Z" fill="#323232"/>
<path d="M91.2491 22.9072C89.4772 22.9072 88.0007 22.4431 86.9039 21.5572C85.807 20.6713 85.2586 19.4479 85.2586 17.9714C85.2586 16.5792 85.8492 15.4402 86.9882 14.4699C88.1273 13.4996 89.6038 13.0356 91.3334 13.0356C93.1053 13.0356 94.624 13.6262 95.8474 14.7652V12.8668C95.8474 11.7278 95.5521 10.8841 95.0036 10.2513C94.413 9.6185 93.6115 9.32319 92.5568 9.32319C90.4053 9.32319 89.0976 10.42 88.5913 12.5715L85.3852 11.8966C85.807 10.2091 86.6508 8.90133 87.9585 7.93104C89.2241 6.96076 90.8272 6.45452 92.7256 6.45452C94.7927 6.45452 96.438 7.00294 97.6192 8.09979C98.8004 9.19663 99.4332 10.7997 99.4332 12.8668V22.5275H96.0161V20.5448C94.8349 22.1057 93.274 22.9072 91.2491 22.9072ZM91.9241 20.2916C93.4849 20.2916 94.7927 19.5323 95.8896 17.9714V17.4652C94.7927 16.1574 93.4849 15.5246 91.9241 15.5246C91.0381 15.5246 90.2788 15.7355 89.7304 16.1996C89.4772 16.4105 89.2663 16.6636 89.0976 16.9589C88.971 17.2542 88.8866 17.5917 88.8866 17.9292C88.8866 18.2667 88.9288 18.6042 89.0976 18.8995C89.2241 19.1948 89.4351 19.4479 89.7304 19.6588C90.2366 20.0807 90.996 20.2916 91.9241 20.2916Z" fill="#323232"/>
<path d="M102.766 22.4853V6.79202H106.183V9.49195C107.027 7.50919 108.545 6.49672 110.655 6.49672C111.92 6.49672 112.933 6.91858 113.777 7.72012C114.62 8.52166 115 9.66069 115 11.0107C115 11.8544 114.831 12.6559 114.578 13.4575L111.372 13.12C111.456 12.6981 111.499 12.2762 111.499 11.8122C111.499 10.2091 110.824 9.36539 109.474 9.36539C108.588 9.36539 107.786 9.82944 107.196 10.7997C106.563 11.77 106.267 13.0356 106.267 14.5965V22.401H102.766V22.4853Z" fill="#323232"/>
<path d="M8.26854 9.19663C10.8841 7.7623 14.4277 5.77954 14.4277 7.62939e-06H10.0825C10.0825 3.20617 8.52165 4.09209 6.11703 5.39986C3.50148 6.8342 -0.0421753 8.81695 -0.0421753 14.5965H4.26083C4.30302 11.3903 5.86391 10.5466 8.26854 9.19663Z" fill="#FF3C00"/>
<path d="M15.7355 7.88887C15.7355 11.095 14.1746 11.9809 11.77 13.2887C9.15443 14.7231 5.61078 16.7058 5.61078 22.4853H9.91379C9.91379 19.2792 11.4747 18.3933 13.8793 17.0855C16.4949 15.6512 20.0385 13.6684 20.0385 7.88887H15.7355Z" fill="#FF3C00"/>
</g>
</svg>
