<svg width="115" height="48" viewBox="0 0 115 48" fill="none" xmlns="http://www.w3.org/2000/svg">
<path d="M43.9198 34.6989V9.53294H48.5619V34.6989H43.9198V34.6989ZM88.4426 17.5967H92.875V19.6837C93.8177 18.0153 96.0178 17.1105 97.902 17.1105C100.242 17.1105 102.126 18.1196 102.998 19.9601C104.358 17.8731 106.174 17.1105 108.444 17.1105C111.62 17.1105 114.655 19.0221 114.655 23.6101V34.6989H110.154V24.5493C110.154 22.7065 109.246 21.3155 107.116 21.3155C105.126 21.3155 103.939 22.8464 103.939 24.6892V34.7001H99.3334V24.5493C99.3334 22.7065 98.3907 21.3155 96.2955 21.3155C94.2706 21.3155 93.0836 22.812 93.0836 24.6892V34.7001H88.4426V17.5967V17.5967ZM59.0527 35.1943C53.8228 35.1943 50.0359 31.3333 50.0359 26.1478C50.0359 21.0449 53.8113 17.0933 59.0527 17.0933C64.3194 17.0933 68.0695 21.0816 68.0695 26.1478C68.0695 31.2966 64.2802 35.1943 59.0527 35.1943ZM59.0527 21.2788C57.7555 21.2807 56.512 21.7944 55.595 22.7075C54.6781 23.6205 54.1626 24.8582 54.1617 26.149C54.1626 27.4397 54.6781 28.6774 55.595 29.5905C56.512 30.5035 57.7555 31.0173 59.0527 31.0191C60.3497 31.017 61.5929 30.503 62.5096 29.59C63.4263 28.677 63.9417 27.4395 63.9426 26.149C63.9417 24.8584 63.4263 23.6209 62.5096 22.7079C61.5929 21.7949 60.3497 21.281 59.0527 21.2788V21.2788ZM77.9841 35.1943C72.7543 35.1943 68.9673 31.3333 68.9673 26.1478C68.9673 21.0449 72.7427 17.0933 77.9841 17.0933C83.2508 17.0933 87.0009 21.0816 87.0009 26.1478C87.0009 31.2966 83.2093 35.1943 77.9841 35.1943ZM77.9841 21.2203C76.672 21.2225 75.4143 21.7423 74.4868 22.6658C73.5594 23.5893 73.0378 24.8411 73.0366 26.1467C73.0378 27.4522 73.5594 28.7041 74.4868 29.6276C75.4143 30.5511 76.672 31.0709 77.9841 31.073C79.2962 31.0709 80.5539 30.5511 81.4814 29.6276C82.4088 28.7041 82.9304 27.4522 82.9316 26.1467C82.9304 24.8411 82.4088 23.5893 81.4814 22.6658C80.5539 21.7423 79.2962 21.2225 77.9841 21.2203V21.2203Z" fill="#242423"/>
<path d="M34.5852 20.316H24.0495L33.1735 15.0755L31.3641 11.9564L22.239 17.1969L27.5057 8.12058L24.371 6.32023L19.1031 15.3942V4.91549H15.4821V15.3954L10.2142 6.32023L7.07839 8.12058L12.3451 17.1946L3.22227 11.9564L1.41176 15.0755L10.5358 20.316H0V23.9178H10.5346L1.41176 29.1584L3.22112 32.2775L12.3463 27.0369L7.07839 36.1132L10.2131 37.9136L15.4821 28.8384V39.3172H19.1031V28.6137L24.4678 37.8563L27.4077 36.1683L22.0419 26.9234L31.3618 32.2763L33.1723 29.1572L24.0495 23.9167H34.5841V20.316H34.5852V20.316ZM17.2926 27.0129C16.6462 27.0129 16.0062 26.8863 15.409 26.6403C14.8117 26.3942 14.2691 26.0335 13.812 25.5788C13.3549 25.124 12.9922 24.5842 12.7448 23.99C12.4974 23.3958 12.37 22.7589 12.3699 22.1158C12.3698 21.4726 12.4971 20.8357 12.7444 20.2415C12.9916 19.6472 13.3541 19.1073 13.8112 18.6524C14.2682 18.1976 14.8107 17.8368 15.4079 17.5906C16.005 17.3444 16.6451 17.2176 17.2915 17.2175C18.5969 17.2174 19.8489 17.7332 20.7721 18.6516C21.6953 19.57 22.214 20.8157 22.2142 22.1146C22.2143 23.4136 21.6959 24.6594 20.7729 25.578C19.85 26.4966 18.5981 27.0127 17.2926 27.0129V27.0129Z" fill="#625DF5"/>
</svg>
